<ttFont>
    <TTGlyph name=".notdef" xMin="50" yMin="0" xMax="1074" yMax="1280">
      <contour>
        <pt x="50" y="0" on="1"/>
        <pt x="50" y="1280" on="1"/>
        <pt x="1074" y="1280" on="1"/>
        <pt x="1074" y="0" on="1"/>
      </contour>
      <contour>
        <pt x="82" y="32" on="1"/>
        <pt x="1042" y="32" on="1"/>
        <pt x="1042" y="1248" on="1"/>
        <pt x="82" y="1248" on="1"/>
      </contour>
    </TTGlyph>
    <TTGlyph name="A" xMin="25" yMin="0" xMax="1447" yMax="1430">
      <contour>
        <pt x="217" y="0" on="1"/>
        <pt x="25" y="0" on="1"/>
        <pt x="632" y="1430" on="1"/>
        <pt x="837" y="1430" on="1"/>
        <pt x="1447" y="0" on="1"/>
        <pt x="1242" y="0" on="1"/>
        <pt x="1057" y="450" on="1"/>
        <pt x="584" y="450" on="1"/>
        <pt x="635" y="600" on="1"/>
        <pt x="995" y="600" on="1"/>
        <pt x="728" y="1248" on="1"/>
      </contour>
    </TTGlyph>
    <TTGlyph name="AE" xMin="25" yMin="0" xMax="1800" yMax="1430">
      <contour>
        <pt x="812" y="600" on="1"/>
        <pt x="870" y="450" on="1"/>
        <pt x="411" y="450" on="1"/>
        <pt x="217" y="0" on="1"/>
        <pt x="25" y="0" on="1"/>
        <pt x="632" y="1430" on="1"/>
        <pt x="1780" y="1430" on="1"/>
        <pt x="1780" y="1280" on="1"/>
        <pt x="892" y="1280" on="1"/>
        <pt x="1102" y="800" on="1"/>
        <pt x="1745" y="800" on="1"/>
        <pt x="1745" y="650" on="1"/>
        <pt x="1171" y="650" on="1"/>
        <pt x="1397" y="150" on="1"/>
        <pt x="1800" y="150" on="1"/>
        <pt x="1800" y="0" on="1"/>
        <pt x="1252" y="0" on="1"/>
        <pt x="728" y="1238" on="1"/>
        <pt x="462" y="600" on="1"/>
      </contour>
    </TTGlyph>
    <TTGlyph name="Aacute" xMin="25" yMin="0" xMax="1447" yMax="1810">
      <component glyphName="A" x="0" y="0" flags="0x200"/>
      <component glyphName="acute" x="502" y="380" flags="0x0"/>
    </TTGlyph>
    <TTGlyph name="Abreve" xMin="25" yMin="0" xMax="1447" yMax="1810">
      <component glyphName="A" x="0" y="0" flags="0x200"/>
      <component glyphName="breve" x="371" y="380" flags="0x0"/>
    </TTGlyph>
    <TTGlyph name="Acircumflex" xMin="25" yMin="0" xMax="1447" yMax="1810">
      <component glyphName="A" x="0" y="0" flags="0x200"/>
      <component glyphName="circumflex" x="386" y="380" flags="0x0"/>
    </TTGlyph>
    <TTGlyph name="Adieresis" xMin="25" yMin="0" xMax="1447" yMax="1810">
      <component glyphName="A" x="0" y="0" flags="0x200"/>
      <component glyphName="dieresis" x="359" y="380" flags="0x0"/>
    </TTGlyph>
    <TTGlyph name="Agrave" xMin="25" yMin="0" xMax="1447" yMax="1810">
      <component glyphName="A" x="0" y="0" flags="0x200"/>
      <component glyphName="grave" x="367" y="380" flags="0x0"/>
    </TTGlyph>
    <TTGlyph name="Alpha" xMin="25" yMin="0" xMax="1447" yMax="1430">
      <component glyphName="A" x="0" y="0" flags="0x200"/>
    </TTGlyph>
    <TTGlyph name="Alphatonos" xMin="25" yMin="0" xMax="1447" yMax="1430">
      <component glyphName="tonos" x="0" y="0" flags="0x0"/>
      <component glyphName="Alpha" x="0" y="0" flags="0x200"/>
    </TTGlyph>
    <TTGlyph name="Amacron" xMin="25" yMin="0" xMax="1447" yMax="1810">
      <component glyphName="A" x="0" y="0" flags="0x200"/>
      <component glyphName="macron" x="386" y="380" flags="0x0"/>
    </TTGlyph>
    <TTGlyph name="Aogonek" xMin="25" yMin="-426" xMax="1467" yMax="1430">
      <contour>
        <pt x="217" y="0" on="1"/>
        <pt x="25" y="0" on="1"/>
        <pt x="632" y="1430" on="1"/>
        <pt x="837" y="1430" on="1"/>
        <pt x="1447" y="0" on="1"/>
        <pt x="1245" y="-126" on="0"/>
        <pt x="1245" y="-228" on="1"/>
        <pt x="1245" y="-296" on="0"/>
        <pt x="1330" y="-296" on="1"/>
        <pt x="1415" y="-296" on="0"/>
        <pt x="1467" y="-276" on="1"/>
        <pt x="1467" y="-406" on="1"/>
        <pt x="1406" y="-426" on="0"/>
        <pt x="1318" y="-426" on="1"/>
        <pt x="1087" y="-426" on="0"/>
        <pt x="1087" y="-253" on="1"/>
        <pt x="1087" y="-122" on="0"/>
        <pt x="1242" y="0" on="1"/>
        <pt x="1057" y="450" on="1"/>
        <pt x="584" y="450" on="1"/>
        <pt x="635" y="600" on="1"/>
        <pt x="995" y="600" on="1"/>
        <pt x="728" y="1248" on="1"/>
      </contour>
    </TTGlyph>
    <TTGlyph name="Aring" xMin="25" yMin="0" xMax="1447" yMax="1835">
      <contour>
        <pt x="738" y="1490" on="1"/>
        <pt x="872" y="1490" on="0"/>
        <pt x="872" y="1627" on="1"/>
        <pt x="872" y="1761" on="0"/>
        <pt x="738" y="1761" on="1"/>
        <pt x="600" y="1761" on="0"/>
        <pt x="600" y="1627" on="1"/>
        <pt x="600" y="1490" on="0"/>
      </contour>
      <contour>
        <pt x="217" y="0" on="1"/>
        <pt x="25" y="0" on="1"/>
        <pt x="632" y="1430" on="1"/>
        <pt x="635" y="1430" on="1"/>
        <pt x="510" y="1470" on="0"/>
        <pt x="510" y="1625" on="1"/>
        <pt x="510" y="1835" on="0"/>
        <pt x="738" y="1835" on="1"/>
        <pt x="962" y="1835" on="0"/>
        <pt x="962" y="1625" on="1"/>
        <pt x="962" y="1469" on="0"/>
        <pt x="837" y="1429" on="1"/>
        <pt x="1447" y="0" on="1"/>
        <pt x="1242" y="0" on="1"/>
        <pt x="1057" y="450" on="1"/>
        <pt x="584" y="450" on="1"/>
        <pt x="635" y="600" on="1"/>
        <pt x="995" y="600" on="1"/>
        <pt x="728" y="1248" on="1"/>
      </contour>
    </TTGlyph>
    <TTGlyph name="Atilde" xMin="25" yMin="0" xMax="1447" yMax="1810">
      <component glyphName="A" x="0" y="0" flags="0x200"/>
      <component glyphName="tilde" x="386" y="380" flags="0x0"/>
    </TTGlyph>
    <TTGlyph name="B" xMin="170" yMin="0" xMax="1206" yMax="1430">
      <contour>
        <pt x="170" y="0" on="1"/>
        <pt x="170" y="1430" on="1"/>
        <pt x="780" y="1430" on="1"/>
        <pt x="1188" y="1430" on="0"/>
        <pt x="1188" y="1097" on="1"/>
        <pt x="1188" y="853" on="0"/>
        <pt x="922" y="748" on="1"/>
        <pt x="1206" y="695" on="0"/>
        <pt x="1206" y="423" on="1"/>
        <pt x="1206" y="0" on="0"/>
        <pt x="759" y="0" on="1"/>
      </contour>
      <contour>
        <pt x="748" y="150" on="1"/>
        <pt x="1004" y="150" on="0"/>
        <pt x="1004" y="410" on="1"/>
        <pt x="1004" y="663" on="0"/>
        <pt x="661" y="663" on="1"/>
        <pt x="581" y="663" on="1"/>
        <pt x="581" y="784" on="1"/>
        <pt x="991" y="839" on="0"/>
        <pt x="991" y="1080" on="1"/>
        <pt x="991" y="1280" on="0"/>
        <pt x="763" y="1280" on="1"/>
        <pt x="355" y="1280" on="1"/>
        <pt x="355" y="150" on="1"/>
      </contour>
    </TTGlyph>
    <TTGlyph name="Beta" xMin="170" yMin="0" xMax="1206" yMax="1430">
      <component glyphName="B" x="0" y="0" flags="0x200"/>
    </TTGlyph>
    <TTGlyph name="C" xMin="100" yMin="-10" xMax="1250" yMax="1440">
      <contour>
        <pt x="1250" y="50" on="1"/>
        <pt x="1065" y="-10" on="0"/>
        <pt x="850" y="-10" on="1"/>
        <pt x="100" y="-10" on="0"/>
        <pt x="100" y="735" on="1"/>
        <pt x="100" y="1440" on="0"/>
        <pt x="850" y="1440" on="1"/>
        <pt x="1065" y="1440" on="0"/>
        <pt x="1250" y="1380" on="1"/>
        <pt x="1250" y="1220" on="1"/>
        <pt x="1065" y="1290" on="0"/>
        <pt x="870" y="1290" on="1"/>
        <pt x="285" y="1290" on="0"/>
        <pt x="285" y="735" on="1"/>
        <pt x="285" y="140" on="0"/>
        <pt x="870" y="140" on="1"/>
        <pt x="1065" y="140" on="0"/>
        <pt x="1250" y="210" on="1"/>
      </contour>
    </TTGlyph>
    <TTGlyph name="Cacute" xMin="100" yMin="-10" xMax="1250" yMax="1810">
      <component glyphName="C" x="0" y="0" flags="0x200"/>
      <component glyphName="acute" x="441" y="380" flags="0x0"/>
    </TTGlyph>
    <TTGlyph name="Ccaron" xMin="100" yMin="-10" xMax="1250" yMax="1810">
      <component glyphName="C" x="0" y="0" flags="0x200"/>
      <component glyphName="caron" x="416" y="380" flags="0x0"/>
    </TTGlyph>
    <TTGlyph name="Ccedilla" xMin="100" yMin="-422" xMax="1250" yMax="1440">
      <contour>
        <pt x="705" y="-2" on="1"/>
        <pt x="100" y="66" on="0"/>
        <pt x="100" y="735" on="1"/>
        <pt x="100" y="1440" on="0"/>
        <pt x="850" y="1440" on="1"/>
        <pt x="1065" y="1440" on="0"/>
        <pt x="1250" y="1380" on="1"/>
        <pt x="1250" y="1220" on="1"/>
        <pt x="1065" y="1290" on="0"/>
        <pt x="870" y="1290" on="1"/>
        <pt x="285" y="1290" on="0"/>
        <pt x="285" y="735" on="1"/>
        <pt x="285" y="140" on="0"/>
        <pt x="870" y="140" on="1"/>
        <pt x="1065" y="140" on="0"/>
        <pt x="1250" y="210" on="1"/>
        <pt x="1250" y="50" on="1"/>
        <pt x="1065" y="-10" on="0"/>
        <pt x="850" y="-10" on="1"/>
        <pt x="834" y="-10" on="1"/>
        <pt x="798" y="-77" on="1"/>
        <pt x="1012" y="-77" on="0"/>
        <pt x="1012" y="-249" on="1"/>
        <pt x="1012" y="-422" on="0"/>
        <pt x="771" y="-422" on="1"/>
        <pt x="663" y="-422" on="0"/>
        <pt x="555" y="-372" on="1"/>
        <pt x="555" y="-264" on="1"/>
        <pt x="663" y="-314" on="0"/>
        <pt x="771" y="-314" on="1"/>
        <pt x="879" y="-314" on="0"/>
        <pt x="879" y="-249" on="1"/>
        <pt x="879" y="-185" on="0"/>
        <pt x="796" y="-185" on="1"/>
        <pt x="613" y="-185" on="1"/>
      </contour>
    </TTGlyph>
    <TTGlyph name="Ccircumflex" xMin="100" yMin="-10" xMax="1250" yMax="1810">
      <component glyphName="C" x="0" y="0" flags="0x200"/>
      <component glyphName="circumflex" x="455" y="380" flags="0x0"/>
    </TTGlyph>
    <TTGlyph name="Cdotaccent" xMin="100" yMin="-10" xMax="1250" yMax="1810">
      <component glyphName="C" x="0" y="0" flags="0x200"/>
      <component glyphName="dotaccent" x="633" y="380" flags="0x0"/>
    </TTGlyph>
    <TTGlyph name="Chi" xMin="25" yMin="0" xMax="1375" yMax="1430">
      <component glyphName="X" x="0" y="0" flags="0x200"/>
    </TTGlyph>
    <TTGlyph name="D" xMin="170" yMin="0" xMax="1400" yMax="1430">
      <contour>
        <pt x="690" y="150" on="1"/>
        <pt x="1215" y="150" on="0"/>
        <pt x="1215" y="754" on="1"/>
        <pt x="1215" y="1280" on="0"/>
        <pt x="690" y="1280" on="1"/>
        <pt x="355" y="1280" on="1"/>
        <pt x="355" y="150" on="1"/>
      </contour>
      <contour>
        <pt x="170" y="0" on="1"/>
        <pt x="170" y="1430" on="1"/>
        <pt x="690" y="1430" on="1"/>
        <pt x="1400" y="1430" on="0"/>
        <pt x="1400" y="754" on="1"/>
        <pt x="1400" y="0" on="0"/>
        <pt x="690" y="0" on="1"/>
      </contour>
    </TTGlyph>
    <TTGlyph name="Dcaron" xMin="170" yMin="0" xMax="1400" yMax="1810">
      <component glyphName="D" x="0" y="0" flags="0x200"/>
      <component glyphName="caron" x="375" y="380" flags="0x0"/>
    </TTGlyph>
    <TTGlyph name="Dcroat" xMin="-50" yMin="0" xMax="1380" yMax="1430">
      <component glyphName="Eth" x="-20" y="0" flags="0x200"/>
    </TTGlyph>
    <TTGlyph name="Delta" xMin="25" yMin="0" xMax="1447" yMax="1430">
      <contour>
        <pt x="25" y="0" on="1"/>
        <pt x="632" y="1430" on="1"/>
        <pt x="838" y="1430" on="1"/>
        <pt x="1447" y="0" on="1"/>
      </contour>
      <contour>
        <pt x="1181" y="150" on="1"/>
        <pt x="728" y="1238" on="1"/>
        <pt x="279" y="150" on="1"/>
      </contour>
    </TTGlyph>
    <TTGlyph name="E" xMin="170" yMin="0" xMax="1120" yMax="1430">
      <contour>
        <pt x="1105" y="1430" on="1"/>
        <pt x="1105" y="1280" on="1"/>
        <pt x="355" y="1280" on="1"/>
        <pt x="355" y="800" on="1"/>
        <pt x="1070" y="800" on="1"/>
        <pt x="1070" y="650" on="1"/>
        <pt x="355" y="650" on="1"/>
        <pt x="355" y="150" on="1"/>
        <pt x="1120" y="150" on="1"/>
        <pt x="1120" y="0" on="1"/>
        <pt x="170" y="0" on="1"/>
        <pt x="170" y="1430" on="1"/>
      </contour>
    </TTGlyph>
    <TTGlyph name="Eacute" xMin="170" yMin="0" xMax="1120" yMax="1810">
      <component glyphName="E" x="0" y="0" flags="0x200"/>
      <component glyphName="acute" x="411" y="380" flags="0x0"/>
    </TTGlyph>
    <TTGlyph name="Ebreve" xMin="170" yMin="0" xMax="1120" yMax="1810">
      <component glyphName="E" x="0" y="0" flags="0x200"/>
      <component glyphName="breve" x="280" y="380" flags="0x0"/>
    </TTGlyph>
    <TTGlyph name="Ecaron" xMin="170" yMin="0" xMax="1120" yMax="1810">
      <component glyphName="E" x="0" y="0" flags="0x200"/>
      <component glyphName="caron" x="295" y="380" flags="0x0"/>
    </TTGlyph>
    <TTGlyph name="Ecircumflex" xMin="170" yMin="0" xMax="1120" yMax="1810">
      <component glyphName="E" x="0" y="0" flags="0x200"/>
      <component glyphName="circumflex" x="295" y="380" flags="0x0"/>
    </TTGlyph>
    <TTGlyph name="Edieresis" xMin="170" yMin="0" xMax="1120" yMax="1810">
      <component glyphName="E" x="0" y="0" flags="0x200"/>
      <component glyphName="dieresis" x="268" y="380" flags="0x0"/>
    </TTGlyph>
    <TTGlyph name="Edotaccent" xMin="170" yMin="0" xMax="1120" yMax="1810">
      <component glyphName="E" x="0" y="0" flags="0x200"/>
      <component glyphName="dotaccent" x="443" y="380" flags="0x0"/>
    </TTGlyph>
    <TTGlyph name="Egrave" xMin="170" yMin="0" xMax="1120" yMax="1810">
      <component glyphName="E" x="0" y="0" flags="0x200"/>
      <component glyphName="grave" x="276" y="380" flags="0x0"/>
    </TTGlyph>
    <TTGlyph name="Emacron" xMin="170" yMin="0" xMax="1120" yMax="1810">
      <component glyphName="E" x="0" y="0" flags="0x200"/>
      <component glyphName="macron" x="295" y="380" flags="0x0"/>
    </TTGlyph>
    <TTGlyph name="Eng" xMin="170" yMin="-398" xMax="1405" yMax="1430">
      <contour>
        <pt x="1217" y="4" on="1"/>
        <pt x="345" y="1162" on="1"/>
        <pt x="345" y="0" on="1"/>
        <pt x="170" y="0" on="1"/>
        <pt x="170" y="1430" on="1"/>
        <pt x="355" y="1430" on="1"/>
        <pt x="1230" y="278" on="1"/>
        <pt x="1230" y="1430" on="1"/>
        <pt x="1405" y="1430" on="1"/>
        <pt x="1405" y="80" on="1"/>
        <pt x="1405" y="-238" on="0"/>
        <pt x="1250" y="-398" on="1"/>
        <pt x="1095" y="-293" on="1"/>
        <pt x="1199" y="-180" on="0"/>
      </contour>
    </TTGlyph>
    <TTGlyph name="Eogonek" xMin="170" yMin="-426" xMax="1140" yMax="1430">
      <contour>
        <pt x="925" y="0" on="1"/>
        <pt x="170" y="0" on="1"/>
        <pt x="170" y="1430" on="1"/>
        <pt x="1105" y="1430" on="1"/>
        <pt x="1105" y="1280" on="1"/>
        <pt x="355" y="1280" on="1"/>
        <pt x="355" y="800" on="1"/>
        <pt x="1070" y="800" on="1"/>
        <pt x="1070" y="650" on="1"/>
        <pt x="355" y="650" on="1"/>
        <pt x="355" y="150" on="1"/>
        <pt x="1120" y="150" on="1"/>
        <pt x="1120" y="0" on="1"/>
        <pt x="918" y="-126" on="0"/>
        <pt x="918" y="-228" on="1"/>
        <pt x="918" y="-296" on="0"/>
        <pt x="1003" y="-296" on="1"/>
        <pt x="1088" y="-296" on="0"/>
        <pt x="1140" y="-276" on="1"/>
        <pt x="1140" y="-406" on="1"/>
        <pt x="1079" y="-426" on="0"/>
        <pt x="991" y="-426" on="1"/>
        <pt x="760" y="-426" on="0"/>
        <pt x="760" y="-253" on="1"/>
        <pt x="760" y="-122" on="0"/>
      </contour>
    </TTGlyph>
    <TTGlyph name="Epsilon" xMin="170" yMin="0" xMax="1120" yMax="1430">
      <component glyphName="E" x="0" y="0" flags="0x200"/>
    </TTGlyph>
    <TTGlyph name="Epsilontonos" xMin="-50" yMin="0" xMax="1373" yMax="1430">
      <contour>
        <pt x="114" y="1430" on="1"/>
        <pt x="353" y="1430" on="1"/>
        <pt x="114" y="1191" on="1"/>
        <pt x="-50" y="1191" on="1"/>
      </contour>
      <contour>
        <pt x="1358" y="1430" on="1"/>
        <pt x="1358" y="1280" on="1"/>
        <pt x="608" y="1280" on="1"/>
        <pt x="608" y="800" on="1"/>
        <pt x="1323" y="800" on="1"/>
        <pt x="1323" y="650" on="1"/>
        <pt x="608" y="650" on="1"/>
        <pt x="608" y="150" on="1"/>
        <pt x="1373" y="150" on="1"/>
        <pt x="1373" y="0" on="1"/>
        <pt x="423" y="0" on="1"/>
        <pt x="423" y="1430" on="1"/>
      </contour>
    </TTGlyph>
    <TTGlyph name="Eta" xMin="170" yMin="0" xMax="1385" yMax="1430">
      <component glyphName="H" x="0" y="0" flags="0x200"/>
    </TTGlyph>
    <TTGlyph name="Etatonos" xMin="-50" yMin="0" xMax="1638" yMax="1430">
      <contour>
        <pt x="114" y="1430" on="1"/>
        <pt x="353" y="1430" on="1"/>
        <pt x="114" y="1191" on="1"/>
        <pt x="-50" y="1191" on="1"/>
      </contour>
      <contour>
        <pt x="423" y="0" on="1"/>
        <pt x="423" y="1430" on="1"/>
        <pt x="608" y="1430" on="1"/>
        <pt x="608" y="800" on="1"/>
        <pt x="1453" y="800" on="1"/>
        <pt x="1453" y="1430" on="1"/>
        <pt x="1638" y="1430" on="1"/>
        <pt x="1638" y="0" on="1"/>
        <pt x="1453" y="0" on="1"/>
        <pt x="1453" y="650" on="1"/>
        <pt x="608" y="650" on="1"/>
        <pt x="608" y="0" on="1"/>
      </contour>
    </TTGlyph>
    <TTGlyph name="Eth" xMin="-30" yMin="0" xMax="1400" yMax="1430">
      <contour>
        <pt x="170" y="800" on="1"/>
        <pt x="170" y="1430" on="1"/>
        <pt x="690" y="1430" on="1"/>
        <pt x="1400" y="1430" on="0"/>
        <pt x="1400" y="754" on="1"/>
        <pt x="1400" y="0" on="0"/>
        <pt x="690" y="0" on="1"/>
        <pt x="170" y="0" on="1"/>
        <pt x="170" y="650" on="1"/>
        <pt x="-30" y="650" on="1"/>
        <pt x="-30" y="800" on="1"/>
      </contour>
      <contour>
        <pt x="355" y="800" on="1"/>
        <pt x="720" y="800" on="1"/>
        <pt x="720" y="650" on="1"/>
        <pt x="355" y="650" on="1"/>
        <pt x="355" y="150" on="1"/>
        <pt x="690" y="150" on="1"/>
        <pt x="1215" y="150" on="0"/>
        <pt x="1215" y="754" on="1"/>
        <pt x="1215" y="1280" on="0"/>
        <pt x="690" y="1280" on="1"/>
        <pt x="355" y="1280" on="1"/>
      </contour>
    </TTGlyph>
    <TTGlyph name="Euro" xMin="100" yMin="-10" xMax="1250" yMax="1440">
      <contour>
        <pt x="1250" y="50" on="1"/>
        <pt x="1065" y="-10" on="0"/>
        <pt x="850" y="-10" on="1"/>
        <pt x="100" y="-10" on="0"/>
        <pt x="100" y="735" on="1"/>
        <pt x="100" y="1440" on="0"/>
        <pt x="850" y="1440" on="1"/>
        <pt x="1065" y="1440" on="0"/>
        <pt x="1250" y="1380" on="1"/>
        <pt x="1250" y="1220" on="1"/>
        <pt x="1065" y="1290" on="0"/>
        <pt x="870" y="1290" on="1"/>
        <pt x="372" y="1290" on="0"/>
        <pt x="285" y="942" on="1"/>
        <pt x="1058" y="942" on="1"/>
        <pt x="1058" y="792" on="1"/>
        <pt x="265" y="792" on="1"/>
        <pt x="265" y="682" on="1"/>
        <pt x="1058" y="682" on="1"/>
        <pt x="1058" y="532" on="1"/>
        <pt x="285" y="532" on="1"/>
        <pt x="362" y="140" on="0"/>
        <pt x="870" y="140" on="1"/>
        <pt x="1065" y="140" on="0"/>
        <pt x="1250" y="210" on="1"/>
      </contour>
    </TTGlyph>
    <TTGlyph name="F" xMin="170" yMin="0" xMax="1105" yMax="1430">
      <contour>
        <pt x="1105" y="1430" on="1"/>
        <pt x="1105" y="1280" on="1"/>
        <pt x="355" y="1280" on="1"/>
        <pt x="355" y="800" on="1"/>
        <pt x="1070" y="800" on="1"/>
        <pt x="1070" y="650" on="1"/>
        <pt x="355" y="650" on="1"/>
        <pt x="355" y="0" on="1"/>
        <pt x="170" y="0" on="1"/>
        <pt x="170" y="1430" on="1"/>
      </contour>
    </TTGlyph>
    <TTGlyph name="G" xMin="100" yMin="-10" xMax="1250" yMax="1440">
      <contour>
        <pt x="1250" y="56" on="1"/>
        <pt x="1077" y="-10" on="0"/>
        <pt x="877" y="-10" on="1"/>
        <pt x="100" y="-10" on="0"/>
        <pt x="100" y="735" on="1"/>
        <pt x="100" y="1440" on="0"/>
        <pt x="850" y="1440" on="1"/>
        <pt x="1065" y="1440" on="0"/>
        <pt x="1250" y="1380" on="1"/>
        <pt x="1250" y="1220" on="1"/>
        <pt x="1065" y="1290" on="0"/>
        <pt x="870" y="1290" on="1"/>
        <pt x="285" y="1290" on="0"/>
        <pt x="285" y="735" on="1"/>
        <pt x="285" y="140" on="0"/>
        <pt x="861" y="140" on="1"/>
        <pt x="953" y="140" on="0"/>
        <pt x="1065" y="164" on="1"/>
        <pt x="1065" y="650" on="1"/>
        <pt x="1250" y="650" on="1"/>
      </contour>
    </TTGlyph>
    <TTGlyph name="Gamma" xMin="170" yMin="0" xMax="1103" yMax="1430">
      <contour>
        <pt x="170" y="0" on="1"/>
        <pt x="170" y="1430" on="1"/>
        <pt x="1103" y="1430" on="1"/>
        <pt x="1103" y="1280" on="1"/>
        <pt x="355" y="1280" on="1"/>
        <pt x="355" y="0" on="1"/>
      </contour>
    </TTGlyph>
    <TTGlyph name="Gbreve" xMin="100" yMin="-10" xMax="1250" yMax="1810">
      <component glyphName="G" x="0" y="0" flags="0x200"/>
      <component glyphName="breve" x="420" y="380" flags="0x0"/>
    </TTGlyph>
    <TTGlyph name="Gcircumflex" xMin="100" yMin="-10" xMax="1250" yMax="1810">
      <component glyphName="G" x="0" y="0" flags="0x200"/>
      <component glyphName="circumflex" x="435" y="380" flags="0x0"/>
    </TTGlyph>
    <TTGlyph name="Gcommaaccent" xMin="100" yMin="-380" xMax="1250" yMax="1440">
      <component glyphName="G" x="0" y="0" flags="0x200"/>
      <component glyphName="commaccent" x="483" y="0" flags="0x0"/>
    </TTGlyph>
    <TTGlyph name="Gdotaccent" xMin="100" yMin="-10" xMax="1250" yMax="1810">
      <component glyphName="G" x="0" y="0" flags="0x200"/>
      <component glyphName="dotaccent" x="633" y="380" flags="0x0"/>
    </TTGlyph>
    <TTGlyph name="H" xMin="170" yMin="0" xMax="1385" yMax="1430">
      <contour>
        <pt x="170" y="0" on="1"/>
        <pt x="170" y="1430" on="1"/>
        <pt x="355" y="1430" on="1"/>
        <pt x="355" y="800" on="1"/>
        <pt x="1200" y="800" on="1"/>
        <pt x="1200" y="1430" on="1"/>
        <pt x="1385" y="1430" on="1"/>
        <pt x="1385" y="0" on="1"/>
        <pt x="1200" y="0" on="1"/>
        <pt x="1200" y="650" on="1"/>
        <pt x="355" y="650" on="1"/>
        <pt x="355" y="0" on="1"/>
      </contour>
    </TTGlyph>
    <TTGlyph name="Hbar" xMin="170" yMin="0" xMax="1385" yMax="1430">
      <contour>
        <pt x="1200" y="1200" on="1"/>
        <pt x="1200" y="1430" on="1"/>
        <pt x="1385" y="1430" on="1"/>
        <pt x="1385" y="0" on="1"/>
        <pt x="1200" y="0" on="1"/>
        <pt x="1200" y="650" on="1"/>
        <pt x="355" y="650" on="1"/>
        <pt x="355" y="0" on="1"/>
        <pt x="170" y="0" on="1"/>
        <pt x="170" y="1430" on="1"/>
        <pt x="355" y="1430" on="1"/>
        <pt x="355" y="1200" on="1"/>
      </contour>
      <contour>
        <pt x="355" y="1050" on="1"/>
        <pt x="355" y="800" on="1"/>
        <pt x="1200" y="800" on="1"/>
        <pt x="1200" y="1050" on="1"/>
      </contour>
    </TTGlyph>
    <TTGlyph name="Hcircumflex" xMin="170" yMin="0" xMax="1385" yMax="1810">
      <component glyphName="H" x="0" y="0" flags="0x200"/>
      <component glyphName="circumflex" x="428" y="380" flags="0x0"/>
    </TTGlyph>
    <TTGlyph name="I" xMin="200" yMin="0" xMax="385" yMax="1430">
      <contour>
        <pt x="385" y="1430" on="1"/>
        <pt x="385" y="0" on="1"/>
        <pt x="200" y="0" on="1"/>
        <pt x="200" y="1430" on="1"/>
      </contour>
    </TTGlyph>
    <TTGlyph name="IJ" xMin="200" yMin="0" xMax="1095" yMax="1430">
      <component glyphName="I" x="0" y="0" flags="0x0"/>
      <component glyphName="J" x="585" y="0" flags="0x0"/>
    </TTGlyph>
    <TTGlyph name="Iacute" xMin="158" yMin="0" xMax="561" yMax="1810">
      <component glyphName="I" x="0" y="0" flags="0x200"/>
      <component glyphName="acute" x="58" y="380" flags="0x0"/>
    </TTGlyph>
    <TTGlyph name="Ibreve" xMin="28" yMin="0" xMax="558" yMax="1810">
      <component glyphName="I" x="1" y="0" flags="0x200"/>
      <component glyphName="breve" x="-72" y="380" flags="0x0"/>
    </TTGlyph>
    <TTGlyph name="Icircumflex" xMin="43" yMin="0" xMax="543" yMax="1810">
      <component glyphName="I" x="1" y="0" flags="0x200"/>
      <component glyphName="circumflex" x="-57" y="380" flags="0x0"/>
    </TTGlyph>
    <TTGlyph name="Idieresis" xMin="15" yMin="0" xMax="570" yMax="1810">
      <component glyphName="I" x="0" y="0" flags="0x200"/>
      <component glyphName="dieresis" x="-85" y="380" flags="0x0"/>
    </TTGlyph>
    <TTGlyph name="Idotaccent" xMin="190" yMin="0" xMax="395" yMax="1810">
      <component glyphName="I" x="0" y="0" flags="0x200"/>
      <component glyphName="dotaccent" x="90" y="380" flags="0x0"/>
    </TTGlyph>
    <TTGlyph name="Igrave" xMin="24" yMin="0" xMax="427" yMax="1810">
      <component glyphName="I" x="0" y="0" flags="0x200"/>
      <component glyphName="grave" x="-76" y="380" flags="0x0"/>
    </TTGlyph>
    <TTGlyph name="Imacron" xMin="43" yMin="0" xMax="543" yMax="1810">
      <component glyphName="I" x="1" y="0" flags="0x200"/>
      <component glyphName="macron" x="-57" y="380" flags="0x0"/>
    </TTGlyph>
    <TTGlyph name="Iogonek" xMin="35" yMin="-426" xMax="415" yMax="1430">
      <contour>
        <pt x="200" y="0" on="1"/>
        <pt x="200" y="1430" on="1"/>
        <pt x="385" y="1430" on="1"/>
        <pt x="385" y="0" on="1"/>
        <pt x="193" y="-126" on="0"/>
        <pt x="193" y="-228" on="1"/>
        <pt x="193" y="-296" on="0"/>
        <pt x="278" y="-296" on="1"/>
        <pt x="363" y="-296" on="0"/>
        <pt x="415" y="-276" on="1"/>
        <pt x="415" y="-406" on="1"/>
        <pt x="354" y="-426" on="0"/>
        <pt x="266" y="-426" on="1"/>
        <pt x="35" y="-426" on="0"/>
        <pt x="35" y="-253" on="1"/>
        <pt x="35" y="-122" on="0"/>
      </contour>
    </TTGlyph>
    <TTGlyph name="Iota" xMin="200" yMin="0" xMax="385" yMax="1430">
      <component glyphName="I" x="0" y="0" flags="0x200"/>
    </TTGlyph>
    <TTGlyph name="Iotadieresis" xMin="15" yMin="0" xMax="570" yMax="1810">
      <component glyphName="Iota" x="0" y="0" flags="0x200"/>
      <component glyphName="dieresis" x="-85" y="380" flags="0x0"/>
    </TTGlyph>
    <TTGlyph name="Iotatonos" xMin="-50" yMin="0" xMax="638" yMax="1430">
      <contour>
        <pt x="114" y="1430" on="1"/>
        <pt x="353" y="1430" on="1"/>
        <pt x="114" y="1191" on="1"/>
        <pt x="-50" y="1191" on="1"/>
      </contour>
      <contour>
        <pt x="638" y="1430" on="1"/>
        <pt x="638" y="0" on="1"/>
        <pt x="453" y="0" on="1"/>
        <pt x="453" y="1430" on="1"/>
      </contour>
    </TTGlyph>
    <TTGlyph name="Itilde" xMin="43" yMin="0" xMax="543" yMax="1810">
      <component glyphName="I" x="1" y="0" flags="0x200"/>
      <component glyphName="tilde" x="-57" y="380" flags="0x0"/>
    </TTGlyph>
    <TTGlyph name="J" xMin="25" yMin="0" xMax="510" yMax="1430">
      <contour>
        <pt x="510" y="1430" on="1"/>
        <pt x="510" y="412" on="1"/>
        <pt x="510" y="0" on="0"/>
        <pt x="25" y="0" on="1"/>
        <pt x="25" y="150" on="1"/>
        <pt x="325" y="150" on="0"/>
        <pt x="325" y="412" on="1"/>
        <pt x="325" y="1430" on="1"/>
      </contour>
    </TTGlyph>
    <TTGlyph name="Jcircumflex" xMin="25" yMin="0" xMax="668" yMax="1810">
      <component glyphName="J" x="0" y="0" flags="0x200"/>
      <component glyphName="circumflex" x="68" y="380" flags="0x0"/>
    </TTGlyph>
    <TTGlyph name="K" xMin="170" yMin="0" xMax="1375" yMax="1430">
      <contour>
        <pt x="355" y="1430" on="1"/>
        <pt x="355" y="0" on="1"/>
        <pt x="170" y="0" on="1"/>
        <pt x="170" y="1430" on="1"/>
      </contour>
      <contour>
        <pt x="1361" y="1430" on="1"/>
        <pt x="717" y="755" on="1"/>
        <pt x="1375" y="0" on="1"/>
        <pt x="1118" y="0" on="1"/>
        <pt x="535" y="688" on="1"/>
        <pt x="535" y="800" on="1"/>
        <pt x="1127" y="1430" on="1"/>
      </contour>
    </TTGlyph>
    <TTGlyph name="Kappa" xMin="170" yMin="0" xMax="1375" yMax="1430">
      <component glyphName="K" x="0" y="0" flags="0x200"/>
    </TTGlyph>
    <TTGlyph name="Kcommaaccent" xMin="170" yMin="-380" xMax="1375" yMax="1430">
      <component glyphName="K" x="0" y="0" flags="0x200"/>
      <component glyphName="commaccent" x="480" y="0" flags="0x0"/>
    </TTGlyph>
    <TTGlyph name="L" xMin="170" yMin="0" xMax="1103" yMax="1430">
      <contour>
        <pt x="355" y="1430" on="1"/>
        <pt x="355" y="150" on="1"/>
        <pt x="1103" y="150" on="1"/>
        <pt x="1103" y="0" on="1"/>
        <pt x="170" y="0" on="1"/>
        <pt x="170" y="1430" on="1"/>
      </contour>
    </TTGlyph>
    <TTGlyph name="Lacute" xMin="170" yMin="0" xMax="1103" yMax="1810">
      <component glyphName="L" x="0" y="0" flags="0x200"/>
      <component glyphName="acute" x="72" y="380" flags="0x0"/>
    </TTGlyph>
    <TTGlyph name="Lambda" xMin="25" yMin="0" xMax="1447" yMax="1430">
      <contour>
        <pt x="25" y="0" on="1"/>
        <pt x="632" y="1430" on="1"/>
        <pt x="837" y="1430" on="1"/>
        <pt x="1447" y="0" on="1"/>
        <pt x="1242" y="0" on="1"/>
        <pt x="728" y="1238" on="1"/>
        <pt x="217" y="0" on="1"/>
      </contour>
    </TTGlyph>
    <TTGlyph name="Lcaron" xMin="170" yMin="0" xMax="1103" yMax="1430">
      <contour>
        <pt x="355" y="1430" on="1"/>
        <pt x="355" y="150" on="1"/>
        <pt x="1103" y="150" on="1"/>
        <pt x="1103" y="0" on="1"/>
        <pt x="170" y="0" on="1"/>
        <pt x="170" y="1430" on="1"/>
      </contour>
      <contour>
        <pt x="880" y="1430" on="1"/>
        <pt x="730" y="995" on="1"/>
        <pt x="545" y="995" on="1"/>
        <pt x="695" y="1430" on="1"/>
      </contour>
    </TTGlyph>
    <TTGlyph name="Lcommaaccent" xMin="170" yMin="-380" xMax="1103" yMax="1430">
      <component glyphName="L" x="0" y="0" flags="0x200"/>
      <component glyphName="commaccent" x="394" y="0" flags="0x0"/>
    </TTGlyph>
    <TTGlyph name="Ldot" xMin="170" yMin="0" xMax="1103" yMax="1430">
      <component glyphName="L" x="0" y="0" flags="0x200"/>
      <component glyphName="periodcentered" x="478" y="190" flags="0x0"/>
    </TTGlyph>
    <TTGlyph name="Lslash" xMin="0" yMin="0" xMax="1083" yMax="1430">
      <contour>
        <pt x="150" y="712" on="1"/>
        <pt x="150" y="1430" on="1"/>
        <pt x="335" y="1430" on="1"/>
        <pt x="335" y="848" on="1"/>
        <pt x="658" y="1086" on="1"/>
        <pt x="658" y="906" on="1"/>
        <pt x="335" y="668" on="1"/>
        <pt x="335" y="150" on="1"/>
        <pt x="1083" y="150" on="1"/>
        <pt x="1083" y="0" on="1"/>
        <pt x="150" y="0" on="1"/>
        <pt x="150" y="532" on="1"/>
        <pt x="0" y="422" on="1"/>
        <pt x="0" y="602" on="1"/>
      </contour>
    </TTGlyph>
    <TTGlyph name="M" xMin="170" yMin="0" xMax="1670" yMax="1430">
      <contour>
        <pt x="170" y="0" on="1"/>
        <pt x="170" y="1430" on="1"/>
        <pt x="405" y="1430" on="1"/>
        <pt x="930" y="237" on="1"/>
        <pt x="1445" y="1430" on="1"/>
        <pt x="1670" y="1430" on="1"/>
        <pt x="1670" y="0" on="1"/>
        <pt x="1505" y="0" on="1"/>
        <pt x="1505" y="1173" on="1"/>
        <pt x="997" y="0" on="1"/>
        <pt x="851" y="0" on="1"/>
        <pt x="335" y="1173" on="1"/>
        <pt x="335" y="0" on="1"/>
      </contour>
    </TTGlyph>
    <TTGlyph name="MT.sign" xMin="100" yMin="-46" xMax="1624" yMax="1476">
      <contour>
        <pt x="1181" y="332" on="1"/>
        <pt x="1181" y="434" on="1"/>
        <pt x="926" y="447" on="1"/>
        <pt x="926" y="987" on="1"/>
        <pt x="1053" y="987" on="1"/>
        <pt x="1104" y="587" on="1"/>
        <pt x="1219" y="587" on="1"/>
        <pt x="1181" y="1098" on="1"/>
        <pt x="942" y="1098" on="1"/>
        <pt x="862" y="1060" on="1"/>
        <pt x="783" y="1098" on="1"/>
        <pt x="543" y="1098" on="1"/>
        <pt x="505" y="587" on="1"/>
        <pt x="619" y="587" on="1"/>
        <pt x="670" y="987" on="1"/>
        <pt x="798" y="987" on="1"/>
        <pt x="798" y="447" on="1"/>
        <pt x="543" y="434" on="1"/>
        <pt x="543" y="332" on="1"/>
      </contour>
      <contour>
        <pt x="534" y="1330" on="1"/>
        <pt x="571" y="1419" on="1"/>
        <pt x="660" y="1382" on="1"/>
        <pt x="713" y="1462" on="1"/>
        <pt x="794" y="1409" on="1"/>
        <pt x="862" y="1476" on="1"/>
        <pt x="930" y="1409" on="1"/>
        <pt x="1011" y="1462" on="1"/>
        <pt x="1064" y="1382" on="1"/>
        <pt x="1153" y="1419" on="1"/>
        <pt x="1190" y="1330" on="1"/>
        <pt x="1284" y="1349" on="1"/>
        <pt x="1304" y="1253" on="1"/>
        <pt x="1401" y="1253" on="1"/>
        <pt x="1401" y="1157" on="1"/>
        <pt x="1495" y="1138" on="1"/>
        <pt x="1476" y="1044" on="1"/>
        <pt x="1565" y="1007" on="1"/>
        <pt x="1529" y="917" on="1"/>
        <pt x="1610" y="865" on="1"/>
        <pt x="1556" y="783" on="1"/>
        <pt x="1624" y="716" on="1"/>
        <pt x="1555" y="647" on="1"/>
        <pt x="1610" y="565" on="1"/>
        <pt x="1528" y="513" on="1"/>
        <pt x="1565" y="423" on="1"/>
        <pt x="1476" y="386" on="1"/>
        <pt x="1495" y="292" on="1"/>
        <pt x="1401" y="273" on="1"/>
        <pt x="1401" y="177" on="1"/>
        <pt x="1304" y="177" on="1"/>
        <pt x="1284" y="81" on="1"/>
        <pt x="1190" y="100" on="1"/>
        <pt x="1153" y="11" on="1"/>
        <pt x="1064" y="48" on="1"/>
        <pt x="1011" y="-32" on="1"/>
        <pt x="930" y="21" on="1"/>
        <pt x="862" y="-46" on="1"/>
        <pt x="794" y="21" on="1"/>
        <pt x="713" y="-32" on="1"/>
        <pt x="660" y="48" on="1"/>
        <pt x="571" y="11" on="1"/>
        <pt x="534" y="100" on="1"/>
        <pt x="439" y="81" on="1"/>
        <pt x="420" y="177" on="1"/>
        <pt x="323" y="177" on="1"/>
        <pt x="323" y="273" on="1"/>
        <pt x="228" y="292" on="1"/>
        <pt x="247" y="386" on="1"/>
        <pt x="157" y="425" on="1"/>
        <pt x="194" y="513" on="1"/>
        <pt x="114" y="566" on="1"/>
        <pt x="169" y="647" on="1"/>
        <pt x="100" y="716" on="1"/>
        <pt x="169" y="783" on="1"/>
        <pt x="114" y="865" on="1"/>
        <pt x="196" y="919" on="1"/>
        <pt x="159" y="1007" on="1"/>
        <pt x="248" y="1044" on="1"/>
        <pt x="229" y="1138" on="1"/>
        <pt x="323" y="1157" on="1"/>
        <pt x="323" y="1253" on="1"/>
        <pt x="420" y="1253" on="1"/>
        <pt x="439" y="1349" on="1"/>
      </contour>
      <contour>
        <pt x="862" y="1347" on="1"/>
        <pt x="600" y="1347" on="0"/>
        <pt x="230" y="977" on="0"/>
        <pt x="230" y="716" on="1"/>
        <pt x="230" y="453" on="0"/>
        <pt x="600" y="83" on="0"/>
        <pt x="862" y="83" on="1"/>
        <pt x="1124" y="83" on="0"/>
        <pt x="1494" y="453" on="0"/>
        <pt x="1494" y="716" on="1"/>
        <pt x="1494" y="977" on="0"/>
        <pt x="1124" y="1347" on="0"/>
      </contour>
      <contour>
        <pt x="1101" y="1293" on="0"/>
        <pt x="1439" y="954" on="0"/>
        <pt x="1439" y="716" on="1"/>
        <pt x="1439" y="476" on="0"/>
        <pt x="1101" y="137" on="0"/>
        <pt x="862" y="137" on="1"/>
        <pt x="623" y="137" on="0"/>
        <pt x="285" y="476" on="0"/>
        <pt x="285" y="716" on="1"/>
        <pt x="285" y="954" on="0"/>
        <pt x="623" y="1293" on="0"/>
        <pt x="862" y="1293" on="1"/>
      </contour>
    </TTGlyph>
    <TTGlyph name="Mu" xMin="170" yMin="0" xMax="1670" yMax="1430">
      <component glyphName="M" x="0" y="0" flags="0x200"/>
    </TTGlyph>
    <TTGlyph name="N" xMin="170" yMin="0" xMax="1405" yMax="1430">
      <contour>
        <pt x="170" y="0" on="1"/>
        <pt x="170" y="1430" on="1"/>
        <pt x="355" y="1430" on="1"/>
        <pt x="1230" y="278" on="1"/>
        <pt x="1230" y="1430" on="1"/>
        <pt x="1405" y="1430" on="1"/>
        <pt x="1405" y="0" on="1"/>
        <pt x="1220" y="0" on="1"/>
        <pt x="345" y="1162" on="1"/>
        <pt x="345" y="0" on="1"/>
      </contour>
    </TTGlyph>
    <TTGlyph name="Nacute" xMin="170" yMin="0" xMax="1405" yMax="1810">
      <component glyphName="N" x="0" y="0" flags="0x200"/>
      <component glyphName="acute" x="553" y="380" flags="0x0"/>
    </TTGlyph>
    <TTGlyph name="Ncaron" xMin="170" yMin="0" xMax="1405" yMax="1810">
      <component glyphName="N" x="0" y="0" flags="0x200"/>
      <component glyphName="caron" x="438" y="380" flags="0x0"/>
    </TTGlyph>
    <TTGlyph name="Ncommaaccent" xMin="170" yMin="-380" xMax="1405" yMax="1430">
      <component glyphName="N" x="0" y="0" flags="0x200"/>
      <component glyphName="commaccent" x="545" y="0" flags="0x0"/>
    </TTGlyph>
    <TTGlyph name="Ntilde" xMin="170" yMin="0" xMax="1405" yMax="1810">
      <component glyphName="N" x="0" y="0" flags="0x200"/>
      <component glyphName="tilde" x="438" y="380" flags="0x0"/>
    </TTGlyph>
    <TTGlyph name="Nu" xMin="170" yMin="0" xMax="1405" yMax="1430">
      <component glyphName="N" x="0" y="0" flags="0x200"/>
    </TTGlyph>
    <TTGlyph name="O" xMin="120" yMin="-10" xMax="1545" yMax="1440">
      <contour>
        <pt x="315" y="140" on="0"/>
        <pt x="838" y="140" on="1"/>
        <pt x="1350" y="140" on="0"/>
        <pt x="1350" y="719" on="1"/>
        <pt x="1350" y="1290" on="0"/>
        <pt x="838" y="1290" on="1"/>
        <pt x="315" y="1290" on="0"/>
        <pt x="315" y="719" on="1"/>
      </contour>
      <contour>
        <pt x="120" y="713" on="1"/>
        <pt x="120" y="1440" on="0"/>
        <pt x="838" y="1440" on="1"/>
        <pt x="1545" y="1440" on="0"/>
        <pt x="1545" y="713" on="1"/>
        <pt x="1545" y="-10" on="0"/>
        <pt x="838" y="-10" on="1"/>
        <pt x="120" y="-10" on="0"/>
      </contour>
    </TTGlyph>
    <TTGlyph name="OE" xMin="100" yMin="0" xMax="2090" yMax="1430">
      <contour>
        <pt x="295" y="150" on="0"/>
        <pt x="818" y="150" on="1"/>
        <pt x="1330" y="150" on="0"/>
        <pt x="1330" y="719" on="1"/>
        <pt x="1330" y="1280" on="0"/>
        <pt x="818" y="1280" on="1"/>
        <pt x="295" y="1280" on="0"/>
        <pt x="295" y="719" on="1"/>
      </contour>
      <contour>
        <pt x="100" y="713" on="1"/>
        <pt x="100" y="1430" on="0"/>
        <pt x="818" y="1430" on="1"/>
        <pt x="2075" y="1430" on="1"/>
        <pt x="2075" y="1280" on="1"/>
        <pt x="1300" y="1280" on="1"/>
        <pt x="1495" y="1132" on="0"/>
        <pt x="1525" y="800" on="1"/>
        <pt x="2040" y="800" on="1"/>
        <pt x="2040" y="650" on="1"/>
        <pt x="1525" y="650" on="1"/>
        <pt x="1495" y="293" on="0"/>
        <pt x="1300" y="150" on="1"/>
        <pt x="2090" y="150" on="1"/>
        <pt x="2090" y="0" on="1"/>
        <pt x="818" y="0" on="1"/>
        <pt x="100" y="0" on="0"/>
      </contour>
    </TTGlyph>
    <TTGlyph name="Oacute" xMin="120" yMin="-10" xMax="1545" yMax="1810">
      <component glyphName="O" x="0" y="0" flags="0x200"/>
      <component glyphName="acute" x="598" y="380" flags="0x0"/>
    </TTGlyph>
    <TTGlyph name="Obreve" xMin="120" yMin="-10" xMax="1545" yMax="1810">
      <component glyphName="O" x="0" y="0" flags="0x200"/>
      <component glyphName="breve" x="468" y="380" flags="0x0"/>
    </TTGlyph>
    <TTGlyph name="Ocircumflex" xMin="120" yMin="-10" xMax="1545" yMax="1810">
      <component glyphName="O" x="0" y="0" flags="0x200"/>
      <component glyphName="circumflex" x="483" y="380" flags="0x0"/>
    </TTGlyph>
    <TTGlyph name="Odieresis" xMin="120" yMin="-10" xMax="1545" yMax="1810">
      <component glyphName="O" x="0" y="0" flags="0x200"/>
      <component glyphName="dieresis" x="455" y="380" flags="0x0"/>
    </TTGlyph>
    <TTGlyph name="Ograve" xMin="120" yMin="-10" xMax="1545" yMax="1810">
      <component glyphName="O" x="0" y="0" flags="0x200"/>
      <component glyphName="grave" x="464" y="380" flags="0x0"/>
    </TTGlyph>
    <TTGlyph name="Ohungarumlaut" xMin="120" yMin="-10" xMax="1545" yMax="1810">
      <component glyphName="O" x="0" y="0" flags="0x200"/>
      <component glyphName="hungarumlaut" x="403" y="380" flags="0x0"/>
    </TTGlyph>
    <TTGlyph name="Omacron" xMin="120" yMin="-10" xMax="1545" yMax="1810">
      <component glyphName="O" x="0" y="0" flags="0x200"/>
      <component glyphName="macron" x="483" y="380" flags="0x0"/>
    </TTGlyph>
    <TTGlyph name="Omega" xMin="120" yMin="0" xMax="1490" yMax="1450">
      <contour>
        <pt x="135" y="0" on="1"/>
        <pt x="135" y="150" on="1"/>
        <pt x="440" y="150" on="1"/>
        <pt x="120" y="420" on="0"/>
        <pt x="120" y="800" on="1"/>
        <pt x="120" y="1450" on="0"/>
        <pt x="805" y="1450" on="1"/>
        <pt x="1490" y="1450" on="0"/>
        <pt x="1490" y="800" on="1"/>
        <pt x="1490" y="420" on="0"/>
        <pt x="1170" y="150" on="1"/>
        <pt x="1475" y="150" on="1"/>
        <pt x="1475" y="0" on="1"/>
        <pt x="925" y="0" on="1"/>
        <pt x="925" y="150" on="1"/>
        <pt x="1305" y="420" on="0"/>
        <pt x="1305" y="800" on="1"/>
        <pt x="1305" y="1300" on="0"/>
        <pt x="805" y="1300" on="1"/>
        <pt x="305" y="1300" on="0"/>
        <pt x="305" y="800" on="1"/>
        <pt x="305" y="420" on="0"/>
        <pt x="685" y="150" on="1"/>
        <pt x="685" y="0" on="1"/>
      </contour>
    </TTGlyph>
    <TTGlyph name="Omegatonos" xMin="-50" yMin="0" xMax="1593" yMax="1450">
      <contour>
        <pt x="114" y="1430" on="1"/>
        <pt x="353" y="1430" on="1"/>
        <pt x="114" y="1191" on="1"/>
        <pt x="-50" y="1191" on="1"/>
      </contour>
      <contour>
        <pt x="238" y="0" on="1"/>
        <pt x="238" y="150" on="1"/>
        <pt x="543" y="150" on="1"/>
        <pt x="223" y="420" on="0"/>
        <pt x="223" y="800" on="1"/>
        <pt x="223" y="1450" on="0"/>
        <pt x="908" y="1450" on="1"/>
        <pt x="1593" y="1450" on="0"/>
        <pt x="1593" y="800" on="1"/>
        <pt x="1593" y="420" on="0"/>
        <pt x="1273" y="150" on="1"/>
        <pt x="1578" y="150" on="1"/>
        <pt x="1578" y="0" on="1"/>
        <pt x="1028" y="0" on="1"/>
        <pt x="1028" y="150" on="1"/>
        <pt x="1408" y="420" on="0"/>
        <pt x="1408" y="800" on="1"/>
        <pt x="1408" y="1300" on="0"/>
        <pt x="908" y="1300" on="1"/>
        <pt x="408" y="1300" on="0"/>
        <pt x="408" y="800" on="1"/>
        <pt x="408" y="420" on="0"/>
        <pt x="788" y="150" on="1"/>
        <pt x="788" y="0" on="1"/>
      </contour>
    </TTGlyph>
    <TTGlyph name="Omicron" xMin="120" yMin="-10" xMax="1545" yMax="1440">
      <component glyphName="O" x="0" y="0" flags="0x200"/>
    </TTGlyph>
    <TTGlyph name="Omicrontonos" xMin="-50" yMin="-10" xMax="1648" yMax="1440">
      <contour>
        <pt x="114" y="1430" on="1"/>
        <pt x="353" y="1430" on="1"/>
        <pt x="114" y="1191" on="1"/>
        <pt x="-50" y="1191" on="1"/>
      </contour>
      <contour>
        <pt x="418" y="140" on="0"/>
        <pt x="941" y="140" on="1"/>
        <pt x="1453" y="140" on="0"/>
        <pt x="1453" y="719" on="1"/>
        <pt x="1453" y="1290" on="0"/>
        <pt x="941" y="1290" on="1"/>
        <pt x="418" y="1290" on="0"/>
        <pt x="418" y="719" on="1"/>
      </contour>
      <contour>
        <pt x="223" y="713" on="1"/>
        <pt x="223" y="1440" on="0"/>
        <pt x="941" y="1440" on="1"/>
        <pt x="1648" y="1440" on="0"/>
        <pt x="1648" y="713" on="1"/>
        <pt x="1648" y="-10" on="0"/>
        <pt x="941" y="-10" on="1"/>
        <pt x="223" y="-10" on="0"/>
      </contour>
    </TTGlyph>
    <TTGlyph name="Oslash" xMin="100" yMin="-10" xMax="1525" yMax="1440">
      <contour>
        <pt x="1099" y="1229" on="1"/>
        <pt x="986" y="1290" on="0"/>
        <pt x="818" y="1290" on="1"/>
        <pt x="295" y="1290" on="0"/>
        <pt x="295" y="719" on="1"/>
        <pt x="295" y="455" on="0"/>
        <pt x="404" y="311" on="1"/>
      </contour>
      <contour>
        <pt x="522" y="207" on="1"/>
        <pt x="640" y="140" on="0"/>
        <pt x="818" y="140" on="1"/>
        <pt x="1330" y="140" on="0"/>
        <pt x="1330" y="719" on="1"/>
        <pt x="1330" y="985" on="0"/>
        <pt x="1219" y="1127" on="1"/>
      </contour>
      <contour>
        <pt x="1331" y="1275" on="1"/>
        <pt x="1525" y="1093" on="0"/>
        <pt x="1525" y="713" on="1"/>
        <pt x="1525" y="-10" on="0"/>
        <pt x="818" y="-10" on="1"/>
        <pt x="578" y="-10" on="0"/>
        <pt x="419" y="71" on="1"/>
        <pt x="365" y="0" on="1"/>
        <pt x="168" y="0" on="1"/>
        <pt x="290" y="161" on="1"/>
        <pt x="100" y="341" on="0"/>
        <pt x="100" y="713" on="1"/>
        <pt x="100" y="1440" on="0"/>
        <pt x="818" y="1440" on="1"/>
        <pt x="1046" y="1440" on="0"/>
        <pt x="1201" y="1364" on="1"/>
        <pt x="1251" y="1430" on="1"/>
        <pt x="1449" y="1430" on="1"/>
      </contour>
    </TTGlyph>
    <TTGlyph name="Otilde" xMin="120" yMin="-10" xMax="1545" yMax="1810">
      <component glyphName="O" x="0" y="0" flags="0x200"/>
      <component glyphName="tilde" x="483" y="380" flags="0x0"/>
    </TTGlyph>
    <TTGlyph name="P" xMin="170" yMin="0" xMax="1188" yMax="1430">
      <contour>
        <pt x="170" y="0" on="1"/>
        <pt x="170" y="1430" on="1"/>
        <pt x="750" y="1430" on="1"/>
        <pt x="1188" y="1430" on="0"/>
        <pt x="1188" y="1047" on="1"/>
        <pt x="1188" y="630" on="0"/>
        <pt x="589" y="538" on="1"/>
        <pt x="551" y="694" on="1"/>
        <pt x="991" y="759" on="0"/>
        <pt x="991" y="1039" on="1"/>
        <pt x="991" y="1277" on="0"/>
        <pt x="733" y="1277" on="1"/>
        <pt x="355" y="1277" on="1"/>
        <pt x="355" y="0" on="1"/>
      </contour>
    </TTGlyph>
    <TTGlyph name="Phi" xMin="100" yMin="0" xMax="1624" yMax="1430">
      <contour>
        <pt x="770" y="113" on="1"/>
        <pt x="100" y="150" on="0"/>
        <pt x="100" y="713" on="1"/>
        <pt x="100" y="1280" on="0"/>
        <pt x="770" y="1317" on="1"/>
        <pt x="770" y="1430" on="1"/>
        <pt x="954" y="1430" on="1"/>
        <pt x="954" y="1318" on="1"/>
        <pt x="1624" y="1284" on="0"/>
        <pt x="1624" y="713" on="1"/>
        <pt x="1624" y="145" on="0"/>
        <pt x="954" y="112" on="1"/>
        <pt x="954" y="0" on="1"/>
        <pt x="770" y="0" on="1"/>
      </contour>
      <contour>
        <pt x="770" y="264" on="1"/>
        <pt x="770" y="1166" on="1"/>
        <pt x="294" y="1130" on="0"/>
        <pt x="294" y="719" on="1"/>
        <pt x="294" y="301" on="0"/>
      </contour>
      <contour>
        <pt x="954" y="1167" on="1"/>
        <pt x="954" y="263" on="1"/>
        <pt x="1430" y="297" on="0"/>
        <pt x="1430" y="719" on="1"/>
        <pt x="1430" y="1134" on="0"/>
      </contour>
    </TTGlyph>
    <TTGlyph name="Pi" xMin="170" yMin="0" xMax="1355" yMax="1430">
      <contour>
        <pt x="170" y="0" on="1"/>
        <pt x="170" y="1430" on="1"/>
        <pt x="1355" y="1430" on="1"/>
        <pt x="1355" y="0" on="1"/>
        <pt x="1170" y="0" on="1"/>
        <pt x="1170" y="1280" on="1"/>
        <pt x="355" y="1280" on="1"/>
        <pt x="355" y="0" on="1"/>
      </contour>
    </TTGlyph>
    <TTGlyph name="Psi" xMin="120" yMin="0" xMax="1570" yMax="1430">
      <contour>
        <pt x="753" y="573" on="1"/>
        <pt x="753" y="1430" on="1"/>
        <pt x="937" y="1430" on="1"/>
        <pt x="937" y="573" on="1"/>
        <pt x="1385" y="607" on="0"/>
        <pt x="1385" y="988" on="1"/>
        <pt x="1385" y="1430" on="1"/>
        <pt x="1570" y="1430" on="1"/>
        <pt x="1570" y="988" on="1"/>
        <pt x="1570" y="457" on="0"/>
        <pt x="937" y="422" on="1"/>
        <pt x="937" y="0" on="1"/>
        <pt x="753" y="0" on="1"/>
        <pt x="753" y="422" on="1"/>
        <pt x="120" y="457" on="0"/>
        <pt x="120" y="988" on="1"/>
        <pt x="120" y="1430" on="1"/>
        <pt x="305" y="1430" on="1"/>
        <pt x="305" y="988" on="1"/>
        <pt x="305" y="607" on="0"/>
      </contour>
    </TTGlyph>
    <TTGlyph name="Q" xMin="120" yMin="-371" xMax="1545" yMax="1440">
      <contour>
        <pt x="315" y="140" on="0"/>
        <pt x="838" y="140" on="1"/>
        <pt x="1350" y="140" on="0"/>
        <pt x="1350" y="719" on="1"/>
        <pt x="1350" y="1290" on="0"/>
        <pt x="838" y="1290" on="1"/>
        <pt x="315" y="1290" on="0"/>
        <pt x="315" y="719" on="1"/>
      </contour>
      <contour>
        <pt x="120" y="713" on="1"/>
        <pt x="120" y="1440" on="0"/>
        <pt x="838" y="1440" on="1"/>
        <pt x="1545" y="1440" on="0"/>
        <pt x="1545" y="713" on="1"/>
        <pt x="1545" y="115" on="0"/>
        <pt x="1060" y="7" on="1"/>
        <pt x="1292" y="-263" on="1"/>
        <pt x="1148" y="-371" on="1"/>
        <pt x="838" y="-10" on="1"/>
        <pt x="120" y="-10" on="0"/>
      </contour>
    </TTGlyph>
    <TTGlyph name="R" xMin="170" yMin="0" xMax="1280" yMax="1430">
      <contour>
        <pt x="170" y="0" on="1"/>
        <pt x="170" y="1430" on="1"/>
        <pt x="780" y="1430" on="1"/>
        <pt x="1188" y="1430" on="0"/>
        <pt x="1188" y="1087" on="1"/>
        <pt x="1188" y="808" on="0"/>
        <pt x="789" y="674" on="1"/>
        <pt x="1280" y="0" on="1"/>
        <pt x="1036" y="0" on="1"/>
        <pt x="581" y="643" on="1"/>
        <pt x="581" y="764" on="1"/>
        <pt x="991" y="829" on="0"/>
        <pt x="991" y="1079" on="1"/>
        <pt x="991" y="1277" on="0"/>
        <pt x="763" y="1277" on="1"/>
        <pt x="355" y="1277" on="1"/>
        <pt x="355" y="0" on="1"/>
      </contour>
    </TTGlyph>
    <TTGlyph name="Racute" xMin="170" yMin="0" xMax="1280" yMax="1810">
      <component glyphName="R" x="0" y="0" flags="0x200"/>
      <component glyphName="acute" x="391" y="380" flags="0x0"/>
    </TTGlyph>
    <TTGlyph name="Rcaron" xMin="170" yMin="0" xMax="1280" yMax="1810">
      <component glyphName="R" x="0" y="0" flags="0x200"/>
      <component glyphName="caron" x="265" y="380" flags="0x0"/>
    </TTGlyph>
    <TTGlyph name="Rcommaaccent" xMin="170" yMin="-380" xMax="1280" yMax="1430">
      <component glyphName="R" x="0" y="0" flags="0x200"/>
      <component glyphName="commaccent" x="443" y="0" flags="0x0"/>
    </TTGlyph>
    <TTGlyph name="Rho" xMin="170" yMin="0" xMax="1188" yMax="1430">
      <component glyphName="P" x="0" y="0" flags="0x200"/>
    </TTGlyph>
    <TTGlyph name="S" xMin="100" yMin="-10" xMax="1190" yMax="1440">
      <contour>
        <pt x="150" y="50" on="1"/>
        <pt x="150" y="220" on="1"/>
        <pt x="375" y="140" on="0"/>
        <pt x="636" y="140" on="1"/>
        <pt x="1005" y="140" on="0"/>
        <pt x="1005" y="410" on="1"/>
        <pt x="1005" y="640" on="0"/>
        <pt x="733" y="640" on="1"/>
        <pt x="549" y="640" on="1"/>
        <pt x="100" y="640" on="0"/>
        <pt x="100" y="1030" on="1"/>
        <pt x="100" y="1440" on="0"/>
        <pt x="675" y="1440" on="1"/>
        <pt x="925" y="1440" on="0"/>
        <pt x="1140" y="1380" on="1"/>
        <pt x="1140" y="1210" on="1"/>
        <pt x="925" y="1290" on="0"/>
        <pt x="675" y="1290" on="1"/>
        <pt x="285" y="1290" on="0"/>
        <pt x="285" y="1030" on="1"/>
        <pt x="285" y="800" on="0"/>
        <pt x="549" y="800" on="1"/>
        <pt x="733" y="800" on="1"/>
        <pt x="1190" y="800" on="0"/>
        <pt x="1190" y="410" on="1"/>
        <pt x="1190" y="-10" on="0"/>
        <pt x="636" y="-10" on="1"/>
        <pt x="375" y="-10" on="0"/>
      </contour>
    </TTGlyph>
    <TTGlyph name="Sacute" xMin="100" yMin="-10" xMax="1190" yMax="1810">
      <component glyphName="S" x="0" y="0" flags="0x200"/>
      <component glyphName="acute" x="411" y="380" flags="0x0"/>
    </TTGlyph>
    <TTGlyph name="Scaron" xMin="100" yMin="-10" xMax="1190" yMax="1810">
      <component glyphName="S" x="0" y="0" flags="0x200"/>
      <component glyphName="caron" x="295" y="380" flags="0x0"/>
    </TTGlyph>
    <TTGlyph name="Scedilla" xMin="100" yMin="-422" xMax="1190" yMax="1440">
      <contour>
        <pt x="495" y="-5" on="1"/>
        <pt x="313" y="6" on="0"/>
        <pt x="150" y="50" on="1"/>
        <pt x="150" y="220" on="1"/>
        <pt x="375" y="140" on="0"/>
        <pt x="636" y="140" on="1"/>
        <pt x="1005" y="140" on="0"/>
        <pt x="1005" y="410" on="1"/>
        <pt x="1005" y="640" on="0"/>
        <pt x="733" y="640" on="1"/>
        <pt x="549" y="640" on="1"/>
        <pt x="100" y="640" on="0"/>
        <pt x="100" y="1030" on="1"/>
        <pt x="100" y="1440" on="0"/>
        <pt x="675" y="1440" on="1"/>
        <pt x="925" y="1440" on="0"/>
        <pt x="1140" y="1380" on="1"/>
        <pt x="1140" y="1210" on="1"/>
        <pt x="925" y="1290" on="0"/>
        <pt x="675" y="1290" on="1"/>
        <pt x="285" y="1290" on="0"/>
        <pt x="285" y="1030" on="1"/>
        <pt x="285" y="800" on="0"/>
        <pt x="549" y="800" on="1"/>
        <pt x="733" y="800" on="1"/>
        <pt x="1190" y="800" on="0"/>
        <pt x="1190" y="410" on="1"/>
        <pt x="1190" y="-10" on="0"/>
        <pt x="636" y="-10" on="1"/>
        <pt x="626" y="-10" on="1"/>
        <pt x="590" y="-77" on="1"/>
        <pt x="804" y="-77" on="0"/>
        <pt x="804" y="-249" on="1"/>
        <pt x="804" y="-422" on="0"/>
        <pt x="563" y="-422" on="1"/>
        <pt x="455" y="-422" on="0"/>
        <pt x="347" y="-372" on="1"/>
        <pt x="347" y="-264" on="1"/>
        <pt x="455" y="-314" on="0"/>
        <pt x="563" y="-314" on="1"/>
        <pt x="671" y="-314" on="0"/>
        <pt x="671" y="-249" on="1"/>
        <pt x="671" y="-185" on="0"/>
        <pt x="588" y="-185" on="1"/>
        <pt x="405" y="-185" on="1"/>
      </contour>
    </TTGlyph>
    <TTGlyph name="Scircumflex" xMin="100" yMin="-10" xMax="1190" yMax="1810">
      <component glyphName="S" x="0" y="0" flags="0x200"/>
      <component glyphName="circumflex" x="295" y="380" flags="0x0"/>
    </TTGlyph>
    <TTGlyph name="Scommaaccent" xMin="100" yMin="-380" xMax="1190" yMax="1440">
      <component glyphName="S" x="0" y="0" flags="0x200"/>
      <component glyphName="commaccent" x="403" y="0" flags="0x0"/>
    </TTGlyph>
    <TTGlyph name="Sigma" xMin="100" yMin="0" xMax="1080" yMax="1430">
      <contour>
        <pt x="100" y="1430" on="1"/>
        <pt x="1080" y="1430" on="1"/>
        <pt x="1080" y="1280" on="1"/>
        <pt x="310" y="1280" on="1"/>
        <pt x="720" y="750" on="1"/>
        <pt x="310" y="150" on="1"/>
        <pt x="1080" y="150" on="1"/>
        <pt x="1080" y="0" on="1"/>
        <pt x="100" y="0" on="1"/>
        <pt x="100" y="150" on="1"/>
        <pt x="505" y="750" on="1"/>
        <pt x="100" y="1280" on="1"/>
      </contour>
    </TTGlyph>
    <TTGlyph name="T" xMin="50" yMin="0" xMax="1135" yMax="1430">
      <contour>
        <pt x="1135" y="1430" on="1"/>
        <pt x="1135" y="1280" on="1"/>
        <pt x="685" y="1280" on="1"/>
        <pt x="685" y="0" on="1"/>
        <pt x="500" y="0" on="1"/>
        <pt x="500" y="1280" on="1"/>
        <pt x="50" y="1280" on="1"/>
        <pt x="50" y="1430" on="1"/>
      </contour>
    </TTGlyph>
    <TTGlyph name="Tau" xMin="50" yMin="0" xMax="1135" yMax="1430">
      <component glyphName="T" x="0" y="0" flags="0x200"/>
    </TTGlyph>
    <TTGlyph name="Tbar" xMin="50" yMin="0" xMax="1135" yMax="1430">
      <contour>
        <pt x="500" y="790" on="1"/>
        <pt x="500" y="1280" on="1"/>
        <pt x="50" y="1280" on="1"/>
        <pt x="50" y="1430" on="1"/>
        <pt x="1135" y="1430" on="1"/>
        <pt x="1135" y="1280" on="1"/>
        <pt x="685" y="1280" on="1"/>
        <pt x="685" y="790" on="1"/>
        <pt x="1135" y="790" on="1"/>
        <pt x="1135" y="640" on="1"/>
        <pt x="685" y="640" on="1"/>
        <pt x="685" y="0" on="1"/>
        <pt x="500" y="0" on="1"/>
        <pt x="500" y="640" on="1"/>
        <pt x="50" y="640" on="1"/>
        <pt x="50" y="790" on="1"/>
      </contour>
    </TTGlyph>
    <TTGlyph name="Tcaron" xMin="50" yMin="0" xMax="1135" yMax="1810">
      <component glyphName="T" x="0" y="0" flags="0x200"/>
      <component glyphName="caron" x="243" y="380" flags="0x0"/>
    </TTGlyph>
    <TTGlyph name="Tcommaaccent" xMin="50" yMin="-380" xMax="1135" yMax="1430">
      <component glyphName="T" x="0" y="0" flags="0x0"/>
      <component glyphName="commaccent" x="318" y="0" flags="0x0"/>
    </TTGlyph>
    <TTGlyph name="Theta" xMin="120" yMin="-10" xMax="1545" yMax="1440">
      <contour>
        <pt x="315" y="140" on="0"/>
        <pt x="838" y="140" on="1"/>
        <pt x="1350" y="140" on="0"/>
        <pt x="1350" y="719" on="1"/>
        <pt x="1350" y="1290" on="0"/>
        <pt x="838" y="1290" on="1"/>
        <pt x="315" y="1290" on="0"/>
        <pt x="315" y="719" on="1"/>
      </contour>
      <contour>
        <pt x="120" y="713" on="1"/>
        <pt x="120" y="1440" on="0"/>
        <pt x="838" y="1440" on="1"/>
        <pt x="1545" y="1440" on="0"/>
        <pt x="1545" y="713" on="1"/>
        <pt x="1545" y="-10" on="0"/>
        <pt x="838" y="-10" on="1"/>
        <pt x="120" y="-10" on="0"/>
      </contour>
      <contour>
        <pt x="493" y="813" on="1"/>
        <pt x="1168" y="813" on="1"/>
        <pt x="1168" y="663" on="1"/>
        <pt x="493" y="663" on="1"/>
      </contour>
    </TTGlyph>
    <TTGlyph name="Thorn" xMin="150" yMin="0" xMax="1168" yMax="1430">
      <contour>
        <pt x="150" y="0" on="1"/>
        <pt x="150" y="1430" on="1"/>
        <pt x="335" y="1430" on="1"/>
        <pt x="335" y="1122" on="1"/>
        <pt x="760" y="1122" on="1"/>
        <pt x="1168" y="1122" on="0"/>
        <pt x="1168" y="779" on="1"/>
        <pt x="1168" y="392" on="0"/>
        <pt x="599" y="300" on="1"/>
        <pt x="561" y="456" on="1"/>
        <pt x="971" y="521" on="0"/>
        <pt x="971" y="771" on="1"/>
        <pt x="971" y="969" on="0"/>
        <pt x="743" y="969" on="1"/>
        <pt x="335" y="969" on="1"/>
        <pt x="335" y="0" on="1"/>
      </contour>
    </TTGlyph>
    <TTGlyph name="U" xMin="160" yMin="-10" xMax="1350" yMax="1430">
      <contour>
        <pt x="160" y="552" on="1"/>
        <pt x="160" y="1430" on="1"/>
        <pt x="345" y="1430" on="1"/>
        <pt x="345" y="552" on="1"/>
        <pt x="345" y="140" on="0"/>
        <pt x="755" y="140" on="1"/>
        <pt x="1165" y="140" on="0"/>
        <pt x="1165" y="552" on="1"/>
        <pt x="1165" y="1430" on="1"/>
        <pt x="1350" y="1430" on="1"/>
        <pt x="1350" y="552" on="1"/>
        <pt x="1350" y="-10" on="0"/>
        <pt x="755" y="-10" on="1"/>
        <pt x="160" y="-10" on="0"/>
      </contour>
    </TTGlyph>
    <TTGlyph name="Uacute" xMin="160" yMin="-10" xMax="1350" yMax="1810">
      <component glyphName="U" x="0" y="0" flags="0x200"/>
      <component glyphName="acute" x="521" y="380" flags="0x0"/>
    </TTGlyph>
    <TTGlyph name="Ubreve" xMin="160" yMin="-10" xMax="1350" yMax="1810">
      <component glyphName="U" x="0" y="0" flags="0x200"/>
      <component glyphName="breve" x="390" y="380" flags="0x0"/>
    </TTGlyph>
    <TTGlyph name="Ucircumflex" xMin="160" yMin="-10" xMax="1350" yMax="1810">
      <component glyphName="U" x="0" y="0" flags="0x200"/>
      <component glyphName="circumflex" x="405" y="380" flags="0x0"/>
    </TTGlyph>
    <TTGlyph name="Udieresis" xMin="160" yMin="-10" xMax="1350" yMax="1810">
      <component glyphName="U" x="0" y="0" flags="0x200"/>
      <component glyphName="dieresis" x="378" y="380" flags="0x0"/>
    </TTGlyph>
    <TTGlyph name="Ugrave" xMin="160" yMin="-10" xMax="1350" yMax="1810">
      <component glyphName="U" x="0" y="0" flags="0x200"/>
      <component glyphName="grave" x="386" y="380" flags="0x0"/>
    </TTGlyph>
    <TTGlyph name="Uhungarumlaut" xMin="160" yMin="-10" xMax="1350" yMax="1810">
      <component glyphName="U" x="0" y="0" flags="0x200"/>
      <component glyphName="hungarumlaut" x="316" y="380" flags="0x0"/>
    </TTGlyph>
    <TTGlyph name="Umacron" xMin="160" yMin="-10" xMax="1350" yMax="1810">
      <component glyphName="U" x="0" y="0" flags="0x200"/>
      <component glyphName="macron" x="405" y="380" flags="0x0"/>
    </TTGlyph>
    <TTGlyph name="Uogonek" xMin="160" yMin="-426" xMax="1350" yMax="1430">
      <contour>
        <pt x="705" y="-9" on="1"/>
        <pt x="160" y="14" on="0"/>
        <pt x="160" y="552" on="1"/>
        <pt x="160" y="1430" on="1"/>
        <pt x="345" y="1430" on="1"/>
        <pt x="345" y="552" on="1"/>
        <pt x="345" y="140" on="0"/>
        <pt x="755" y="140" on="1"/>
        <pt x="1165" y="140" on="0"/>
        <pt x="1165" y="552" on="1"/>
        <pt x="1165" y="1430" on="1"/>
        <pt x="1350" y="1430" on="1"/>
        <pt x="1350" y="552" on="1"/>
        <pt x="1350" y="65" on="0"/>
        <pt x="903" y="0" on="1"/>
        <pt x="710" y="-126" on="0"/>
        <pt x="710" y="-228" on="1"/>
        <pt x="710" y="-296" on="0"/>
        <pt x="795" y="-296" on="1"/>
        <pt x="880" y="-296" on="0"/>
        <pt x="932" y="-276" on="1"/>
        <pt x="932" y="-406" on="1"/>
        <pt x="871" y="-426" on="0"/>
        <pt x="783" y="-426" on="1"/>
        <pt x="552" y="-426" on="0"/>
        <pt x="552" y="-253" on="1"/>
        <pt x="552" y="-127" on="0"/>
      </contour>
    </TTGlyph>
    <TTGlyph name="Upsilon" xMin="25" yMin="0" xMax="1275" yMax="1430">
      <component glyphName="Y" x="0" y="0" flags="0x200"/>
    </TTGlyph>
    <TTGlyph name="Upsilondieresis" xMin="25" yMin="0" xMax="1275" yMax="1810">
      <component glyphName="Upsilon" x="0" y="0" flags="0x200"/>
      <component glyphName="dieresis" x="273" y="380" flags="0x0"/>
    </TTGlyph>
    <TTGlyph name="Upsilontonos" xMin="-50" yMin="0" xMax="1628" yMax="1430">
      <contour>
        <pt x="114" y="1430" on="1"/>
        <pt x="353" y="1430" on="1"/>
        <pt x="114" y="1191" on="1"/>
        <pt x="-50" y="1191" on="1"/>
      </contour>
      <contour>
        <pt x="378" y="1430" on="1"/>
        <pt x="583" y="1430" on="1"/>
        <pt x="995" y="683" on="1"/>
        <pt x="1413" y="1430" on="1"/>
        <pt x="1628" y="1430" on="1"/>
        <pt x="1082" y="500" on="1"/>
        <pt x="1082" y="0" on="1"/>
        <pt x="897" y="0" on="1"/>
        <pt x="897" y="500" on="1"/>
      </contour>
    </TTGlyph>
    <TTGlyph name="Uring" xMin="160" yMin="-10" xMax="1350" yMax="1849">
      <component glyphName="U" x="0" y="0" flags="0x200"/>
      <component glyphName="ring" x="429" y="278" flags="0x0"/>
    </TTGlyph>
    <TTGlyph name="Utilde" xMin="160" yMin="-10" xMax="1350" yMax="1810">
      <component glyphName="U" x="0" y="0" flags="0x200"/>
      <component glyphName="tilde" x="405" y="380" flags="0x0"/>
    </TTGlyph>
    <TTGlyph name="V" xMin="25" yMin="0" xMax="1447" yMax="1430">
      <contour>
        <pt x="1447" y="1430" on="1"/>
        <pt x="840" y="0" on="1"/>
        <pt x="635" y="0" on="1"/>
        <pt x="25" y="1430" on="1"/>
        <pt x="220" y="1430" on="1"/>
        <pt x="744" y="192" on="1"/>
        <pt x="1255" y="1430" on="1"/>
      </contour>
    </TTGlyph>
    <TTGlyph name="W" xMin="50" yMin="0" xMax="1850" yMax="1430">
      <contour>
        <pt x="50" y="1430" on="1"/>
        <pt x="229" y="1430" on="1"/>
        <pt x="430" y="186" on="1"/>
        <pt x="834" y="1430" on="1"/>
        <pt x="1019" y="1430" on="1"/>
        <pt x="1452" y="186" on="1"/>
        <pt x="1679" y="1430" on="1"/>
        <pt x="1850" y="1430" on="1"/>
        <pt x="1581" y="0" on="1"/>
        <pt x="1329" y="0" on="1"/>
        <pt x="925" y="1198" on="1"/>
        <pt x="534" y="0" on="1"/>
        <pt x="285" y="0" on="1"/>
      </contour>
    </TTGlyph>
    <TTGlyph name="Wcircumflex" xMin="50" yMin="0" xMax="1850" yMax="1810">
      <component glyphName="W" x="0" y="0" flags="0x200"/>
      <component glyphName="circumflex" x="600" y="380" flags="0x0"/>
    </TTGlyph>
    <TTGlyph name="X" xMin="25" yMin="0" xMax="1375" yMax="1430">
      <contour>
        <pt x="588" y="715" on="1"/>
        <pt x="25" y="1430" on="1"/>
        <pt x="250" y="1430" on="1"/>
        <pt x="700" y="858" on="1"/>
        <pt x="1150" y="1430" on="1"/>
        <pt x="1375" y="1430" on="1"/>
        <pt x="813" y="715" on="1"/>
        <pt x="1375" y="0" on="1"/>
        <pt x="1150" y="0" on="1"/>
        <pt x="700" y="572" on="1"/>
        <pt x="250" y="0" on="1"/>
        <pt x="25" y="0" on="1"/>
      </contour>
    </TTGlyph>
    <TTGlyph name="Xi" xMin="100" yMin="0" xMax="1096" yMax="1430">
      <contour>
        <pt x="100" y="160" on="1"/>
        <pt x="1096" y="160" on="1"/>
        <pt x="1096" y="0" on="1"/>
        <pt x="100" y="0" on="1"/>
      </contour>
      <contour>
        <pt x="100" y="1430" on="1"/>
        <pt x="1096" y="1430" on="1"/>
        <pt x="1096" y="1270" on="1"/>
        <pt x="100" y="1270" on="1"/>
      </contour>
      <contour>
        <pt x="160" y="813" on="1"/>
        <pt x="1036" y="813" on="1"/>
        <pt x="1036" y="653" on="1"/>
        <pt x="160" y="653" on="1"/>
      </contour>
    </TTGlyph>
    <TTGlyph name="Y" xMin="25" yMin="0" xMax="1275" yMax="1430">
      <contour>
        <pt x="25" y="1430" on="1"/>
        <pt x="230" y="1430" on="1"/>
        <pt x="642" y="683" on="1"/>
        <pt x="1060" y="1430" on="1"/>
        <pt x="1275" y="1430" on="1"/>
        <pt x="729" y="500" on="1"/>
        <pt x="729" y="0" on="1"/>
        <pt x="544" y="0" on="1"/>
        <pt x="544" y="500" on="1"/>
      </contour>
    </TTGlyph>
    <TTGlyph name="Yacute" xMin="25" yMin="0" xMax="1275" yMax="1810">
      <component glyphName="Y" x="0" y="0" flags="0x200"/>
      <component glyphName="acute" x="416" y="380" flags="0x0"/>
    </TTGlyph>
    <TTGlyph name="Ycircumflex" xMin="25" yMin="0" xMax="1275" yMax="1810">
      <component glyphName="Y" x="0" y="0" flags="0x200"/>
      <component glyphName="circumflex" x="300" y="380" flags="0x0"/>
    </TTGlyph>
    <TTGlyph name="Ydieresis" xMin="25" yMin="0" xMax="1275" yMax="1810">
      <component glyphName="Y" x="0" y="0" flags="0x200"/>
      <component glyphName="dieresis" x="273" y="380" flags="0x0"/>
    </TTGlyph>
    <TTGlyph name="Z" xMin="125" yMin="0" xMax="1205" yMax="1430">
      <contour>
        <pt x="1205" y="1430" on="1"/>
        <pt x="1205" y="1280" on="1"/>
        <pt x="348" y="150" on="1"/>
        <pt x="1185" y="150" on="1"/>
        <pt x="1185" y="0" on="1"/>
        <pt x="125" y="0" on="1"/>
        <pt x="125" y="150" on="1"/>
        <pt x="1009" y="1280" on="1"/>
        <pt x="145" y="1280" on="1"/>
        <pt x="145" y="1430" on="1"/>
      </contour>
    </TTGlyph>
    <TTGlyph name="Zacute" xMin="125" yMin="0" xMax="1205" yMax="1810">
      <component glyphName="Z" x="0" y="0" flags="0x200"/>
      <component glyphName="acute" x="431" y="380" flags="0x0"/>
    </TTGlyph>
    <TTGlyph name="Zcaron" xMin="125" yMin="0" xMax="1205" yMax="1810">
      <component glyphName="Z" x="0" y="0" flags="0x200"/>
      <component glyphName="caron" x="315" y="380" flags="0x0"/>
    </TTGlyph>
    <TTGlyph name="Zdot" xMin="125" yMin="0" xMax="1205" yMax="1810">
      <component glyphName="Z" x="0" y="0" flags="0x200"/>
      <component glyphName="dotaccent" x="463" y="380" flags="0x0"/>
    </TTGlyph>
    <TTGlyph name="Zeta" xMin="125" yMin="0" xMax="1205" yMax="1430">
      <component glyphName="Z" x="0" y="0" flags="0x200"/>
    </TTGlyph>
    <TTGlyph name="a" xMin="100" yMin="0" xMax="985" yMax="1050">
      <contour>
        <pt x="100" y="317" on="1"/>
        <pt x="100" y="640" on="0"/>
        <pt x="526" y="640" on="1"/>
        <pt x="663" y="640" on="0"/>
        <pt x="800" y="620" on="1"/>
        <pt x="800" y="719" on="1"/>
        <pt x="800" y="900" on="0"/>
        <pt x="517" y="900" on="1"/>
        <pt x="355" y="900" on="0"/>
        <pt x="185" y="850" on="1"/>
        <pt x="185" y="1000" on="1"/>
        <pt x="355" y="1050" on="0"/>
        <pt x="517" y="1050" on="1"/>
        <pt x="985" y="1050" on="0"/>
        <pt x="985" y="724" on="1"/>
        <pt x="985" y="0" on="1"/>
        <pt x="881" y="0" on="1"/>
        <pt x="817" y="104" on="1"/>
        <pt x="660" y="0" on="0"/>
        <pt x="475" y="0" on="1"/>
        <pt x="100" y="0" on="0"/>
      </contour>
      <contour>
        <pt x="526" y="490" on="1"/>
        <pt x="285" y="490" on="0"/>
        <pt x="285" y="320" on="1"/>
        <pt x="285" y="150" on="0"/>
        <pt x="475" y="150" on="1"/>
        <pt x="667" y="150" on="0"/>
        <pt x="800" y="252" on="1"/>
        <pt x="800" y="470" on="1"/>
        <pt x="663" y="490" on="0"/>
      </contour>
    </TTGlyph>
    <TTGlyph name="aacute" xMin="100" yMin="0" xMax="985" yMax="1430">
      <component glyphName="a" x="0" y="0" flags="0x200"/>
      <component glyphName="acute" x="308" y="0" flags="0x0"/>
    </TTGlyph>
    <TTGlyph name="abreve" xMin="100" yMin="0" xMax="985" yMax="1430">
      <component glyphName="a" x="0" y="0" flags="0x200"/>
      <component glyphName="breve" x="198" y="0" flags="0x0"/>
    </TTGlyph>
    <TTGlyph name="acircumflex" xMin="100" yMin="0" xMax="985" yMax="1430">
      <component glyphName="a" x="0" y="0" flags="0x200"/>
      <component glyphName="circumflex" x="223" y="0" flags="0x0"/>
    </TTGlyph>
    <TTGlyph name="acute" xMin="100" yMin="1191" xMax="503" yMax="1430">
      <contour>
        <pt x="264" y="1430" on="1"/>
        <pt x="503" y="1430" on="1"/>
        <pt x="264" y="1191" on="1"/>
        <pt x="100" y="1191" on="1"/>
      </contour>
    </TTGlyph>
    <TTGlyph name="adieresis" xMin="100" yMin="0" xMax="985" yMax="1430">
      <component glyphName="a" x="0" y="0" flags="0x200"/>
      <component glyphName="dieresis" x="185" y="0" flags="0x0"/>
    </TTGlyph>
    <TTGlyph name="ae" xMin="100" yMin="0" xMax="1734" yMax="1050">
      <contour>
        <pt x="526" y="490" on="1"/>
        <pt x="285" y="490" on="0"/>
        <pt x="285" y="320" on="1"/>
        <pt x="285" y="150" on="0"/>
        <pt x="475" y="150" on="1"/>
        <pt x="667" y="150" on="0"/>
        <pt x="800" y="252" on="1"/>
        <pt x="800" y="470" on="1"/>
        <pt x="663" y="490" on="0"/>
      </contour>
      <contour>
        <pt x="988" y="626" on="1"/>
        <pt x="1556" y="626" on="1"/>
        <pt x="1550" y="902" on="0"/>
        <pt x="1286" y="902" on="1"/>
        <pt x="1006" y="902" on="0"/>
      </contour>
      <contour>
        <pt x="923" y="148" on="1"/>
        <pt x="700" y="0" on="0"/>
        <pt x="475" y="0" on="1"/>
        <pt x="100" y="0" on="0"/>
        <pt x="100" y="317" on="1"/>
        <pt x="100" y="640" on="0"/>
        <pt x="526" y="640" on="1"/>
        <pt x="663" y="640" on="0"/>
        <pt x="800" y="620" on="1"/>
        <pt x="800" y="719" on="1"/>
        <pt x="800" y="900" on="0"/>
        <pt x="517" y="900" on="1"/>
        <pt x="355" y="900" on="0"/>
        <pt x="185" y="850" on="1"/>
        <pt x="185" y="1000" on="1"/>
        <pt x="355" y="1050" on="0"/>
        <pt x="517" y="1050" on="1"/>
        <pt x="813" y="1050" on="0"/>
        <pt x="922" y="920" on="1"/>
        <pt x="1043" y="1050" on="0"/>
        <pt x="1286" y="1050" on="1"/>
        <pt x="1734" y="1050" on="0"/>
        <pt x="1734" y="607" on="1"/>
        <pt x="1734" y="544" on="0"/>
        <pt x="1725" y="472" on="1"/>
        <pt x="988" y="472" on="1"/>
        <pt x="988" y="150" on="0"/>
        <pt x="1364" y="150" on="1"/>
        <pt x="1533" y="150" on="0"/>
        <pt x="1682" y="190" on="1"/>
        <pt x="1682" y="40" on="1"/>
        <pt x="1543" y="0" on="0"/>
        <pt x="1344" y="0" on="1"/>
        <pt x="1064" y="0" on="0"/>
      </contour>
    </TTGlyph>
    <TTGlyph name="afii10017" xMin="25" yMin="0" xMax="1447" yMax="1430">
      <component glyphName="A" x="0" y="0" flags="0x200"/>
    </TTGlyph>
    <TTGlyph name="afii10018" xMin="170" yMin="0" xMax="1186" yMax="1430">
      <contour>
        <pt x="1171" y="1430" on="1"/>
        <pt x="1171" y="1280" on="1"/>
        <pt x="356" y="1280" on="1"/>
        <pt x="356" y="153" on="1"/>
        <pt x="763" y="153" on="1"/>
        <pt x="1001" y="153" on="0"/>
        <pt x="1001" y="402" on="1"/>
        <pt x="1001" y="670" on="0"/>
        <pt x="709" y="670" on="1"/>
        <pt x="521" y="670" on="1"/>
        <pt x="521" y="820" on="1"/>
        <pt x="718" y="820" on="1"/>
        <pt x="1186" y="820" on="0"/>
        <pt x="1186" y="413" on="1"/>
        <pt x="1186" y="0" on="0"/>
        <pt x="780" y="0" on="1"/>
        <pt x="170" y="0" on="1"/>
        <pt x="170" y="1430" on="1"/>
      </contour>
    </TTGlyph>
    <TTGlyph name="afii10019" xMin="170" yMin="0" xMax="1206" yMax="1430">
      <component glyphName="B" x="0" y="0" flags="0x200"/>
    </TTGlyph>
    <TTGlyph name="afii10020" xMin="170" yMin="0" xMax="1103" yMax="1430">
      <contour>
        <pt x="170" y="0" on="1"/>
        <pt x="170" y="1430" on="1"/>
        <pt x="1103" y="1430" on="1"/>
        <pt x="1103" y="1280" on="1"/>
        <pt x="355" y="1280" on="1"/>
        <pt x="355" y="0" on="1"/>
      </contour>
    </TTGlyph>
    <TTGlyph name="afii10021" xMin="0" yMin="-380" xMax="1624" yMax="1430">
      <contour>
        <pt x="498" y="150" on="1"/>
        <pt x="1254" y="150" on="1"/>
        <pt x="1254" y="1280" on="1"/>
        <pt x="784" y="1280" on="1"/>
        <pt x="784" y="341" on="0"/>
      </contour>
      <contour>
        <pt x="0" y="-380" on="1"/>
        <pt x="0" y="150" on="1"/>
        <pt x="184" y="150" on="1"/>
        <pt x="599" y="150" on="0"/>
        <pt x="599" y="1280" on="1"/>
        <pt x="599" y="1430" on="1"/>
        <pt x="1439" y="1430" on="1"/>
        <pt x="1439" y="150" on="1"/>
        <pt x="1624" y="150" on="1"/>
        <pt x="1624" y="-380" on="1"/>
        <pt x="1439" y="-380" on="1"/>
        <pt x="1439" y="0" on="1"/>
        <pt x="184" y="0" on="1"/>
        <pt x="184" y="-380" on="1"/>
      </contour>
    </TTGlyph>
    <TTGlyph name="afii10022" xMin="170" yMin="0" xMax="1120" yMax="1430">
      <component glyphName="E" x="0" y="0" flags="0x200"/>
    </TTGlyph>
    <TTGlyph name="afii10023" xMin="170" yMin="0" xMax="1120" yMax="1810">
      <component glyphName="E" x="0" y="0" flags="0x200"/>
      <component glyphName="dieresis" x="268" y="380" flags="0x0"/>
    </TTGlyph>
    <TTGlyph name="afii10024" xMin="25" yMin="0" xMax="2084" yMax="1430">
      <contour>
        <pt x="1860" y="0" on="1"/>
        <pt x="1521" y="540" on="0"/>
        <pt x="1345" y="693" on="0"/>
        <pt x="1267" y="693" on="1"/>
        <pt x="1267" y="826" on="1"/>
        <pt x="1427" y="826" on="0"/>
        <pt x="1754" y="1430" on="0"/>
        <pt x="1942" y="1430" on="1"/>
        <pt x="2049" y="1430" on="1"/>
        <pt x="2049" y="1270" on="1"/>
        <pt x="1970" y="1270" on="1"/>
        <pt x="1862" y="1270" on="0"/>
        <pt x="1594" y="797" on="0"/>
        <pt x="1479" y="758" on="1"/>
        <pt x="1554" y="745" on="0"/>
        <pt x="1734" y="546" on="0"/>
        <pt x="2084" y="0" on="1"/>
      </contour>
      <contour>
        <pt x="1147" y="1430" on="1"/>
        <pt x="1147" y="0" on="1"/>
        <pt x="962" y="0" on="1"/>
        <pt x="962" y="1430" on="1"/>
      </contour>
      <contour>
        <pt x="25" y="0" on="1"/>
        <pt x="375" y="546" on="0"/>
        <pt x="555" y="745" on="0"/>
        <pt x="630" y="758" on="1"/>
        <pt x="515" y="797" on="0"/>
        <pt x="247" y="1270" on="0"/>
        <pt x="139" y="1270" on="1"/>
        <pt x="60" y="1270" on="1"/>
        <pt x="60" y="1430" on="1"/>
        <pt x="167" y="1430" on="1"/>
        <pt x="355" y="1430" on="0"/>
        <pt x="682" y="826" on="0"/>
        <pt x="842" y="826" on="1"/>
        <pt x="842" y="693" on="1"/>
        <pt x="764" y="693" on="0"/>
        <pt x="588" y="540" on="0"/>
        <pt x="249" y="0" on="1"/>
      </contour>
    </TTGlyph>
    <TTGlyph name="afii10025" xMin="100" yMin="-10" xMax="1015" yMax="1440">
      <contour>
        <pt x="100" y="1380" on="1"/>
        <pt x="300" y="1440" on="0"/>
        <pt x="500" y="1440" on="1"/>
        <pt x="1015" y="1440" on="0"/>
        <pt x="1015" y="1050" on="1"/>
        <pt x="1015" y="814" on="0"/>
        <pt x="827" y="725" on="1"/>
        <pt x="1015" y="640" on="0"/>
        <pt x="1015" y="400" on="1"/>
        <pt x="1015" y="-10" on="0"/>
        <pt x="500" y="-10" on="1"/>
        <pt x="300" y="-10" on="0"/>
        <pt x="100" y="50" on="1"/>
        <pt x="100" y="210" on="1"/>
        <pt x="300" y="140" on="0"/>
        <pt x="500" y="140" on="1"/>
        <pt x="830" y="140" on="0"/>
        <pt x="830" y="400" on="1"/>
        <pt x="830" y="650" on="0"/>
        <pt x="578" y="650" on="1"/>
        <pt x="250" y="650" on="1"/>
        <pt x="250" y="800" on="1"/>
        <pt x="575" y="800" on="1"/>
        <pt x="830" y="800" on="0"/>
        <pt x="830" y="1050" on="1"/>
        <pt x="830" y="1290" on="0"/>
        <pt x="500" y="1290" on="1"/>
        <pt x="300" y="1290" on="0"/>
        <pt x="100" y="1220" on="1"/>
      </contour>
    </TTGlyph>
    <TTGlyph name="afii10026" xMin="170" yMin="0" xMax="1355" yMax="1430">
      <contour>
        <pt x="1180" y="0" on="1"/>
        <pt x="1180" y="1182" on="1"/>
        <pt x="355" y="0" on="1"/>
        <pt x="170" y="0" on="1"/>
        <pt x="170" y="1430" on="1"/>
        <pt x="345" y="1430" on="1"/>
        <pt x="345" y="248" on="1"/>
        <pt x="1170" y="1430" on="1"/>
        <pt x="1355" y="1430" on="1"/>
        <pt x="1355" y="0" on="1"/>
      </contour>
    </TTGlyph>
    <TTGlyph name="afii10027" xMin="170" yMin="0" xMax="1355" yMax="1784">
      <contour>
        <pt x="1180" y="0" on="1"/>
        <pt x="1180" y="1182" on="1"/>
        <pt x="355" y="0" on="1"/>
        <pt x="170" y="0" on="1"/>
        <pt x="170" y="1430" on="1"/>
        <pt x="345" y="1430" on="1"/>
        <pt x="345" y="248" on="1"/>
        <pt x="1170" y="1430" on="1"/>
        <pt x="1355" y="1430" on="1"/>
        <pt x="1355" y="0" on="1"/>
      </contour>
      <contour>
        <pt x="490" y="1784" on="1"/>
        <pt x="625" y="1784" on="1"/>
        <pt x="625" y="1624" on="0"/>
        <pt x="765" y="1624" on="1"/>
        <pt x="905" y="1624" on="0"/>
        <pt x="905" y="1784" on="1"/>
        <pt x="1040" y="1784" on="1"/>
        <pt x="1040" y="1514" on="0"/>
        <pt x="765" y="1514" on="1"/>
        <pt x="490" y="1514" on="0"/>
      </contour>
    </TTGlyph>
    <TTGlyph name="afii10028" xMin="170" yMin="0" xMax="1292" yMax="1430">
      <contour>
        <pt x="1068" y="0" on="1"/>
        <pt x="729" y="540" on="0"/>
        <pt x="553" y="693" on="0"/>
        <pt x="475" y="693" on="1"/>
        <pt x="475" y="826" on="1"/>
        <pt x="635" y="826" on="0"/>
        <pt x="962" y="1430" on="0"/>
        <pt x="1150" y="1430" on="1"/>
        <pt x="1257" y="1430" on="1"/>
        <pt x="1257" y="1270" on="1"/>
        <pt x="1178" y="1270" on="1"/>
        <pt x="1070" y="1270" on="0"/>
        <pt x="802" y="797" on="0"/>
        <pt x="687" y="758" on="1"/>
        <pt x="762" y="745" on="0"/>
        <pt x="942" y="546" on="0"/>
        <pt x="1292" y="0" on="1"/>
      </contour>
      <contour>
        <pt x="355" y="1430" on="1"/>
        <pt x="355" y="0" on="1"/>
        <pt x="170" y="0" on="1"/>
        <pt x="170" y="1430" on="1"/>
      </contour>
    </TTGlyph>
    <TTGlyph name="afii10029" xMin="0" yMin="0" xMax="1354" yMax="1430">
      <contour>
        <pt x="0" y="150" on="1"/>
        <pt x="414" y="150" on="0"/>
        <pt x="414" y="800" on="1"/>
        <pt x="414" y="1430" on="1"/>
        <pt x="1354" y="1430" on="1"/>
        <pt x="1354" y="0" on="1"/>
        <pt x="1169" y="0" on="1"/>
        <pt x="1169" y="1280" on="1"/>
        <pt x="599" y="1280" on="1"/>
        <pt x="599" y="800" on="1"/>
        <pt x="599" y="0" on="0"/>
        <pt x="0" y="0" on="1"/>
      </contour>
    </TTGlyph>
    <TTGlyph name="afii10030" xMin="170" yMin="0" xMax="1670" yMax="1430">
      <component glyphName="M" x="0" y="0" flags="0x200"/>
    </TTGlyph>
    <TTGlyph name="afii10031" xMin="170" yMin="0" xMax="1355" yMax="1430">
      <contour>
        <pt x="170" y="0" on="1"/>
        <pt x="170" y="1430" on="1"/>
        <pt x="355" y="1430" on="1"/>
        <pt x="355" y="810" on="1"/>
        <pt x="1170" y="810" on="1"/>
        <pt x="1170" y="1430" on="1"/>
        <pt x="1355" y="1430" on="1"/>
        <pt x="1355" y="0" on="1"/>
        <pt x="1170" y="0" on="1"/>
        <pt x="1170" y="660" on="1"/>
        <pt x="355" y="660" on="1"/>
        <pt x="355" y="0" on="1"/>
      </contour>
    </TTGlyph>
    <TTGlyph name="afii10032" xMin="120" yMin="-10" xMax="1545" yMax="1440">
      <component glyphName="O" x="0" y="0" flags="0x200"/>
    </TTGlyph>
    <TTGlyph name="afii10033" xMin="170" yMin="0" xMax="1355" yMax="1430">
      <contour>
        <pt x="170" y="0" on="1"/>
        <pt x="170" y="1430" on="1"/>
        <pt x="1355" y="1430" on="1"/>
        <pt x="1355" y="0" on="1"/>
        <pt x="1170" y="0" on="1"/>
        <pt x="1170" y="1280" on="1"/>
        <pt x="355" y="1280" on="1"/>
        <pt x="355" y="0" on="1"/>
      </contour>
    </TTGlyph>
    <TTGlyph name="afii10034" xMin="170" yMin="0" xMax="1188" yMax="1430">
      <component glyphName="P" x="0" y="0" flags="0x200"/>
    </TTGlyph>
    <TTGlyph name="afii10035" xMin="100" yMin="-10" xMax="1250" yMax="1440">
      <component glyphName="C" x="0" y="0" flags="0x200"/>
    </TTGlyph>
    <TTGlyph name="afii10036" xMin="50" yMin="0" xMax="1135" yMax="1430">
      <component glyphName="T" x="0" y="0" flags="0x200"/>
    </TTGlyph>
    <TTGlyph name="afii10037" xMin="50" yMin="0" xMax="1282" yMax="1430">
      <contour>
        <pt x="1282" y="1430" on="1"/>
        <pt x="789" y="268" on="1"/>
        <pt x="675" y="0" on="0"/>
        <pt x="400" y="0" on="1"/>
        <pt x="272" y="0" on="0"/>
        <pt x="164" y="70" on="1"/>
        <pt x="164" y="220" on="1"/>
        <pt x="270" y="150" on="0"/>
        <pt x="397" y="150" on="1"/>
        <pt x="551" y="150" on="0"/>
        <pt x="614" y="271" on="1"/>
        <pt x="50" y="1430" on="1"/>
        <pt x="245" y="1430" on="1"/>
        <pt x="708" y="449" on="1"/>
        <pt x="1090" y="1430" on="1"/>
      </contour>
    </TTGlyph>
    <TTGlyph name="afii10038" xMin="100" yMin="0" xMax="1624" yMax="1430">
      <contour>
        <pt x="770" y="113" on="1"/>
        <pt x="100" y="150" on="0"/>
        <pt x="100" y="713" on="1"/>
        <pt x="100" y="1280" on="0"/>
        <pt x="770" y="1317" on="1"/>
        <pt x="770" y="1430" on="1"/>
        <pt x="954" y="1430" on="1"/>
        <pt x="954" y="1318" on="1"/>
        <pt x="1624" y="1284" on="0"/>
        <pt x="1624" y="713" on="1"/>
        <pt x="1624" y="145" on="0"/>
        <pt x="954" y="112" on="1"/>
        <pt x="954" y="0" on="1"/>
        <pt x="770" y="0" on="1"/>
      </contour>
      <contour>
        <pt x="770" y="264" on="1"/>
        <pt x="770" y="1166" on="1"/>
        <pt x="294" y="1130" on="0"/>
        <pt x="294" y="719" on="1"/>
        <pt x="294" y="301" on="0"/>
      </contour>
      <contour>
        <pt x="954" y="1167" on="1"/>
        <pt x="954" y="263" on="1"/>
        <pt x="1430" y="297" on="0"/>
        <pt x="1430" y="719" on="1"/>
        <pt x="1430" y="1134" on="0"/>
      </contour>
    </TTGlyph>
    <TTGlyph name="afii10039" xMin="25" yMin="0" xMax="1375" yMax="1430">
      <contour>
        <pt x="250" y="0" on="1"/>
        <pt x="25" y="0" on="1"/>
        <pt x="587" y="715" on="1"/>
        <pt x="25" y="1430" on="1"/>
        <pt x="250" y="1430" on="1"/>
        <pt x="700" y="858" on="1"/>
        <pt x="1150" y="1430" on="1"/>
        <pt x="1375" y="1430" on="1"/>
        <pt x="813" y="715" on="1"/>
        <pt x="1375" y="0" on="1"/>
        <pt x="1150" y="0" on="1"/>
        <pt x="700" y="572" on="1"/>
      </contour>
    </TTGlyph>
    <TTGlyph name="afii10040" xMin="170" yMin="-380" xMax="1467" yMax="1430">
      <contour>
        <pt x="170" y="0" on="1"/>
        <pt x="170" y="1430" on="1"/>
        <pt x="355" y="1430" on="1"/>
        <pt x="355" y="150" on="1"/>
        <pt x="1097" y="150" on="1"/>
        <pt x="1097" y="1430" on="1"/>
        <pt x="1282" y="1430" on="1"/>
        <pt x="1282" y="150" on="1"/>
        <pt x="1467" y="150" on="1"/>
        <pt x="1467" y="-380" on="1"/>
        <pt x="1282" y="-380" on="1"/>
        <pt x="1282" y="0" on="1"/>
      </contour>
    </TTGlyph>
    <TTGlyph name="afii10041" xMin="125" yMin="0" xMax="1238" yMax="1430">
      <contour>
        <pt x="1238" y="1430" on="1"/>
        <pt x="1238" y="0" on="1"/>
        <pt x="1053" y="0" on="1"/>
        <pt x="1053" y="634" on="1"/>
        <pt x="857" y="520" on="0"/>
        <pt x="624" y="520" on="1"/>
        <pt x="125" y="520" on="0"/>
        <pt x="125" y="1001" on="1"/>
        <pt x="125" y="1430" on="1"/>
        <pt x="310" y="1430" on="1"/>
        <pt x="310" y="998" on="1"/>
        <pt x="310" y="674" on="0"/>
        <pt x="649" y="674" on="1"/>
        <pt x="878" y="674" on="0"/>
        <pt x="1053" y="807" on="1"/>
        <pt x="1053" y="1430" on="1"/>
      </contour>
    </TTGlyph>
    <TTGlyph name="afii10042" xMin="170" yMin="0" xMax="1705" yMax="1430">
      <contour>
        <pt x="170" y="0" on="1"/>
        <pt x="170" y="1430" on="1"/>
        <pt x="355" y="1430" on="1"/>
        <pt x="355" y="150" on="1"/>
        <pt x="845" y="150" on="1"/>
        <pt x="845" y="1430" on="1"/>
        <pt x="1030" y="1430" on="1"/>
        <pt x="1030" y="150" on="1"/>
        <pt x="1520" y="150" on="1"/>
        <pt x="1520" y="1430" on="1"/>
        <pt x="1705" y="1430" on="1"/>
        <pt x="1705" y="0" on="1"/>
      </contour>
    </TTGlyph>
    <TTGlyph name="afii10043" xMin="170" yMin="-380" xMax="1890" yMax="1430">
      <contour>
        <pt x="170" y="0" on="1"/>
        <pt x="170" y="1430" on="1"/>
        <pt x="355" y="1430" on="1"/>
        <pt x="355" y="150" on="1"/>
        <pt x="845" y="150" on="1"/>
        <pt x="845" y="1430" on="1"/>
        <pt x="1030" y="1430" on="1"/>
        <pt x="1030" y="150" on="1"/>
        <pt x="1520" y="150" on="1"/>
        <pt x="1520" y="1430" on="1"/>
        <pt x="1705" y="1430" on="1"/>
        <pt x="1705" y="150" on="1"/>
        <pt x="1890" y="150" on="1"/>
        <pt x="1890" y="-380" on="1"/>
        <pt x="1705" y="-380" on="1"/>
        <pt x="1705" y="0" on="1"/>
      </contour>
    </TTGlyph>
    <TTGlyph name="afii10044" xMin="0" yMin="0" xMax="1610" yMax="1430">
      <contour>
        <pt x="767" y="1430" on="1"/>
        <pt x="767" y="153" on="1"/>
        <pt x="1175" y="153" on="1"/>
        <pt x="1413" y="153" on="0"/>
        <pt x="1413" y="402" on="1"/>
        <pt x="1413" y="670" on="0"/>
        <pt x="1121" y="670" on="1"/>
        <pt x="933" y="670" on="1"/>
        <pt x="933" y="820" on="1"/>
        <pt x="1131" y="820" on="1"/>
        <pt x="1610" y="820" on="0"/>
        <pt x="1610" y="413" on="1"/>
        <pt x="1610" y="0" on="0"/>
        <pt x="1192" y="0" on="1"/>
        <pt x="582" y="0" on="1"/>
        <pt x="582" y="1280" on="1"/>
        <pt x="0" y="1280" on="1"/>
        <pt x="0" y="1430" on="1"/>
      </contour>
    </TTGlyph>
    <TTGlyph name="afii10045" xMin="170" yMin="0" xMax="1585" yMax="1430">
      <contour>
        <pt x="355" y="1430" on="1"/>
        <pt x="355" y="153" on="1"/>
        <pt x="763" y="153" on="1"/>
        <pt x="1001" y="153" on="0"/>
        <pt x="1001" y="402" on="1"/>
        <pt x="1001" y="670" on="0"/>
        <pt x="709" y="670" on="1"/>
        <pt x="521" y="670" on="1"/>
        <pt x="521" y="820" on="1"/>
        <pt x="719" y="820" on="1"/>
        <pt x="1198" y="820" on="0"/>
        <pt x="1198" y="413" on="1"/>
        <pt x="1198" y="0" on="0"/>
        <pt x="780" y="0" on="1"/>
        <pt x="170" y="0" on="1"/>
        <pt x="170" y="1430" on="1"/>
      </contour>
      <contour>
        <pt x="1400" y="0" on="1"/>
        <pt x="1400" y="1430" on="1"/>
        <pt x="1585" y="1430" on="1"/>
        <pt x="1585" y="0" on="1"/>
      </contour>
    </TTGlyph>
    <TTGlyph name="afii10046" xMin="170" yMin="0" xMax="1198" yMax="1430">
      <contour>
        <pt x="355" y="1430" on="1"/>
        <pt x="355" y="153" on="1"/>
        <pt x="763" y="153" on="1"/>
        <pt x="1001" y="153" on="0"/>
        <pt x="1001" y="402" on="1"/>
        <pt x="1001" y="670" on="0"/>
        <pt x="709" y="670" on="1"/>
        <pt x="521" y="670" on="1"/>
        <pt x="521" y="820" on="1"/>
        <pt x="718" y="820" on="1"/>
        <pt x="1198" y="820" on="0"/>
        <pt x="1198" y="413" on="1"/>
        <pt x="1198" y="0" on="0"/>
        <pt x="780" y="0" on="1"/>
        <pt x="170" y="0" on="1"/>
        <pt x="170" y="1430" on="1"/>
      </contour>
    </TTGlyph>
    <TTGlyph name="afii10047" xMin="125" yMin="-10" xMax="1275" yMax="1440">
      <contour>
        <pt x="125" y="210" on="1"/>
        <pt x="310" y="140" on="0"/>
        <pt x="505" y="140" on="1"/>
        <pt x="1047" y="140" on="0"/>
        <pt x="1087" y="650" on="1"/>
        <pt x="197" y="650" on="1"/>
        <pt x="197" y="800" on="1"/>
        <pt x="1088" y="800" on="1"/>
        <pt x="1055" y="1290" on="0"/>
        <pt x="505" y="1290" on="1"/>
        <pt x="310" y="1290" on="0"/>
        <pt x="125" y="1220" on="1"/>
        <pt x="125" y="1380" on="1"/>
        <pt x="310" y="1440" on="0"/>
        <pt x="525" y="1440" on="1"/>
        <pt x="1275" y="1440" on="0"/>
        <pt x="1275" y="735" on="1"/>
        <pt x="1275" y="-10" on="0"/>
        <pt x="525" y="-10" on="1"/>
        <pt x="310" y="-10" on="0"/>
        <pt x="125" y="50" on="1"/>
      </contour>
    </TTGlyph>
    <TTGlyph name="afii10048" xMin="170" yMin="-10" xMax="1922" yMax="1440">
      <contour>
        <pt x="170" y="0" on="1"/>
        <pt x="170" y="1430" on="1"/>
        <pt x="354" y="1430" on="1"/>
        <pt x="354" y="800" on="1"/>
        <pt x="759" y="800" on="1"/>
        <pt x="793" y="1440" on="0"/>
        <pt x="1345" y="1440" on="1"/>
        <pt x="1922" y="1440" on="0"/>
        <pt x="1922" y="713" on="1"/>
        <pt x="1922" y="-10" on="0"/>
        <pt x="1345" y="-10" on="1"/>
        <pt x="783" y="-10" on="0"/>
        <pt x="758" y="650" on="1"/>
        <pt x="354" y="650" on="1"/>
        <pt x="354" y="0" on="1"/>
      </contour>
      <contour>
        <pt x="1345" y="140" on="1"/>
        <pt x="1727" y="140" on="0"/>
        <pt x="1727" y="719" on="1"/>
        <pt x="1727" y="1290" on="0"/>
        <pt x="1345" y="1290" on="1"/>
        <pt x="952" y="1290" on="0"/>
        <pt x="952" y="719" on="1"/>
        <pt x="952" y="140" on="0"/>
      </contour>
    </TTGlyph>
    <TTGlyph name="afii10049" xMin="25" yMin="0" xMax="1135" yMax="1430">
      <contour>
        <pt x="950" y="0" on="1"/>
        <pt x="950" y="1277" on="1"/>
        <pt x="542" y="1277" on="1"/>
        <pt x="314" y="1277" on="0"/>
        <pt x="314" y="1079" on="1"/>
        <pt x="314" y="829" on="0"/>
        <pt x="724" y="764" on="1"/>
        <pt x="724" y="633" on="1"/>
        <pt x="259" y="0" on="1"/>
        <pt x="25" y="0" on="1"/>
        <pt x="521" y="649" on="1"/>
        <pt x="117" y="788" on="0"/>
        <pt x="117" y="1067" on="1"/>
        <pt x="117" y="1430" on="0"/>
        <pt x="545" y="1430" on="1"/>
        <pt x="1135" y="1430" on="1"/>
        <pt x="1135" y="0" on="1"/>
      </contour>
    </TTGlyph>
    <TTGlyph name="afii10065" xMin="100" yMin="0" xMax="985" yMax="1050">
      <component glyphName="a" x="0" y="0" flags="0x200"/>
    </TTGlyph>
    <TTGlyph name="afii10066" xMin="125" yMin="-10" xMax="1166" yMax="1539">
      <contour>
        <pt x="1166" y="520" on="1"/>
        <pt x="1166" y="-10" on="0"/>
        <pt x="648" y="-10" on="1"/>
        <pt x="125" y="-10" on="0"/>
        <pt x="125" y="520" on="1"/>
        <pt x="125" y="845" on="1"/>
        <pt x="125" y="1430" on="0"/>
        <pt x="669" y="1430" on="1"/>
        <pt x="961" y="1430" on="0"/>
        <pt x="1132" y="1539" on="1"/>
        <pt x="1132" y="1376" on="1"/>
        <pt x="979" y="1280" on="0"/>
        <pt x="666" y="1280" on="1"/>
        <pt x="315" y="1280" on="0"/>
        <pt x="315" y="855" on="1"/>
        <pt x="444" y="1050" on="0"/>
        <pt x="658" y="1050" on="1"/>
        <pt x="1166" y="1050" on="0"/>
        <pt x="1166" y="542" on="1"/>
      </contour>
      <contour>
        <pt x="648" y="140" on="1"/>
        <pt x="980" y="140" on="0"/>
        <pt x="980" y="520" on="1"/>
        <pt x="980" y="894" on="0"/>
        <pt x="658" y="894" on="1"/>
        <pt x="315" y="894" on="0"/>
        <pt x="315" y="520" on="1"/>
        <pt x="315" y="140" on="0"/>
      </contour>
    </TTGlyph>
    <TTGlyph name="afii10067" xMin="150" yMin="0" xMax="1066" yMax="1050">
      <contour>
        <pt x="708" y="150" on="1"/>
        <pt x="864" y="150" on="0"/>
        <pt x="864" y="310" on="1"/>
        <pt x="864" y="460" on="0"/>
        <pt x="621" y="460" on="1"/>
        <pt x="541" y="460" on="1"/>
        <pt x="541" y="581" on="1"/>
        <pt x="851" y="616" on="0"/>
        <pt x="851" y="790" on="1"/>
        <pt x="851" y="900" on="0"/>
        <pt x="723" y="900" on="1"/>
        <pt x="335" y="900" on="1"/>
        <pt x="335" y="150" on="1"/>
      </contour>
      <contour>
        <pt x="150" y="0" on="1"/>
        <pt x="150" y="1050" on="1"/>
        <pt x="740" y="1050" on="1"/>
        <pt x="1048" y="1050" on="0"/>
        <pt x="1048" y="787" on="1"/>
        <pt x="1048" y="624" on="0"/>
        <pt x="852" y="545" on="1"/>
        <pt x="1066" y="492" on="0"/>
        <pt x="1066" y="313" on="1"/>
        <pt x="1066" y="0" on="0"/>
        <pt x="719" y="0" on="1"/>
      </contour>
    </TTGlyph>
    <TTGlyph name="afii10068" xMin="150" yMin="0" xMax="848" yMax="1050">
      <contour>
        <pt x="150" y="0" on="1"/>
        <pt x="150" y="1050" on="1"/>
        <pt x="848" y="1050" on="1"/>
        <pt x="848" y="900" on="1"/>
        <pt x="335" y="900" on="1"/>
        <pt x="335" y="0" on="1"/>
      </contour>
    </TTGlyph>
    <TTGlyph name="afii10069" xMin="0" yMin="-380" xMax="1353" yMax="1050">
      <contour>
        <pt x="454" y="150" on="1"/>
        <pt x="983" y="150" on="1"/>
        <pt x="983" y="900" on="1"/>
        <pt x="613" y="900" on="1"/>
        <pt x="613" y="341" on="0"/>
      </contour>
      <contour>
        <pt x="0" y="-380" on="1"/>
        <pt x="0" y="150" on="1"/>
        <pt x="184" y="150" on="1"/>
        <pt x="428" y="150" on="0"/>
        <pt x="428" y="900" on="1"/>
        <pt x="428" y="1050" on="1"/>
        <pt x="1168" y="1050" on="1"/>
        <pt x="1168" y="150" on="1"/>
        <pt x="1353" y="150" on="1"/>
        <pt x="1353" y="-380" on="1"/>
        <pt x="1168" y="-380" on="1"/>
        <pt x="1168" y="0" on="1"/>
        <pt x="184" y="0" on="1"/>
        <pt x="184" y="-380" on="1"/>
      </contour>
    </TTGlyph>
    <TTGlyph name="afii10070" xMin="100" yMin="0" xMax="1031" yMax="1050">
      <component glyphName="e" x="0" y="0" flags="0x200"/>
    </TTGlyph>
    <TTGlyph name="afii10071" xMin="100" yMin="0" xMax="1031" yMax="1430">
      <component glyphName="e" x="0" y="0" flags="0x200"/>
      <component glyphName="dieresis" x="188" y="0" flags="0x0"/>
    </TTGlyph>
    <TTGlyph name="afii10072" xMin="25" yMin="0" xMax="1695" yMax="1057">
      <contour>
        <pt x="1481" y="0" on="1"/>
        <pt x="1334" y="246" on="1"/>
        <pt x="1186" y="493" on="0"/>
        <pt x="1048" y="493" on="1"/>
        <pt x="1048" y="616" on="1"/>
        <pt x="1208" y="616" on="0"/>
        <pt x="1365" y="1055" on="0"/>
        <pt x="1553" y="1055" on="1"/>
        <pt x="1660" y="1055" on="1"/>
        <pt x="1660" y="889" on="1"/>
        <pt x="1581" y="889" on="1"/>
        <pt x="1473" y="889" on="0"/>
        <pt x="1371" y="597" on="0"/>
        <pt x="1246" y="548" on="1"/>
        <pt x="1364" y="527" on="0"/>
        <pt x="1529" y="264" on="1"/>
        <pt x="1695" y="0" on="1"/>
      </contour>
      <contour>
        <pt x="951" y="1057" on="1"/>
        <pt x="951" y="0" on="1"/>
        <pt x="766" y="0" on="1"/>
        <pt x="766" y="1057" on="1"/>
      </contour>
      <contour>
        <pt x="25" y="0" on="1"/>
        <pt x="191" y="264" on="1"/>
        <pt x="356" y="527" on="0"/>
        <pt x="474" y="548" on="1"/>
        <pt x="349" y="597" on="0"/>
        <pt x="247" y="889" on="0"/>
        <pt x="139" y="889" on="1"/>
        <pt x="60" y="889" on="1"/>
        <pt x="60" y="1055" on="1"/>
        <pt x="167" y="1055" on="1"/>
        <pt x="355" y="1055" on="0"/>
        <pt x="512" y="616" on="0"/>
        <pt x="672" y="616" on="1"/>
        <pt x="672" y="493" on="1"/>
        <pt x="534" y="493" on="0"/>
        <pt x="386" y="246" on="1"/>
        <pt x="239" y="0" on="1"/>
      </contour>
    </TTGlyph>
    <TTGlyph name="afii10073" xMin="100" yMin="-10" xMax="865" yMax="1060">
      <contour>
        <pt x="100" y="1000" on="1"/>
        <pt x="300" y="1060" on="0"/>
        <pt x="450" y="1060" on="1"/>
        <pt x="865" y="1060" on="0"/>
        <pt x="865" y="768" on="1"/>
        <pt x="865" y="614" on="0"/>
        <pt x="727" y="535" on="1"/>
        <pt x="865" y="460" on="0"/>
        <pt x="865" y="310" on="1"/>
        <pt x="865" y="-10" on="0"/>
        <pt x="450" y="-10" on="1"/>
        <pt x="300" y="-10" on="0"/>
        <pt x="100" y="50" on="1"/>
        <pt x="100" y="210" on="1"/>
        <pt x="300" y="140" on="0"/>
        <pt x="450" y="140" on="1"/>
        <pt x="680" y="140" on="0"/>
        <pt x="680" y="310" on="1"/>
        <pt x="680" y="460" on="0"/>
        <pt x="528" y="460" on="1"/>
        <pt x="200" y="460" on="1"/>
        <pt x="200" y="610" on="1"/>
        <pt x="525" y="610" on="1"/>
        <pt x="680" y="610" on="0"/>
        <pt x="680" y="768" on="1"/>
        <pt x="680" y="910" on="0"/>
        <pt x="450" y="910" on="1"/>
        <pt x="300" y="910" on="0"/>
        <pt x="100" y="840" on="1"/>
      </contour>
    </TTGlyph>
    <TTGlyph name="afii10074" xMin="150" yMin="0" xMax="1075" yMax="1050">
      <contour>
        <pt x="900" y="0" on="1"/>
        <pt x="900" y="812" on="1"/>
        <pt x="335" y="0" on="1"/>
        <pt x="150" y="0" on="1"/>
        <pt x="150" y="1050" on="1"/>
        <pt x="325" y="1050" on="1"/>
        <pt x="325" y="238" on="1"/>
        <pt x="890" y="1050" on="1"/>
        <pt x="1075" y="1050" on="1"/>
        <pt x="1075" y="0" on="1"/>
      </contour>
    </TTGlyph>
    <TTGlyph name="afii10075" xMin="150" yMin="0" xMax="1075" yMax="1430">
      <component glyphName="afii10074" x="0" y="0" flags="0x200"/>
      <component glyphName="breve" x="248" y="0" flags="0x0"/>
    </TTGlyph>
    <TTGlyph name="afii10076" xMin="150" yMin="0" xMax="1079" yMax="1050">
      <contour>
        <pt x="865" y="0" on="1"/>
        <pt x="718" y="246" on="1"/>
        <pt x="570" y="493" on="0"/>
        <pt x="432" y="493" on="1"/>
        <pt x="432" y="616" on="1"/>
        <pt x="592" y="616" on="0"/>
        <pt x="749" y="1050" on="0"/>
        <pt x="937" y="1050" on="1"/>
        <pt x="1044" y="1050" on="1"/>
        <pt x="1044" y="890" on="1"/>
        <pt x="965" y="890" on="1"/>
        <pt x="857" y="890" on="0"/>
        <pt x="755" y="597" on="0"/>
        <pt x="630" y="548" on="1"/>
        <pt x="748" y="527" on="0"/>
        <pt x="913" y="264" on="1"/>
        <pt x="1079" y="0" on="1"/>
      </contour>
      <contour>
        <pt x="335" y="1050" on="1"/>
        <pt x="335" y="0" on="1"/>
        <pt x="150" y="0" on="1"/>
        <pt x="150" y="1050" on="1"/>
      </contour>
    </TTGlyph>
    <TTGlyph name="afii10077" xMin="0" yMin="0" xMax="1037" yMax="1050">
      <contour>
        <pt x="0" y="150" on="1"/>
        <pt x="237" y="150" on="0"/>
        <pt x="237" y="420" on="1"/>
        <pt x="237" y="1050" on="1"/>
        <pt x="1037" y="1050" on="1"/>
        <pt x="1037" y="0" on="1"/>
        <pt x="852" y="0" on="1"/>
        <pt x="852" y="900" on="1"/>
        <pt x="422" y="900" on="1"/>
        <pt x="422" y="420" on="1"/>
        <pt x="422" y="0" on="0"/>
        <pt x="0" y="0" on="1"/>
      </contour>
    </TTGlyph>
    <TTGlyph name="afii10078" xMin="150" yMin="0" xMax="1310" yMax="1050">
      <contour>
        <pt x="150" y="0" on="1"/>
        <pt x="150" y="1050" on="1"/>
        <pt x="385" y="1050" on="1"/>
        <pt x="740" y="217" on="1"/>
        <pt x="1085" y="1050" on="1"/>
        <pt x="1310" y="1050" on="1"/>
        <pt x="1310" y="0" on="1"/>
        <pt x="1145" y="0" on="1"/>
        <pt x="1145" y="803" on="1"/>
        <pt x="807" y="0" on="1"/>
        <pt x="661" y="0" on="1"/>
        <pt x="315" y="803" on="1"/>
        <pt x="315" y="0" on="1"/>
      </contour>
    </TTGlyph>
    <TTGlyph name="afii10079" xMin="150" yMin="0" xMax="1075" yMax="1050">
      <contour>
        <pt x="150" y="0" on="1"/>
        <pt x="150" y="1050" on="1"/>
        <pt x="335" y="1050" on="1"/>
        <pt x="335" y="610" on="1"/>
        <pt x="890" y="610" on="1"/>
        <pt x="890" y="1050" on="1"/>
        <pt x="1075" y="1050" on="1"/>
        <pt x="1075" y="0" on="1"/>
        <pt x="890" y="0" on="1"/>
        <pt x="890" y="460" on="1"/>
        <pt x="335" y="460" on="1"/>
        <pt x="335" y="0" on="1"/>
      </contour>
    </TTGlyph>
    <TTGlyph name="afii10080" xMin="100" yMin="-10" xMax="1140" yMax="1060">
      <contour>
        <pt x="100" y="525" on="1"/>
        <pt x="100" y="1060" on="0"/>
        <pt x="620" y="1060" on="1"/>
        <pt x="1140" y="1060" on="0"/>
        <pt x="1140" y="525" on="1"/>
        <pt x="1140" y="-10" on="0"/>
        <pt x="620" y="-10" on="1"/>
        <pt x="102" y="-10" on="0"/>
      </contour>
      <contour>
        <pt x="285" y="140" on="0"/>
        <pt x="620" y="140" on="1"/>
        <pt x="955" y="140" on="0"/>
        <pt x="955" y="529" on="1"/>
        <pt x="955" y="910" on="0"/>
        <pt x="620" y="910" on="1"/>
        <pt x="285" y="910" on="0"/>
        <pt x="285" y="529" on="1"/>
      </contour>
    </TTGlyph>
    <TTGlyph name="afii10081" xMin="150" yMin="0" xMax="1075" yMax="1050">
      <contour>
        <pt x="150" y="0" on="1"/>
        <pt x="150" y="1050" on="1"/>
        <pt x="1075" y="1050" on="1"/>
        <pt x="1075" y="0" on="1"/>
        <pt x="890" y="0" on="1"/>
        <pt x="890" y="900" on="1"/>
        <pt x="335" y="900" on="1"/>
        <pt x="335" y="0" on="1"/>
      </contour>
    </TTGlyph>
    <TTGlyph name="afii10082" xMin="150" yMin="-380" xMax="1117" yMax="1050">
      <contour>
        <pt x="335" y="214" on="1"/>
        <pt x="444" y="160" on="0"/>
        <pt x="578" y="160" on="1"/>
        <pt x="935" y="160" on="0"/>
        <pt x="935" y="553" on="1"/>
        <pt x="935" y="896" on="0"/>
        <pt x="580" y="896" on="1"/>
        <pt x="440" y="896" on="0"/>
        <pt x="335" y="872" on="1"/>
      </contour>
      <contour>
        <pt x="150" y="1007" on="1"/>
        <pt x="359" y="1050" on="0"/>
        <pt x="582" y="1050" on="1"/>
        <pt x="1117" y="1050" on="0"/>
        <pt x="1117" y="551" on="1"/>
        <pt x="1117" y="0" on="0"/>
        <pt x="579" y="0" on="1"/>
        <pt x="453" y="0" on="0"/>
        <pt x="335" y="50" on="1"/>
        <pt x="335" y="-380" on="1"/>
        <pt x="150" y="-380" on="1"/>
      </contour>
    </TTGlyph>
    <TTGlyph name="afii10083" xMin="100" yMin="0" xMax="940" yMax="1050">
      <component glyphName="c" x="0" y="0" flags="0x200"/>
    </TTGlyph>
    <TTGlyph name="afii10084" xMin="0" yMin="0" xMax="925" yMax="1050">
      <contour>
        <pt x="925" y="1050" on="1"/>
        <pt x="925" y="900" on="1"/>
        <pt x="555" y="900" on="1"/>
        <pt x="555" y="0" on="1"/>
        <pt x="370" y="0" on="1"/>
        <pt x="370" y="900" on="1"/>
        <pt x="0" y="900" on="1"/>
        <pt x="0" y="1050" on="1"/>
      </contour>
    </TTGlyph>
    <TTGlyph name="afii10085" xMin="25" yMin="-388" xMax="1026" yMax="1050">
      <contour>
        <pt x="25" y="1050" on="1"/>
        <pt x="226" y="1050" on="1"/>
        <pt x="523" y="230" on="1"/>
        <pt x="830" y="1050" on="1"/>
        <pt x="1026" y="1050" on="1"/>
        <pt x="590" y="-31" on="1"/>
        <pt x="474" y="-317" on="0"/>
        <pt x="242" y="-388" on="1"/>
        <pt x="171" y="-257" on="1"/>
        <pt x="347" y="-180" on="0"/>
        <pt x="427" y="-6" on="1"/>
      </contour>
    </TTGlyph>
    <TTGlyph name="afii10086" xMin="100" yMin="-380" xMax="1544" yMax="1430">
      <contour>
        <pt x="730" y="-7" on="1"/>
        <pt x="100" y="27" on="0"/>
        <pt x="100" y="523" on="1"/>
        <pt x="100" y="1023" on="0"/>
        <pt x="730" y="1057" on="1"/>
        <pt x="730" y="1430" on="1"/>
        <pt x="914" y="1430" on="1"/>
        <pt x="914" y="1058" on="1"/>
        <pt x="1544" y="1027" on="0"/>
        <pt x="1544" y="523" on="1"/>
        <pt x="1544" y="23" on="0"/>
        <pt x="914" y="-8" on="1"/>
        <pt x="914" y="-380" on="1"/>
        <pt x="730" y="-380" on="1"/>
      </contour>
      <contour>
        <pt x="730" y="144" on="1"/>
        <pt x="730" y="906" on="1"/>
        <pt x="294" y="873" on="0"/>
        <pt x="294" y="529" on="1"/>
        <pt x="294" y="178" on="0"/>
      </contour>
      <contour>
        <pt x="914" y="907" on="1"/>
        <pt x="914" y="143" on="1"/>
        <pt x="1350" y="173" on="0"/>
        <pt x="1350" y="529" on="1"/>
        <pt x="1350" y="877" on="0"/>
      </contour>
    </TTGlyph>
    <TTGlyph name="afii10087" xMin="25" yMin="0" xMax="1075" yMax="1050">
      <contour>
        <pt x="240" y="0" on="1"/>
        <pt x="25" y="0" on="1"/>
        <pt x="443" y="525" on="1"/>
        <pt x="25" y="1050" on="1"/>
        <pt x="240" y="1050" on="1"/>
        <pt x="550" y="660" on="1"/>
        <pt x="860" y="1050" on="1"/>
        <pt x="1075" y="1050" on="1"/>
        <pt x="657" y="525" on="1"/>
        <pt x="1075" y="0" on="1"/>
        <pt x="860" y="0" on="1"/>
        <pt x="550" y="390" on="1"/>
      </contour>
    </TTGlyph>
    <TTGlyph name="afii10088" xMin="150" yMin="-380" xMax="1286" yMax="1050">
      <contour>
        <pt x="150" y="0" on="1"/>
        <pt x="150" y="1050" on="1"/>
        <pt x="335" y="1050" on="1"/>
        <pt x="335" y="150" on="1"/>
        <pt x="916" y="150" on="1"/>
        <pt x="916" y="1050" on="1"/>
        <pt x="1101" y="1050" on="1"/>
        <pt x="1101" y="150" on="1"/>
        <pt x="1286" y="150" on="1"/>
        <pt x="1286" y="-380" on="1"/>
        <pt x="1101" y="-380" on="1"/>
        <pt x="1101" y="0" on="1"/>
      </contour>
    </TTGlyph>
    <TTGlyph name="afii10089" xMin="125" yMin="0" xMax="1068" yMax="1050">
      <contour>
        <pt x="1068" y="1050" on="1"/>
        <pt x="1068" y="0" on="1"/>
        <pt x="883" y="0" on="1"/>
        <pt x="883" y="414" on="1"/>
        <pt x="737" y="300" on="0"/>
        <pt x="534" y="300" on="1"/>
        <pt x="125" y="300" on="0"/>
        <pt x="125" y="711" on="1"/>
        <pt x="125" y="1050" on="1"/>
        <pt x="310" y="1050" on="1"/>
        <pt x="310" y="708" on="1"/>
        <pt x="310" y="454" on="0"/>
        <pt x="559" y="454" on="1"/>
        <pt x="758" y="454" on="0"/>
        <pt x="883" y="587" on="1"/>
        <pt x="883" y="1050" on="1"/>
      </contour>
    </TTGlyph>
    <TTGlyph name="afii10090" xMin="150" yMin="0" xMax="1485" yMax="1050">
      <contour>
        <pt x="150" y="0" on="1"/>
        <pt x="150" y="1050" on="1"/>
        <pt x="335" y="1050" on="1"/>
        <pt x="335" y="150" on="1"/>
        <pt x="725" y="150" on="1"/>
        <pt x="725" y="1050" on="1"/>
        <pt x="910" y="1050" on="1"/>
        <pt x="910" y="150" on="1"/>
        <pt x="1300" y="150" on="1"/>
        <pt x="1300" y="1050" on="1"/>
        <pt x="1485" y="1050" on="1"/>
        <pt x="1485" y="0" on="1"/>
      </contour>
    </TTGlyph>
    <TTGlyph name="afii10091" xMin="150" yMin="-380" xMax="1670" yMax="1050">
      <contour>
        <pt x="150" y="0" on="1"/>
        <pt x="150" y="1050" on="1"/>
        <pt x="335" y="1050" on="1"/>
        <pt x="335" y="150" on="1"/>
        <pt x="725" y="150" on="1"/>
        <pt x="725" y="1050" on="1"/>
        <pt x="910" y="1050" on="1"/>
        <pt x="910" y="150" on="1"/>
        <pt x="1300" y="150" on="1"/>
        <pt x="1300" y="1050" on="1"/>
        <pt x="1485" y="1050" on="1"/>
        <pt x="1485" y="150" on="1"/>
        <pt x="1670" y="150" on="1"/>
        <pt x="1670" y="-380" on="1"/>
        <pt x="1485" y="-380" on="1"/>
        <pt x="1485" y="0" on="1"/>
      </contour>
    </TTGlyph>
    <TTGlyph name="afii10092" xMin="0" yMin="0" xMax="1252" yMax="1050">
      <contour>
        <pt x="569" y="1050" on="1"/>
        <pt x="569" y="153" on="1"/>
        <pt x="867" y="153" on="1"/>
        <pt x="1065" y="153" on="0"/>
        <pt x="1065" y="322" on="1"/>
        <pt x="1065" y="459" on="0"/>
        <pt x="883" y="459" on="1"/>
        <pt x="705" y="459" on="1"/>
        <pt x="705" y="609" on="1"/>
        <pt x="893" y="609" on="1"/>
        <pt x="1252" y="609" on="0"/>
        <pt x="1252" y="313" on="1"/>
        <pt x="1252" y="0" on="0"/>
        <pt x="884" y="0" on="1"/>
        <pt x="384" y="0" on="1"/>
        <pt x="384" y="900" on="1"/>
        <pt x="0" y="900" on="1"/>
        <pt x="0" y="1050" on="1"/>
      </contour>
    </TTGlyph>
    <TTGlyph name="afii10093" xMin="150" yMin="0" xMax="1360" yMax="1050">
      <contour>
        <pt x="1175" y="0" on="1"/>
        <pt x="1175" y="1050" on="1"/>
        <pt x="1360" y="1050" on="1"/>
        <pt x="1360" y="0" on="1"/>
      </contour>
      <contour>
        <pt x="335" y="1050" on="1"/>
        <pt x="335" y="153" on="1"/>
        <pt x="653" y="153" on="1"/>
        <pt x="831" y="153" on="0"/>
        <pt x="831" y="322" on="1"/>
        <pt x="831" y="459" on="0"/>
        <pt x="649" y="459" on="1"/>
        <pt x="471" y="459" on="1"/>
        <pt x="471" y="609" on="1"/>
        <pt x="658" y="609" on="1"/>
        <pt x="1018" y="609" on="0"/>
        <pt x="1018" y="313" on="1"/>
        <pt x="1018" y="0" on="0"/>
        <pt x="670" y="0" on="1"/>
        <pt x="150" y="0" on="1"/>
        <pt x="150" y="1050" on="1"/>
      </contour>
    </TTGlyph>
    <TTGlyph name="afii10094" xMin="150" yMin="0" xMax="1018" yMax="1050">
      <contour>
        <pt x="335" y="1050" on="1"/>
        <pt x="335" y="153" on="1"/>
        <pt x="653" y="153" on="1"/>
        <pt x="831" y="153" on="0"/>
        <pt x="831" y="322" on="1"/>
        <pt x="831" y="459" on="0"/>
        <pt x="649" y="459" on="1"/>
        <pt x="471" y="459" on="1"/>
        <pt x="471" y="609" on="1"/>
        <pt x="658" y="609" on="1"/>
        <pt x="1018" y="609" on="0"/>
        <pt x="1018" y="313" on="1"/>
        <pt x="1018" y="0" on="0"/>
        <pt x="670" y="0" on="1"/>
        <pt x="150" y="0" on="1"/>
        <pt x="150" y="1050" on="1"/>
      </contour>
    </TTGlyph>
    <TTGlyph name="afii10095" xMin="100" yMin="0" xMax="950" yMax="1050">
      <contour>
        <pt x="100" y="180" on="1"/>
        <pt x="230" y="150" on="0"/>
        <pt x="360" y="150" on="1"/>
        <pt x="719" y="150" on="0"/>
        <pt x="760" y="461" on="1"/>
        <pt x="164" y="461" on="1"/>
        <pt x="164" y="611" on="1"/>
        <pt x="761" y="611" on="1"/>
        <pt x="725" y="900" on="0"/>
        <pt x="360" y="900" on="1"/>
        <pt x="230" y="900" on="0"/>
        <pt x="100" y="870" on="1"/>
        <pt x="100" y="1020" on="1"/>
        <pt x="230" y="1050" on="0"/>
        <pt x="380" y="1050" on="1"/>
        <pt x="950" y="1050" on="0"/>
        <pt x="950" y="545" on="1"/>
        <pt x="950" y="0" on="0"/>
        <pt x="380" y="0" on="1"/>
        <pt x="230" y="0" on="0"/>
        <pt x="100" y="30" on="1"/>
      </contour>
    </TTGlyph>
    <TTGlyph name="afii10096" xMin="150" yMin="-10" xMax="1602" yMax="1060">
      <contour>
        <pt x="1145" y="140" on="1"/>
        <pt x="1407" y="140" on="0"/>
        <pt x="1407" y="529" on="1"/>
        <pt x="1407" y="910" on="0"/>
        <pt x="1145" y="910" on="1"/>
        <pt x="872" y="910" on="0"/>
        <pt x="872" y="529" on="1"/>
        <pt x="872" y="140" on="0"/>
      </contour>
      <contour>
        <pt x="150" y="0" on="1"/>
        <pt x="150" y="1050" on="1"/>
        <pt x="334" y="1050" on="1"/>
        <pt x="334" y="610" on="1"/>
        <pt x="680" y="610" on="1"/>
        <pt x="717" y="1060" on="0"/>
        <pt x="1145" y="1060" on="1"/>
        <pt x="1602" y="1060" on="0"/>
        <pt x="1602" y="523" on="1"/>
        <pt x="1602" y="-10" on="0"/>
        <pt x="1145" y="-10" on="1"/>
        <pt x="706" y="-10" on="0"/>
        <pt x="679" y="460" on="1"/>
        <pt x="334" y="460" on="1"/>
        <pt x="334" y="0" on="1"/>
      </contour>
    </TTGlyph>
    <TTGlyph name="afii10097" xMin="25" yMin="0" xMax="995" yMax="1050">
      <contour>
        <pt x="810" y="0" on="1"/>
        <pt x="810" y="897" on="1"/>
        <pt x="452" y="897" on="1"/>
        <pt x="314" y="897" on="0"/>
        <pt x="314" y="779" on="1"/>
        <pt x="314" y="639" on="0"/>
        <pt x="634" y="574" on="1"/>
        <pt x="634" y="443" on="1"/>
        <pt x="259" y="0" on="1"/>
        <pt x="25" y="0" on="1"/>
        <pt x="431" y="469" on="1"/>
        <pt x="117" y="566" on="0"/>
        <pt x="117" y="777" on="1"/>
        <pt x="117" y="1050" on="0"/>
        <pt x="455" y="1050" on="1"/>
        <pt x="995" y="1050" on="1"/>
        <pt x="995" y="0" on="1"/>
      </contour>
    </TTGlyph>
    <TTGlyph name="agrave" xMin="100" yMin="0" xMax="985" yMax="1430">
      <component glyphName="a" x="0" y="0" flags="0x200"/>
      <component glyphName="grave" x="194" y="0" flags="0x0"/>
    </TTGlyph>
    <TTGlyph name="alpha" xMin="100" yMin="0" xMax="1289" yMax="1050">
      <contour>
        <pt x="100" y="525" on="1"/>
        <pt x="100" y="1050" on="0"/>
        <pt x="550" y="1050" on="1"/>
        <pt x="881" y="1050" on="0"/>
        <pt x="994" y="726" on="1"/>
        <pt x="1102" y="1050" on="1"/>
        <pt x="1289" y="1050" on="1"/>
        <pt x="1091" y="522" on="1"/>
        <pt x="1275" y="0" on="1"/>
        <pt x="1085" y="0" on="1"/>
        <pt x="979" y="330" on="1"/>
        <pt x="853" y="0" on="0"/>
        <pt x="550" y="0" on="1"/>
        <pt x="102" y="0" on="0"/>
      </contour>
      <contour>
        <pt x="285" y="150" on="0"/>
        <pt x="550" y="150" on="1"/>
        <pt x="785" y="150" on="0"/>
        <pt x="905" y="529" on="1"/>
        <pt x="785" y="900" on="0"/>
        <pt x="550" y="900" on="1"/>
        <pt x="285" y="900" on="0"/>
        <pt x="285" y="529" on="1"/>
      </contour>
    </TTGlyph>
    <TTGlyph name="alphatonos" xMin="100" yMin="0" xMax="1289" yMax="1430">
      <component glyphName="alpha" x="0" y="0" flags="0x200"/>
      <component glyphName="tonos" x="420" y="0" flags="0x0"/>
    </TTGlyph>
    <TTGlyph name="amacron" xMin="100" yMin="0" xMax="985" yMax="1430">
      <component glyphName="a" x="0" y="0" flags="0x200"/>
      <component glyphName="macron" x="193" y="0" flags="0x0"/>
    </TTGlyph>
    <TTGlyph name="ampersand" xMin="100" yMin="-3" xMax="1275" yMax="1430">
      <contour>
        <pt x="100" y="1045" on="1"/>
        <pt x="100" y="1430" on="0"/>
        <pt x="610" y="1430" on="1"/>
        <pt x="795" y="1430" on="0"/>
        <pt x="970" y="1380" on="1"/>
        <pt x="970" y="1230" on="1"/>
        <pt x="795" y="1280" on="0"/>
        <pt x="623" y="1280" on="1"/>
        <pt x="285" y="1280" on="0"/>
        <pt x="285" y="1050" on="1"/>
        <pt x="285" y="800" on="0"/>
        <pt x="540" y="800" on="1"/>
        <pt x="928" y="800" on="1"/>
        <pt x="928" y="942" on="1"/>
        <pt x="991" y="942" on="1"/>
        <pt x="1093" y="800" on="1"/>
        <pt x="1275" y="800" on="1"/>
        <pt x="1275" y="650" on="1"/>
        <pt x="1113" y="650" on="1"/>
        <pt x="1113" y="490" on="1"/>
        <pt x="1113" y="-3" on="0"/>
        <pt x="595" y="-3" on="1"/>
        <pt x="100" y="-3" on="0"/>
        <pt x="100" y="394" on="1"/>
        <pt x="100" y="641" on="0"/>
        <pt x="293" y="727" on="1"/>
        <pt x="100" y="812" on="0"/>
      </contour>
      <contour>
        <pt x="542" y="650" on="1"/>
        <pt x="285" y="650" on="0"/>
        <pt x="285" y="399" on="1"/>
        <pt x="285" y="150" on="0"/>
        <pt x="586" y="150" on="1"/>
        <pt x="928" y="150" on="0"/>
        <pt x="928" y="492" on="1"/>
        <pt x="928" y="650" on="1"/>
      </contour>
    </TTGlyph>
    <TTGlyph name="anoteleia" xMin="100" yMin="865" xMax="285" yMax="1050">
      <contour>
        <pt x="285" y="1050" on="1"/>
        <pt x="285" y="865" on="1"/>
        <pt x="100" y="865" on="1"/>
        <pt x="100" y="1050" on="1"/>
      </contour>
    </TTGlyph>
    <TTGlyph name="aogonek" xMin="100" yMin="-426" xMax="1005" yMax="1050">
      <contour>
        <pt x="526" y="490" on="1"/>
        <pt x="285" y="490" on="0"/>
        <pt x="285" y="320" on="1"/>
        <pt x="285" y="150" on="0"/>
        <pt x="475" y="150" on="1"/>
        <pt x="667" y="150" on="0"/>
        <pt x="800" y="252" on="1"/>
        <pt x="800" y="470" on="1"/>
        <pt x="663" y="490" on="0"/>
      </contour>
      <contour>
        <pt x="817" y="0" on="1"/>
        <pt x="817" y="104" on="1"/>
        <pt x="660" y="0" on="0"/>
        <pt x="475" y="0" on="1"/>
        <pt x="100" y="0" on="0"/>
        <pt x="100" y="317" on="1"/>
        <pt x="100" y="640" on="0"/>
        <pt x="526" y="640" on="1"/>
        <pt x="663" y="640" on="0"/>
        <pt x="800" y="620" on="1"/>
        <pt x="800" y="719" on="1"/>
        <pt x="800" y="900" on="0"/>
        <pt x="517" y="900" on="1"/>
        <pt x="355" y="900" on="0"/>
        <pt x="185" y="850" on="1"/>
        <pt x="185" y="1000" on="1"/>
        <pt x="355" y="1050" on="0"/>
        <pt x="517" y="1050" on="1"/>
        <pt x="985" y="1050" on="0"/>
        <pt x="985" y="724" on="1"/>
        <pt x="985" y="0" on="1"/>
        <pt x="783" y="-126" on="0"/>
        <pt x="783" y="-228" on="1"/>
        <pt x="783" y="-296" on="0"/>
        <pt x="868" y="-296" on="1"/>
        <pt x="953" y="-296" on="0"/>
        <pt x="1005" y="-276" on="1"/>
        <pt x="1005" y="-406" on="1"/>
        <pt x="944" y="-426" on="0"/>
        <pt x="856" y="-426" on="1"/>
        <pt x="625" y="-426" on="0"/>
        <pt x="625" y="-253" on="1"/>
        <pt x="625" y="-122" on="0"/>
      </contour>
    </TTGlyph>
    <TTGlyph name="approxequal" xMin="100" yMin="250" xMax="950" yMax="800">
      <contour>
        <pt x="950" y="450" on="1"/>
        <pt x="950" y="300" on="1"/>
        <pt x="839" y="250" on="0"/>
        <pt x="730" y="250" on="1"/>
        <pt x="621" y="250" on="0"/>
        <pt x="515" y="300" on="1"/>
        <pt x="409" y="350" on="0"/>
        <pt x="305" y="350" on="1"/>
        <pt x="202" y="350" on="0"/>
        <pt x="100" y="300" on="1"/>
        <pt x="100" y="450" on="1"/>
        <pt x="212" y="500" on="0"/>
        <pt x="320" y="500" on="1"/>
        <pt x="429" y="500" on="0"/>
        <pt x="535" y="450" on="1"/>
        <pt x="641" y="400" on="0"/>
        <pt x="745" y="400" on="1"/>
        <pt x="849" y="400" on="0"/>
      </contour>
      <contour>
        <pt x="950" y="750" on="1"/>
        <pt x="950" y="600" on="1"/>
        <pt x="839" y="550" on="0"/>
        <pt x="730" y="550" on="1"/>
        <pt x="621" y="550" on="0"/>
        <pt x="515" y="600" on="1"/>
        <pt x="409" y="650" on="0"/>
        <pt x="305" y="650" on="1"/>
        <pt x="202" y="650" on="0"/>
        <pt x="100" y="600" on="1"/>
        <pt x="100" y="750" on="1"/>
        <pt x="212" y="800" on="0"/>
        <pt x="320" y="800" on="1"/>
        <pt x="429" y="800" on="0"/>
        <pt x="535" y="750" on="1"/>
        <pt x="641" y="700" on="0"/>
        <pt x="745" y="700" on="1"/>
        <pt x="849" y="700" on="0"/>
      </contour>
    </TTGlyph>
    <TTGlyph name="aring" xMin="100" yMin="0" xMax="985" yMax="1571">
      <component glyphName="a" x="0" y="0" flags="0x200"/>
      <component glyphName="ring" x="237" y="0" flags="0x0"/>
    </TTGlyph>
    <TTGlyph name="asciicircum" xMin="50" yMin="700" xMax="1000" yMax="1430">
      <contour>
        <pt x="450" y="1430" on="1"/>
        <pt x="600" y="1430" on="1"/>
        <pt x="1000" y="700" on="1"/>
        <pt x="850" y="700" on="1"/>
        <pt x="521" y="1303" on="1"/>
        <pt x="200" y="700" on="1"/>
        <pt x="50" y="700" on="1"/>
      </contour>
    </TTGlyph>
    <TTGlyph name="asciitilde" xMin="100" yMin="410" xMax="850" yMax="641">
      <contour>
        <pt x="100" y="580" on="1"/>
        <pt x="158" y="641" on="0"/>
        <pt x="262" y="641" on="1"/>
        <pt x="348" y="641" on="0"/>
        <pt x="465" y="600" on="1"/>
        <pt x="582" y="560" on="0"/>
        <pt x="672" y="560" on="1"/>
        <pt x="781" y="560" on="0"/>
        <pt x="850" y="620" on="1"/>
        <pt x="850" y="470" on="1"/>
        <pt x="792" y="410" on="0"/>
        <pt x="688" y="410" on="1"/>
        <pt x="602" y="410" on="0"/>
        <pt x="485" y="450" on="1"/>
        <pt x="368" y="491" on="0"/>
        <pt x="278" y="491" on="1"/>
        <pt x="169" y="491" on="0"/>
        <pt x="100" y="430" on="1"/>
      </contour>
    </TTGlyph>
    <TTGlyph name="asterisk" xMin="100" yMin="847" xMax="711" yMax="1430">
      <contour>
        <pt x="328" y="1430" on="1"/>
        <pt x="484" y="1430" on="1"/>
        <pt x="454" y="1198" on="1"/>
        <pt x="663" y="1299" on="1"/>
        <pt x="711" y="1152" on="1"/>
        <pt x="483" y="1109" on="1"/>
        <pt x="642" y="939" on="1"/>
        <pt x="519" y="847" on="1"/>
        <pt x="406" y="1052" on="1"/>
        <pt x="293" y="848" on="1"/>
        <pt x="169" y="937" on="1"/>
        <pt x="330" y="1108" on="1"/>
        <pt x="100" y="1150" on="1"/>
        <pt x="148" y="1300" on="1"/>
        <pt x="359" y="1197" on="1"/>
      </contour>
    </TTGlyph>
    <TTGlyph name="at" xMin="150" yMin="-380" xMax="2000" yMax="1440">
      <contour>
        <pt x="625" y="317" on="1"/>
        <pt x="625" y="640" on="0"/>
        <pt x="1051" y="640" on="1"/>
        <pt x="1208" y="640" on="0"/>
        <pt x="1325" y="620" on="1"/>
        <pt x="1325" y="729" on="1"/>
        <pt x="1325" y="900" on="0"/>
        <pt x="1042" y="900" on="1"/>
        <pt x="880" y="900" on="0"/>
        <pt x="710" y="850" on="1"/>
        <pt x="710" y="1000" on="1"/>
        <pt x="880" y="1050" on="0"/>
        <pt x="1042" y="1050" on="1"/>
        <pt x="1510" y="1050" on="0"/>
        <pt x="1510" y="714" on="1"/>
        <pt x="1510" y="88" on="1"/>
        <pt x="1510" y="0" on="0"/>
        <pt x="1610" y="0" on="1"/>
        <pt x="1815" y="0" on="0"/>
        <pt x="1815" y="540" on="1"/>
        <pt x="1815" y="1290" on="0"/>
        <pt x="1089" y="1290" on="1"/>
        <pt x="335" y="1290" on="0"/>
        <pt x="335" y="540" on="1"/>
        <pt x="335" y="-230" on="0"/>
        <pt x="1020" y="-230" on="1"/>
        <pt x="1020" y="-380" on="1"/>
        <pt x="150" y="-380" on="0"/>
        <pt x="150" y="540" on="1"/>
        <pt x="150" y="1440" on="0"/>
        <pt x="1074" y="1440" on="1"/>
        <pt x="2000" y="1440" on="0"/>
        <pt x="2000" y="540" on="1"/>
        <pt x="2000" y="-150" on="0"/>
        <pt x="1573" y="-150" on="1"/>
        <pt x="1332" y="-150" on="0"/>
        <pt x="1332" y="94" on="1"/>
        <pt x="1185" y="0" on="0"/>
        <pt x="1000" y="0" on="1"/>
        <pt x="625" y="0" on="0"/>
      </contour>
      <contour>
        <pt x="1215" y="490" on="0"/>
        <pt x="1051" y="490" on="1"/>
        <pt x="810" y="490" on="0"/>
        <pt x="810" y="320" on="1"/>
        <pt x="810" y="150" on="0"/>
        <pt x="1000" y="150" on="1"/>
        <pt x="1192" y="150" on="0"/>
        <pt x="1325" y="252" on="1"/>
        <pt x="1325" y="470" on="1"/>
      </contour>
    </TTGlyph>
    <TTGlyph name="atilde" xMin="100" yMin="0" xMax="985" yMax="1430">
      <component glyphName="a" x="0" y="0" flags="0x200"/>
      <component glyphName="tilde" x="193" y="0" flags="0x0"/>
    </TTGlyph>
    <TTGlyph name="b" xMin="150" yMin="0" xMax="1088" yMax="1430">
      <contour>
        <pt x="335" y="183" on="1"/>
        <pt x="426" y="154" on="0"/>
        <pt x="556" y="154" on="1"/>
        <pt x="906" y="154" on="0"/>
        <pt x="906" y="553" on="1"/>
        <pt x="906" y="890" on="0"/>
        <pt x="589" y="890" on="1"/>
        <pt x="445" y="890" on="0"/>
        <pt x="335" y="836" on="1"/>
      </contour>
      <contour>
        <pt x="150" y="1430" on="1"/>
        <pt x="335" y="1430" on="1"/>
        <pt x="335" y="1000" on="1"/>
        <pt x="454" y="1050" on="0"/>
        <pt x="590" y="1050" on="1"/>
        <pt x="1088" y="1050" on="0"/>
        <pt x="1088" y="546" on="1"/>
        <pt x="1088" y="0" on="0"/>
        <pt x="565" y="0" on="1"/>
        <pt x="339" y="0" on="0"/>
        <pt x="150" y="43" on="1"/>
      </contour>
    </TTGlyph>
    <TTGlyph name="backslash" xMin="25" yMin="0" xMax="955" yMax="1430">
      <contour>
        <pt x="25" y="1430" on="1"/>
        <pt x="230" y="1430" on="1"/>
        <pt x="955" y="0" on="1"/>
        <pt x="750" y="0" on="1"/>
      </contour>
    </TTGlyph>
    <TTGlyph name="bar" xMin="150" yMin="-380" xMax="335" yMax="1430">
      <contour>
        <pt x="335" y="1430" on="1"/>
        <pt x="335" y="-380" on="1"/>
        <pt x="150" y="-380" on="1"/>
        <pt x="150" y="1430" on="1"/>
      </contour>
    </TTGlyph>
    <TTGlyph name="beta" xMin="150" yMin="-362" xMax="1121" yMax="1430">
      <contour>
        <pt x="150" y="-362" on="1"/>
        <pt x="150" y="871" on="1"/>
        <pt x="150" y="1430" on="0"/>
        <pt x="644" y="1430" on="1"/>
        <pt x="1054" y="1430" on="0"/>
        <pt x="1054" y="1094" on="1"/>
        <pt x="1054" y="832" on="0"/>
        <pt x="803" y="769" on="1"/>
        <pt x="1121" y="732" on="0"/>
        <pt x="1121" y="381" on="1"/>
        <pt x="1121" y="-2" on="0"/>
        <pt x="707" y="-2" on="1"/>
        <pt x="571" y="-2" on="0"/>
        <pt x="465" y="58" on="1"/>
        <pt x="465" y="208" on="1"/>
        <pt x="572" y="148" on="0"/>
        <pt x="709" y="148" on="1"/>
        <pt x="936" y="148" on="0"/>
        <pt x="936" y="381" on="1"/>
        <pt x="936" y="689" on="0"/>
        <pt x="565" y="690" on="1"/>
        <pt x="565" y="808" on="1"/>
        <pt x="883" y="862" on="0"/>
        <pt x="883" y="1094" on="1"/>
        <pt x="883" y="1280" on="0"/>
        <pt x="637" y="1280" on="1"/>
        <pt x="335" y="1280" on="0"/>
        <pt x="335" y="868" on="1"/>
        <pt x="335" y="-362" on="1"/>
      </contour>
    </TTGlyph>
    <TTGlyph name="braceleft" xMin="100" yMin="-380" xMax="625" yMax="1430">
      <contour>
        <pt x="625" y="1430" on="1"/>
        <pt x="495" y="1254" on="0"/>
        <pt x="495" y="952" on="1"/>
        <pt x="495" y="600" on="0"/>
        <pt x="285" y="525" on="1"/>
        <pt x="495" y="450" on="0"/>
        <pt x="495" y="98" on="1"/>
        <pt x="495" y="-204" on="0"/>
        <pt x="625" y="-380" on="1"/>
        <pt x="440" y="-380" on="1"/>
        <pt x="310" y="-204" on="0"/>
        <pt x="310" y="98" on="1"/>
        <pt x="310" y="450" on="0"/>
        <pt x="100" y="450" on="1"/>
        <pt x="100" y="600" on="1"/>
        <pt x="310" y="600" on="0"/>
        <pt x="310" y="952" on="1"/>
        <pt x="310" y="1254" on="0"/>
        <pt x="440" y="1430" on="1"/>
      </contour>
    </TTGlyph>
    <TTGlyph name="braceright" xMin="50" yMin="-380" xMax="575" yMax="1430">
      <contour>
        <pt x="235" y="1430" on="1"/>
        <pt x="365" y="1254" on="0"/>
        <pt x="365" y="952" on="1"/>
        <pt x="365" y="600" on="0"/>
        <pt x="575" y="600" on="1"/>
        <pt x="575" y="450" on="1"/>
        <pt x="365" y="450" on="0"/>
        <pt x="365" y="98" on="1"/>
        <pt x="365" y="-204" on="0"/>
        <pt x="235" y="-380" on="1"/>
        <pt x="50" y="-380" on="1"/>
        <pt x="180" y="-204" on="0"/>
        <pt x="180" y="98" on="1"/>
        <pt x="180" y="450" on="0"/>
        <pt x="390" y="525" on="1"/>
        <pt x="180" y="600" on="0"/>
        <pt x="180" y="952" on="1"/>
        <pt x="180" y="1254" on="0"/>
        <pt x="50" y="1430" on="1"/>
      </contour>
    </TTGlyph>
    <TTGlyph name="bracketleft" xMin="150" yMin="-380" xMax="600" yMax="1430">
      <contour>
        <pt x="600" y="1430" on="1"/>
        <pt x="600" y="1280" on="1"/>
        <pt x="335" y="1280" on="1"/>
        <pt x="335" y="-230" on="1"/>
        <pt x="600" y="-230" on="1"/>
        <pt x="600" y="-380" on="1"/>
        <pt x="150" y="-380" on="1"/>
        <pt x="150" y="1430" on="1"/>
      </contour>
    </TTGlyph>
    <TTGlyph name="bracketright" xMin="50" yMin="-380" xMax="500" yMax="1430">
      <contour>
        <pt x="500" y="1430" on="1"/>
        <pt x="500" y="-380" on="1"/>
        <pt x="50" y="-380" on="1"/>
        <pt x="50" y="-230" on="1"/>
        <pt x="315" y="-230" on="1"/>
        <pt x="315" y="1280" on="1"/>
        <pt x="50" y="1280" on="1"/>
        <pt x="50" y="1430" on="1"/>
      </contour>
    </TTGlyph>
    <TTGlyph name="breve" xMin="100" yMin="1170" xMax="630" yMax="1430">
      <contour>
        <pt x="100" y="1430" on="1"/>
        <pt x="235" y="1430" on="1"/>
        <pt x="235" y="1280" on="0"/>
        <pt x="365" y="1280" on="1"/>
        <pt x="495" y="1280" on="0"/>
        <pt x="495" y="1430" on="1"/>
        <pt x="630" y="1430" on="1"/>
        <pt x="630" y="1170" on="0"/>
        <pt x="365" y="1170" on="1"/>
        <pt x="100" y="1170" on="0"/>
      </contour>
    </TTGlyph>
    <TTGlyph name="brokenbar" xMin="150" yMin="-380" xMax="335" yMax="1430">
      <contour>
        <pt x="335" y="350" on="1"/>
        <pt x="335" y="-380" on="1"/>
        <pt x="150" y="-380" on="1"/>
        <pt x="150" y="350" on="1"/>
      </contour>
      <contour>
        <pt x="334" y="1430" on="1"/>
        <pt x="334" y="700" on="1"/>
        <pt x="150" y="700" on="1"/>
        <pt x="150" y="1430" on="1"/>
      </contour>
    </TTGlyph>
    <TTGlyph name="bullet" xMin="100" yMin="510" xMax="530" yMax="940">
      <contour>
        <pt x="100" y="725" on="1"/>
        <pt x="100" y="940" on="0"/>
        <pt x="315" y="940" on="1"/>
        <pt x="530" y="940" on="0"/>
        <pt x="530" y="725" on="1"/>
        <pt x="530" y="510" on="0"/>
        <pt x="315" y="510" on="1"/>
        <pt x="100" y="510" on="0"/>
      </contour>
    </TTGlyph>
    <TTGlyph name="c" xMin="100" yMin="0" xMax="940" yMax="1050">
      <contour>
        <pt x="940" y="30" on="1"/>
        <pt x="810" y="0" on="0"/>
        <pt x="660" y="0" on="1"/>
        <pt x="100" y="0" on="0"/>
        <pt x="100" y="545" on="1"/>
        <pt x="100" y="1050" on="0"/>
        <pt x="660" y="1050" on="1"/>
        <pt x="810" y="1050" on="0"/>
        <pt x="940" y="1020" on="1"/>
        <pt x="940" y="870" on="1"/>
        <pt x="810" y="900" on="0"/>
        <pt x="650" y="900" on="1"/>
        <pt x="285" y="900" on="0"/>
        <pt x="285" y="545" on="1"/>
        <pt x="285" y="150" on="0"/>
        <pt x="650" y="150" on="1"/>
        <pt x="810" y="150" on="0"/>
        <pt x="940" y="180" on="1"/>
      </contour>
    </TTGlyph>
    <TTGlyph name="cacute" xMin="100" yMin="0" xMax="940" yMax="1430">
      <component glyphName="c" x="0" y="0" flags="0x200"/>
      <component glyphName="acute" x="291" y="0" flags="0x0"/>
    </TTGlyph>
    <TTGlyph name="caron" xMin="100" yMin="1170" xMax="600" yMax="1430">
      <contour>
        <pt x="100" y="1430" on="1"/>
        <pt x="250" y="1430" on="1"/>
        <pt x="350" y="1270" on="1"/>
        <pt x="450" y="1430" on="1"/>
        <pt x="600" y="1430" on="1"/>
        <pt x="425" y="1170" on="1"/>
        <pt x="275" y="1170" on="1"/>
      </contour>
    </TTGlyph>
    <TTGlyph name="ccaron" xMin="100" yMin="0" xMax="940" yMax="1430">
      <component glyphName="c" x="0" y="0" flags="0x200"/>
      <component glyphName="caron" x="238" y="0" flags="0x0"/>
    </TTGlyph>
    <TTGlyph name="ccedilla" xMin="100" yMin="-422" xMax="950" yMax="1050">
      <contour>
        <pt x="530" y="9" on="1"/>
        <pt x="100" y="72" on="0"/>
        <pt x="100" y="545" on="1"/>
        <pt x="100" y="1050" on="0"/>
        <pt x="670" y="1050" on="1"/>
        <pt x="820" y="1050" on="0"/>
        <pt x="950" y="1020" on="1"/>
        <pt x="950" y="870" on="1"/>
        <pt x="820" y="900" on="0"/>
        <pt x="690" y="900" on="1"/>
        <pt x="285" y="900" on="0"/>
        <pt x="285" y="545" on="1"/>
        <pt x="285" y="150" on="0"/>
        <pt x="690" y="150" on="1"/>
        <pt x="820" y="150" on="0"/>
        <pt x="950" y="180" on="1"/>
        <pt x="950" y="30" on="1"/>
        <pt x="820" y="0" on="0"/>
        <pt x="670" y="0" on="1"/>
        <pt x="658" y="0" on="1"/>
        <pt x="617" y="-77" on="1"/>
        <pt x="831" y="-77" on="0"/>
        <pt x="831" y="-249" on="1"/>
        <pt x="831" y="-422" on="0"/>
        <pt x="590" y="-422" on="1"/>
        <pt x="482" y="-422" on="0"/>
        <pt x="374" y="-372" on="1"/>
        <pt x="374" y="-264" on="1"/>
        <pt x="482" y="-314" on="0"/>
        <pt x="590" y="-314" on="1"/>
        <pt x="698" y="-314" on="0"/>
        <pt x="698" y="-249" on="1"/>
        <pt x="698" y="-185" on="0"/>
        <pt x="615" y="-185" on="1"/>
        <pt x="432" y="-185" on="1"/>
      </contour>
    </TTGlyph>
    <TTGlyph name="ccircumflex" xMin="100" yMin="0" xMax="940" yMax="1430">
      <component glyphName="c" x="0" y="0" flags="0x200"/>
      <component glyphName="circumflex" x="265" y="0" flags="0x0"/>
    </TTGlyph>
    <TTGlyph name="cdotaccent" xMin="100" yMin="0" xMax="940" yMax="1430">
      <component glyphName="c" x="0" y="0" flags="0x200"/>
      <component glyphName="dotaccent" x="443" y="0" flags="0x0"/>
    </TTGlyph>
    <TTGlyph name="cedilla" xMin="0" yMin="-422" xMax="457" yMax="75">
      <contour>
        <pt x="0" y="-264" on="1"/>
        <pt x="108" y="-314" on="0"/>
        <pt x="216" y="-314" on="1"/>
        <pt x="324" y="-314" on="0"/>
        <pt x="324" y="-249" on="1"/>
        <pt x="324" y="-185" on="0"/>
        <pt x="241" y="-185" on="1"/>
        <pt x="58" y="-185" on="1"/>
        <pt x="189" y="75" on="1"/>
        <pt x="324" y="75" on="1"/>
        <pt x="243" y="-77" on="1"/>
        <pt x="457" y="-77" on="0"/>
        <pt x="457" y="-249" on="1"/>
        <pt x="457" y="-422" on="0"/>
        <pt x="216" y="-422" on="1"/>
        <pt x="108" y="-422" on="0"/>
        <pt x="0" y="-372" on="1"/>
      </contour>
    </TTGlyph>
    <TTGlyph name="cent" xMin="100" yMin="0" xMax="950" yMax="1430">
      <contour>
        <pt x="570" y="1236" on="1"/>
        <pt x="570" y="1430" on="1"/>
        <pt x="745" y="1430" on="1"/>
        <pt x="745" y="1238" on="1"/>
        <pt x="853" y="1232" on="0"/>
        <pt x="950" y="1210" on="1"/>
        <pt x="950" y="1060" on="1"/>
        <pt x="820" y="1090" on="0"/>
        <pt x="690" y="1090" on="1"/>
        <pt x="285" y="1090" on="0"/>
        <pt x="285" y="735" on="1"/>
        <pt x="285" y="340" on="0"/>
        <pt x="690" y="340" on="1"/>
        <pt x="820" y="340" on="0"/>
        <pt x="950" y="370" on="1"/>
        <pt x="950" y="220" on="1"/>
        <pt x="853" y="198" on="0"/>
        <pt x="745" y="192" on="1"/>
        <pt x="745" y="0" on="1"/>
        <pt x="570" y="0" on="1"/>
        <pt x="570" y="195" on="1"/>
        <pt x="100" y="240" on="0"/>
        <pt x="100" y="735" on="1"/>
        <pt x="100" y="1194" on="0"/>
      </contour>
    </TTGlyph>
    <TTGlyph name="chi" xMin="40" yMin="-380" xMax="1090" yMax="1050">
      <contour>
        <pt x="463" y="335" on="1"/>
        <pt x="40" y="1050" on="1"/>
        <pt x="245" y="1050" on="1"/>
        <pt x="565" y="508" on="1"/>
        <pt x="885" y="1050" on="1"/>
        <pt x="1090" y="1050" on="1"/>
        <pt x="668" y="335" on="1"/>
        <pt x="1090" y="-380" on="1"/>
        <pt x="885" y="-380" on="1"/>
        <pt x="565" y="162" on="1"/>
        <pt x="245" y="-380" on="1"/>
        <pt x="40" y="-380" on="1"/>
      </contour>
    </TTGlyph>
    <TTGlyph name="circumflex" xMin="100" yMin="1170" xMax="600" yMax="1430">
      <contour>
        <pt x="275" y="1430" on="1"/>
        <pt x="425" y="1430" on="1"/>
        <pt x="600" y="1170" on="1"/>
        <pt x="450" y="1170" on="1"/>
        <pt x="350" y="1330" on="1"/>
        <pt x="250" y="1170" on="1"/>
        <pt x="100" y="1170" on="1"/>
      </contour>
    </TTGlyph>
    <TTGlyph name="colon" xMin="150" yMin="0" xMax="335" yMax="1050">
      <contour>
        <pt x="335" y="1050" on="1"/>
        <pt x="335" y="865" on="1"/>
        <pt x="150" y="865" on="1"/>
        <pt x="150" y="1050" on="1"/>
      </contour>
      <contour>
        <pt x="335" y="185" on="1"/>
        <pt x="335" y="0" on="1"/>
        <pt x="150" y="0" on="1"/>
        <pt x="150" y="185" on="1"/>
      </contour>
    </TTGlyph>
    <TTGlyph name="comma" xMin="25" yMin="-250" xMax="360" yMax="185">
      <contour>
        <pt x="360" y="185" on="1"/>
        <pt x="210" y="-250" on="1"/>
        <pt x="25" y="-250" on="1"/>
        <pt x="175" y="185" on="1"/>
      </contour>
    </TTGlyph>
    <TTGlyph name="commaccent" xMin="25" yMin="-380" xMax="360" yMax="-100">
      <contour>
        <pt x="360" y="-100" on="1"/>
        <pt x="210" y="-380" on="1"/>
        <pt x="25" y="-380" on="1"/>
        <pt x="175" y="-100" on="1"/>
      </contour>
    </TTGlyph>
    <TTGlyph name="copyright" xMin="150" yMin="-10" xMax="1635" yMax="1440">
      <contour>
        <pt x="255" y="80" on="0"/>
        <pt x="878" y="80" on="1"/>
        <pt x="1530" y="80" on="0"/>
        <pt x="1530" y="719" on="1"/>
        <pt x="1530" y="1350" on="0"/>
        <pt x="898" y="1350" on="1"/>
        <pt x="255" y="1350" on="0"/>
        <pt x="255" y="719" on="1"/>
      </contour>
      <contour>
        <pt x="150" y="723" on="1"/>
        <pt x="150" y="1440" on="0"/>
        <pt x="898" y="1440" on="1"/>
        <pt x="1635" y="1440" on="0"/>
        <pt x="1635" y="723" on="1"/>
        <pt x="1635" y="-10" on="0"/>
        <pt x="898" y="-10" on="1"/>
        <pt x="150" y="-10" on="0"/>
      </contour>
      <contour>
        <pt x="1183" y="336" on="1"/>
        <pt x="1058" y="285" on="0"/>
        <pt x="893" y="285" on="1"/>
        <pt x="477" y="285" on="0"/>
        <pt x="477" y="728" on="1"/>
        <pt x="477" y="1144" on="0"/>
        <pt x="893" y="1144" on="1"/>
        <pt x="1058" y="1144" on="0"/>
        <pt x="1183" y="1093" on="1"/>
        <pt x="1183" y="995" on="1"/>
        <pt x="1058" y="1053" on="0"/>
        <pt x="907" y="1053" on="1"/>
        <pt x="582" y="1053" on="0"/>
        <pt x="582" y="728" on="1"/>
        <pt x="582" y="376" on="0"/>
        <pt x="907" y="376" on="1"/>
        <pt x="1058" y="376" on="0"/>
        <pt x="1183" y="434" on="1"/>
      </contour>
    </TTGlyph>
    <TTGlyph name="currency" xMin="100" yMin="61" xMax="1039" yMax="988">
      <contour>
        <pt x="216" y="756" on="1"/>
        <pt x="100" y="876" on="1"/>
        <pt x="209" y="988" on="1"/>
        <pt x="334" y="867" on="1"/>
        <pt x="442" y="935" on="0"/>
        <pt x="576" y="935" on="1"/>
        <pt x="700" y="935" on="0"/>
        <pt x="801" y="867" on="1"/>
        <pt x="929" y="988" on="1"/>
        <pt x="1039" y="876" on="1"/>
        <pt x="921" y="756" on="1"/>
        <pt x="979" y="673" on="0"/>
        <pt x="979" y="525" on="1"/>
        <pt x="979" y="386" on="0"/>
        <pt x="911" y="293" on="1"/>
        <pt x="1039" y="173" on="1"/>
        <pt x="929" y="61" on="1"/>
        <pt x="801" y="184" on="1"/>
        <pt x="693" y="124" on="0"/>
        <pt x="568" y="124" on="1"/>
        <pt x="444" y="124" on="0"/>
        <pt x="325" y="184" on="1"/>
        <pt x="209" y="61" on="1"/>
        <pt x="100" y="173" on="1"/>
        <pt x="216" y="293" on="1"/>
        <pt x="159" y="396" on="0"/>
        <pt x="159" y="525" on="1"/>
        <pt x="159" y="662" on="0"/>
      </contour>
      <contour>
        <pt x="322" y="529" on="1"/>
        <pt x="322" y="283" on="0"/>
        <pt x="567" y="283" on="1"/>
        <pt x="812" y="283" on="0"/>
        <pt x="812" y="529" on="1"/>
        <pt x="812" y="773" on="0"/>
        <pt x="567" y="773" on="1"/>
        <pt x="322" y="773" on="0"/>
      </contour>
    </TTGlyph>
    <TTGlyph name="d" xMin="100" yMin="0" xMax="1040" yMax="1430">
      <contour>
        <pt x="855" y="836" on="1"/>
        <pt x="743" y="890" on="0"/>
        <pt x="599" y="890" on="1"/>
        <pt x="282" y="890" on="0"/>
        <pt x="282" y="553" on="1"/>
        <pt x="282" y="154" on="0"/>
        <pt x="599" y="154" on="1"/>
        <pt x="743" y="154" on="0"/>
        <pt x="855" y="193" on="1"/>
      </contour>
      <contour>
        <pt x="1040" y="63" on="1"/>
        <pt x="849" y="0" on="0"/>
        <pt x="569" y="0" on="1"/>
        <pt x="100" y="0" on="0"/>
        <pt x="100" y="546" on="1"/>
        <pt x="100" y="1050" on="0"/>
        <pt x="598" y="1050" on="1"/>
        <pt x="734" y="1050" on="0"/>
        <pt x="855" y="1000" on="1"/>
        <pt x="855" y="1430" on="1"/>
        <pt x="1040" y="1430" on="1"/>
      </contour>
    </TTGlyph>
    <TTGlyph name="dagger" xMin="50" yMin="-380" xMax="995" yMax="1430">
      <contour>
        <pt x="615" y="1430" on="1"/>
        <pt x="615" y="1050" on="1"/>
        <pt x="995" y="1050" on="1"/>
        <pt x="995" y="900" on="1"/>
        <pt x="615" y="900" on="1"/>
        <pt x="615" y="-380" on="1"/>
        <pt x="430" y="-380" on="1"/>
        <pt x="430" y="900" on="1"/>
        <pt x="50" y="900" on="1"/>
        <pt x="50" y="1050" on="1"/>
        <pt x="430" y="1050" on="1"/>
        <pt x="430" y="1430" on="1"/>
      </contour>
    </TTGlyph>
    <TTGlyph name="daggerdbl" xMin="50" yMin="-380" xMax="995" yMax="1430">
      <contour>
        <pt x="615" y="1430" on="1"/>
        <pt x="615" y="1050" on="1"/>
        <pt x="995" y="1050" on="1"/>
        <pt x="995" y="900" on="1"/>
        <pt x="615" y="900" on="1"/>
        <pt x="615" y="150" on="1"/>
        <pt x="995" y="150" on="1"/>
        <pt x="995" y="0" on="1"/>
        <pt x="615" y="0" on="1"/>
        <pt x="615" y="-380" on="1"/>
        <pt x="430" y="-380" on="1"/>
        <pt x="430" y="0" on="1"/>
        <pt x="50" y="0" on="1"/>
        <pt x="50" y="150" on="1"/>
        <pt x="430" y="150" on="1"/>
        <pt x="430" y="900" on="1"/>
        <pt x="50" y="900" on="1"/>
        <pt x="50" y="1050" on="1"/>
        <pt x="430" y="1050" on="1"/>
        <pt x="430" y="1430" on="1"/>
      </contour>
    </TTGlyph>
    <TTGlyph name="dcaron" xMin="100" yMin="0" xMax="1475" yMax="1430">
      <contour>
        <pt x="855" y="836" on="1"/>
        <pt x="743" y="890" on="0"/>
        <pt x="599" y="890" on="1"/>
        <pt x="282" y="890" on="0"/>
        <pt x="282" y="553" on="1"/>
        <pt x="282" y="154" on="0"/>
        <pt x="599" y="154" on="1"/>
        <pt x="743" y="154" on="0"/>
        <pt x="855" y="193" on="1"/>
      </contour>
      <contour>
        <pt x="1040" y="63" on="1"/>
        <pt x="849" y="0" on="0"/>
        <pt x="569" y="0" on="1"/>
        <pt x="100" y="0" on="0"/>
        <pt x="100" y="546" on="1"/>
        <pt x="100" y="1050" on="0"/>
        <pt x="598" y="1050" on="1"/>
        <pt x="734" y="1050" on="0"/>
        <pt x="855" y="1000" on="1"/>
        <pt x="855" y="1430" on="1"/>
        <pt x="1040" y="1430" on="1"/>
      </contour>
      <contour>
        <pt x="1475" y="1430" on="1"/>
        <pt x="1325" y="995" on="1"/>
        <pt x="1140" y="995" on="1"/>
        <pt x="1290" y="1430" on="1"/>
      </contour>
    </TTGlyph>
    <TTGlyph name="dcroat" xMin="100" yMin="0" xMax="1040" yMax="1430">
      <contour>
        <pt x="855" y="836" on="1"/>
        <pt x="743" y="890" on="0"/>
        <pt x="599" y="890" on="1"/>
        <pt x="282" y="890" on="0"/>
        <pt x="282" y="553" on="1"/>
        <pt x="282" y="154" on="0"/>
        <pt x="599" y="154" on="1"/>
        <pt x="743" y="154" on="0"/>
        <pt x="855" y="193" on="1"/>
      </contour>
      <contour>
        <pt x="1040" y="63" on="1"/>
        <pt x="849" y="0" on="0"/>
        <pt x="569" y="0" on="1"/>
        <pt x="100" y="0" on="0"/>
        <pt x="100" y="546" on="1"/>
        <pt x="100" y="1050" on="0"/>
        <pt x="598" y="1050" on="1"/>
        <pt x="734" y="1050" on="0"/>
        <pt x="855" y="1000" on="1"/>
        <pt x="855" y="1140" on="1"/>
        <pt x="120" y="1140" on="1"/>
        <pt x="120" y="1290" on="1"/>
        <pt x="855" y="1290" on="1"/>
        <pt x="855" y="1430" on="1"/>
        <pt x="1040" y="1430" on="1"/>
      </contour>
    </TTGlyph>
    <TTGlyph name="degree" xMin="100" yMin="911" xMax="652" yMax="1430">
      <contour>
        <pt x="230" y="1025" on="0"/>
        <pt x="378" y="1025" on="1"/>
        <pt x="522" y="1025" on="0"/>
        <pt x="522" y="1172" on="1"/>
        <pt x="522" y="1316" on="0"/>
        <pt x="378" y="1316" on="1"/>
        <pt x="230" y="1316" on="0"/>
        <pt x="230" y="1172" on="1"/>
      </contour>
      <contour>
        <pt x="100" y="1170" on="1"/>
        <pt x="100" y="1430" on="0"/>
        <pt x="378" y="1430" on="1"/>
        <pt x="652" y="1430" on="0"/>
        <pt x="652" y="1170" on="1"/>
        <pt x="652" y="911" on="0"/>
        <pt x="378" y="911" on="1"/>
        <pt x="100" y="911" on="0"/>
      </contour>
    </TTGlyph>
    <TTGlyph name="delta" xMin="100" yMin="-10" xMax="1100" yMax="1430">
      <contour>
        <pt x="1100" y="-10" on="0"/>
        <pt x="593" y="-10" on="1"/>
        <pt x="100" y="-10" on="0"/>
        <pt x="100" y="530" on="1"/>
        <pt x="100" y="1040" on="0"/>
        <pt x="615" y="1040" on="1"/>
        <pt x="450" y="1163" on="0"/>
        <pt x="214" y="1280" on="1"/>
        <pt x="214" y="1430" on="1"/>
        <pt x="999" y="1430" on="1"/>
        <pt x="999" y="1280" on="1"/>
        <pt x="502" y="1280" on="1"/>
        <pt x="1087" y="965" on="0"/>
        <pt x="1100" y="540" on="1"/>
      </contour>
      <contour>
        <pt x="915" y="536" on="1"/>
        <pt x="915" y="900" on="0"/>
        <pt x="593" y="900" on="1"/>
        <pt x="281" y="900" on="0"/>
        <pt x="281" y="530" on="1"/>
        <pt x="281" y="140" on="0"/>
        <pt x="594" y="140" on="1"/>
        <pt x="915" y="140" on="0"/>
      </contour>
    </TTGlyph>
    <TTGlyph name="dieresis" xMin="100" yMin="1260" xMax="655" yMax="1430">
      <contour>
        <pt x="655" y="1430" on="1"/>
        <pt x="655" y="1260" on="1"/>
        <pt x="470" y="1260" on="1"/>
        <pt x="470" y="1430" on="1"/>
      </contour>
      <contour>
        <pt x="285" y="1430" on="1"/>
        <pt x="285" y="1260" on="1"/>
        <pt x="100" y="1260" on="1"/>
        <pt x="100" y="1430" on="1"/>
      </contour>
    </TTGlyph>
    <TTGlyph name="dieresistonos" xMin="100" yMin="1191" xMax="945" yMax="1430">
      <contour>
        <pt x="945" y="1430" on="1"/>
        <pt x="945" y="1260" on="1"/>
        <pt x="760" y="1260" on="1"/>
        <pt x="760" y="1430" on="1"/>
      </contour>
      <contour>
        <pt x="285" y="1430" on="1"/>
        <pt x="285" y="1260" on="1"/>
        <pt x="100" y="1260" on="1"/>
        <pt x="100" y="1430" on="1"/>
      </contour>
      <contour>
        <pt x="464" y="1430" on="1"/>
        <pt x="703" y="1430" on="1"/>
        <pt x="464" y="1191" on="1"/>
        <pt x="300" y="1191" on="1"/>
      </contour>
    </TTGlyph>
    <TTGlyph name="divide" xMin="100" yMin="150" xMax="885" yMax="900">
      <contour>
        <pt x="885" y="600" on="1"/>
        <pt x="885" y="450" on="1"/>
        <pt x="100" y="450" on="1"/>
        <pt x="100" y="600" on="1"/>
      </contour>
      <contour>
        <pt x="585" y="300" on="1"/>
        <pt x="585" y="150" on="1"/>
        <pt x="400" y="150" on="1"/>
        <pt x="400" y="300" on="1"/>
      </contour>
      <contour>
        <pt x="585" y="900" on="1"/>
        <pt x="585" y="750" on="1"/>
        <pt x="400" y="750" on="1"/>
        <pt x="400" y="900" on="1"/>
      </contour>
    </TTGlyph>
    <TTGlyph name="dollar" xMin="100" yMin="0" xMax="950" yMax="1430">
      <contour>
        <pt x="469" y="1238" on="1"/>
        <pt x="469" y="1430" on="1"/>
        <pt x="644" y="1430" on="1"/>
        <pt x="644" y="1236" on="1"/>
        <pt x="778" y="1226" on="0"/>
        <pt x="910" y="1190" on="1"/>
        <pt x="910" y="1030" on="1"/>
        <pt x="725" y="1090" on="0"/>
        <pt x="537" y="1090" on="1"/>
        <pt x="275" y="1090" on="0"/>
        <pt x="275" y="940" on="1"/>
        <pt x="275" y="800" on="0"/>
        <pt x="440" y="800" on="1"/>
        <pt x="590" y="800" on="1"/>
        <pt x="950" y="800" on="0"/>
        <pt x="950" y="490" on="1"/>
        <pt x="950" y="239" on="0"/>
        <pt x="644" y="198" on="1"/>
        <pt x="644" y="0" on="1"/>
        <pt x="469" y="0" on="1"/>
        <pt x="469" y="191" on="1"/>
        <pt x="303" y="196" on="0"/>
        <pt x="140" y="240" on="1"/>
        <pt x="140" y="400" on="1"/>
        <pt x="325" y="340" on="0"/>
        <pt x="514" y="340" on="1"/>
        <pt x="765" y="340" on="0"/>
        <pt x="765" y="490" on="1"/>
        <pt x="765" y="630" on="0"/>
        <pt x="590" y="630" on="1"/>
        <pt x="440" y="630" on="1"/>
        <pt x="100" y="630" on="0"/>
        <pt x="100" y="940" on="1"/>
        <pt x="100" y="1216" on="0"/>
      </contour>
    </TTGlyph>
    <TTGlyph name="dotaccent" xMin="100" yMin="1240" xMax="305" yMax="1430">
      <contour>
        <pt x="305" y="1430" on="1"/>
        <pt x="305" y="1240" on="1"/>
        <pt x="100" y="1240" on="1"/>
        <pt x="100" y="1430" on="1"/>
      </contour>
    </TTGlyph>
    <TTGlyph name="dotlessi" xMin="170" yMin="0" xMax="355" yMax="1050">
      <contour>
        <pt x="355" y="1050" on="1"/>
        <pt x="355" y="0" on="1"/>
        <pt x="170" y="0" on="1"/>
        <pt x="170" y="1050" on="1"/>
      </contour>
    </TTGlyph>
    <TTGlyph name="e" xMin="100" yMin="0" xMax="1031" yMax="1050">
      <contour>
        <pt x="583" y="1050" on="1"/>
        <pt x="1031" y="1050" on="0"/>
        <pt x="1031" y="607" on="1"/>
        <pt x="1031" y="544" on="0"/>
        <pt x="1022" y="472" on="1"/>
        <pt x="285" y="472" on="1"/>
        <pt x="285" y="150" on="0"/>
        <pt x="661" y="150" on="1"/>
        <pt x="840" y="150" on="0"/>
        <pt x="979" y="190" on="1"/>
        <pt x="979" y="40" on="1"/>
        <pt x="840" y="0" on="0"/>
        <pt x="641" y="0" on="1"/>
        <pt x="100" y="0" on="0"/>
        <pt x="100" y="537" on="1"/>
        <pt x="100" y="1050" on="0"/>
      </contour>
      <contour>
        <pt x="285" y="626" on="1"/>
        <pt x="853" y="626" on="1"/>
        <pt x="847" y="902" on="0"/>
        <pt x="583" y="902" on="1"/>
        <pt x="303" y="902" on="0"/>
      </contour>
    </TTGlyph>
    <TTGlyph name="eacute" xMin="100" yMin="0" xMax="1031" yMax="1430">
      <component glyphName="e" x="0" y="0" flags="0x200"/>
      <component glyphName="acute" x="331" y="0" flags="0x0"/>
    </TTGlyph>
    <TTGlyph name="ebreve" xMin="100" yMin="0" xMax="1031" yMax="1430">
      <component glyphName="e" x="0" y="0" flags="0x200"/>
      <component glyphName="breve" x="201" y="0" flags="0x0"/>
    </TTGlyph>
    <TTGlyph name="ecaron" xMin="100" yMin="0" xMax="1031" yMax="1430">
      <component glyphName="e" x="0" y="0" flags="0x200"/>
      <component glyphName="caron" x="235" y="0" flags="0x0"/>
    </TTGlyph>
    <TTGlyph name="ecircumflex" xMin="100" yMin="0" xMax="1031" yMax="1430">
      <component glyphName="e" x="0" y="0" flags="0x200"/>
      <component glyphName="circumflex" x="225" y="0" flags="0x0"/>
    </TTGlyph>
    <TTGlyph name="edieresis" xMin="100" yMin="0" xMax="1031" yMax="1430">
      <component glyphName="e" x="0" y="0" flags="0x200"/>
      <component glyphName="dieresis" x="198" y="0" flags="0x0"/>
    </TTGlyph>
    <TTGlyph name="edotaccent" xMin="100" yMin="0" xMax="1031" yMax="1430">
      <component glyphName="e" x="0" y="0" flags="0x200"/>
      <component glyphName="dotaccent" x="383" y="0" flags="0x0"/>
    </TTGlyph>
    <TTGlyph name="egrave" xMin="100" yMin="0" xMax="1031" yMax="1430">
      <component glyphName="e" x="0" y="0" flags="0x200"/>
      <component glyphName="grave" x="197" y="0" flags="0x0"/>
    </TTGlyph>
    <TTGlyph name="eight" xMin="100" yMin="-10" xMax="1140" yMax="1444">
      <contour>
        <pt x="100" y="424" on="1"/>
        <pt x="100" y="647" on="0"/>
        <pt x="312" y="745" on="1"/>
        <pt x="140" y="850" on="0"/>
        <pt x="140" y="1078" on="1"/>
        <pt x="140" y="1444" on="0"/>
        <pt x="620" y="1444" on="1"/>
        <pt x="1100" y="1444" on="0"/>
        <pt x="1100" y="1078" on="1"/>
        <pt x="1100" y="850" on="0"/>
        <pt x="923" y="745" on="1"/>
        <pt x="1140" y="647" on="0"/>
        <pt x="1140" y="424" on="1"/>
        <pt x="1140" y="-10" on="0"/>
        <pt x="620" y="-10" on="1"/>
        <pt x="100" y="-10" on="0"/>
      </contour>
      <contour>
        <pt x="915" y="820" on="0"/>
        <pt x="915" y="1058" on="1"/>
        <pt x="915" y="1290" on="0"/>
        <pt x="612" y="1290" on="1"/>
        <pt x="325" y="1290" on="0"/>
        <pt x="325" y="1058" on="1"/>
        <pt x="325" y="820" on="0"/>
        <pt x="625" y="820" on="1"/>
      </contour>
      <contour>
        <pt x="955" y="140" on="0"/>
        <pt x="955" y="418" on="1"/>
        <pt x="955" y="670" on="0"/>
        <pt x="612" y="670" on="1"/>
        <pt x="285" y="670" on="0"/>
        <pt x="285" y="418" on="1"/>
        <pt x="285" y="140" on="0"/>
        <pt x="625" y="140" on="1"/>
      </contour>
    </TTGlyph>
    <TTGlyph name="eight.osf" xMin="115" yMin="-10" xMax="1135" yMax="1344">
      <contour>
        <pt x="115" y="374" on="1"/>
        <pt x="115" y="597" on="0"/>
        <pt x="367" y="705" on="1"/>
        <pt x="155" y="800" on="0"/>
        <pt x="155" y="1008" on="1"/>
        <pt x="155" y="1344" on="0"/>
        <pt x="625" y="1344" on="1"/>
        <pt x="1095" y="1344" on="0"/>
        <pt x="1095" y="1008" on="1"/>
        <pt x="1095" y="800" on="0"/>
        <pt x="878" y="705" on="1"/>
        <pt x="1135" y="597" on="0"/>
        <pt x="1135" y="374" on="1"/>
        <pt x="1135" y="-10" on="0"/>
        <pt x="625" y="-10" on="1"/>
        <pt x="115" y="-10" on="0"/>
      </contour>
      <contour>
        <pt x="910" y="770" on="0"/>
        <pt x="910" y="1008" on="1"/>
        <pt x="910" y="1190" on="0"/>
        <pt x="617" y="1190" on="1"/>
        <pt x="340" y="1190" on="0"/>
        <pt x="340" y="1008" on="1"/>
        <pt x="340" y="770" on="0"/>
        <pt x="630" y="770" on="1"/>
      </contour>
      <contour>
        <pt x="950" y="140" on="0"/>
        <pt x="950" y="378" on="1"/>
        <pt x="950" y="620" on="0"/>
        <pt x="617" y="620" on="1"/>
        <pt x="300" y="620" on="0"/>
        <pt x="300" y="378" on="1"/>
        <pt x="300" y="140" on="0"/>
        <pt x="630" y="140" on="1"/>
      </contour>
    </TTGlyph>
    <TTGlyph name="ellipsis" xMin="100" yMin="0" xMax="1085" yMax="185">
      <contour>
        <pt x="285" y="185" on="1"/>
        <pt x="285" y="0" on="1"/>
        <pt x="100" y="0" on="1"/>
        <pt x="100" y="185" on="1"/>
      </contour>
      <contour>
        <pt x="685" y="185" on="1"/>
        <pt x="685" y="0" on="1"/>
        <pt x="500" y="0" on="1"/>
        <pt x="500" y="185" on="1"/>
      </contour>
      <contour>
        <pt x="1085" y="185" on="1"/>
        <pt x="1085" y="0" on="1"/>
        <pt x="900" y="0" on="1"/>
        <pt x="900" y="185" on="1"/>
      </contour>
    </TTGlyph>
    <TTGlyph name="emacron" xMin="100" yMin="0" xMax="1031" yMax="1430">
      <component glyphName="e" x="0" y="0" flags="0x200"/>
      <component glyphName="macron" x="216" y="0" flags="0x0"/>
    </TTGlyph>
    <TTGlyph name="emdash" xMin="100" yMin="450" xMax="1600" yMax="600">
      <contour>
        <pt x="1600" y="600" on="1"/>
        <pt x="1600" y="450" on="1"/>
        <pt x="100" y="450" on="1"/>
        <pt x="100" y="600" on="1"/>
      </contour>
    </TTGlyph>
    <TTGlyph name="endash" xMin="100" yMin="450" xMax="1100" yMax="600">
      <contour>
        <pt x="1100" y="600" on="1"/>
        <pt x="1100" y="450" on="1"/>
        <pt x="100" y="450" on="1"/>
        <pt x="100" y="600" on="1"/>
      </contour>
    </TTGlyph>
    <TTGlyph name="eng" xMin="150" yMin="-398" xMax="1055" yMax="1050">
      <contour>
        <pt x="870" y="662" on="1"/>
        <pt x="870" y="896" on="0"/>
        <pt x="637" y="896" on="1"/>
        <pt x="478" y="896" on="0"/>
        <pt x="335" y="763" on="1"/>
        <pt x="335" y="0" on="1"/>
        <pt x="150" y="0" on="1"/>
        <pt x="150" y="1050" on="1"/>
        <pt x="275" y="1050" on="1"/>
        <pt x="308" y="916" on="1"/>
        <pt x="469" y="1050" on="0"/>
        <pt x="662" y="1050" on="1"/>
        <pt x="1055" y="1050" on="0"/>
        <pt x="1055" y="659" on="1"/>
        <pt x="1055" y="80" on="1"/>
        <pt x="1055" y="-238" on="0"/>
        <pt x="900" y="-398" on="1"/>
        <pt x="745" y="-293" on="1"/>
        <pt x="870" y="-158" on="0"/>
        <pt x="870" y="80" on="1"/>
      </contour>
    </TTGlyph>
    <TTGlyph name="eogonek" xMin="100" yMin="-426" xMax="1031" yMax="1050">
      <contour>
        <pt x="285" y="626" on="1"/>
        <pt x="853" y="626" on="1"/>
        <pt x="847" y="902" on="0"/>
        <pt x="573" y="902" on="1"/>
        <pt x="303" y="902" on="0"/>
      </contour>
      <contour>
        <pt x="774" y="14" on="1"/>
        <pt x="711" y="0" on="0"/>
        <pt x="641" y="0" on="1"/>
        <pt x="100" y="0" on="0"/>
        <pt x="100" y="537" on="1"/>
        <pt x="100" y="1050" on="0"/>
        <pt x="573" y="1050" on="1"/>
        <pt x="1031" y="1050" on="0"/>
        <pt x="1031" y="605" on="1"/>
        <pt x="1031" y="543" on="0"/>
        <pt x="1022" y="472" on="1"/>
        <pt x="285" y="472" on="1"/>
        <pt x="285" y="150" on="0"/>
        <pt x="661" y="150" on="1"/>
        <pt x="840" y="150" on="0"/>
        <pt x="979" y="190" on="1"/>
        <pt x="979" y="40" on="1"/>
        <pt x="777" y="-126" on="0"/>
        <pt x="777" y="-228" on="1"/>
        <pt x="777" y="-296" on="0"/>
        <pt x="862" y="-296" on="1"/>
        <pt x="947" y="-296" on="0"/>
        <pt x="999" y="-276" on="1"/>
        <pt x="999" y="-406" on="1"/>
        <pt x="938" y="-426" on="0"/>
        <pt x="850" y="-426" on="1"/>
        <pt x="619" y="-426" on="0"/>
        <pt x="619" y="-253" on="1"/>
        <pt x="619" y="-130" on="0"/>
      </contour>
    </TTGlyph>
    <TTGlyph name="epsilon" xMin="100" yMin="-10" xMax="825" yMax="1060">
      <contour>
        <pt x="825" y="850" on="1"/>
        <pt x="675" y="910" on="0"/>
        <pt x="505" y="910" on="1"/>
        <pt x="295" y="910" on="0"/>
        <pt x="295" y="778" on="1"/>
        <pt x="295" y="620" on="0"/>
        <pt x="540" y="620" on="1"/>
        <pt x="735" y="620" on="1"/>
        <pt x="735" y="470" on="1"/>
        <pt x="537" y="470" on="1"/>
        <pt x="285" y="470" on="0"/>
        <pt x="285" y="290" on="1"/>
        <pt x="285" y="140" on="0"/>
        <pt x="505" y="140" on="1"/>
        <pt x="675" y="140" on="0"/>
        <pt x="825" y="200" on="1"/>
        <pt x="825" y="40" on="1"/>
        <pt x="675" y="-10" on="0"/>
        <pt x="505" y="-10" on="1"/>
        <pt x="100" y="-10" on="0"/>
        <pt x="100" y="290" on="1"/>
        <pt x="100" y="490" on="0"/>
        <pt x="318" y="545" on="1"/>
        <pt x="110" y="604" on="0"/>
        <pt x="110" y="778" on="1"/>
        <pt x="110" y="1060" on="0"/>
        <pt x="515" y="1060" on="1"/>
        <pt x="675" y="1060" on="0"/>
        <pt x="825" y="1010" on="1"/>
      </contour>
    </TTGlyph>
    <TTGlyph name="epsilontonos" xMin="100" yMin="-10" xMax="825" yMax="1430">
      <component glyphName="epsilon" x="0" y="0" flags="0x200"/>
      <component glyphName="tonos" x="228" y="0" flags="0x0"/>
    </TTGlyph>
    <TTGlyph name="equal" xMin="100" yMin="300" xMax="850" yMax="750">
      <contour>
        <pt x="850" y="450" on="1"/>
        <pt x="850" y="300" on="1"/>
        <pt x="100" y="300" on="1"/>
        <pt x="100" y="450" on="1"/>
      </contour>
      <contour>
        <pt x="850" y="750" on="1"/>
        <pt x="850" y="600" on="1"/>
        <pt x="100" y="600" on="1"/>
        <pt x="100" y="750" on="1"/>
      </contour>
    </TTGlyph>
    <TTGlyph name="eta" xMin="150" yMin="-380" xMax="1055" yMax="1050">
      <contour>
        <pt x="150" y="0" on="1"/>
        <pt x="150" y="1050" on="1"/>
        <pt x="275" y="1050" on="1"/>
        <pt x="308" y="916" on="1"/>
        <pt x="499" y="1050" on="0"/>
        <pt x="692" y="1050" on="1"/>
        <pt x="1055" y="1050" on="0"/>
        <pt x="1055" y="659" on="1"/>
        <pt x="1055" y="-380" on="1"/>
        <pt x="870" y="-380" on="1"/>
        <pt x="870" y="662" on="1"/>
        <pt x="870" y="896" on="0"/>
        <pt x="637" y="896" on="1"/>
        <pt x="478" y="896" on="0"/>
        <pt x="335" y="763" on="1"/>
        <pt x="335" y="0" on="1"/>
      </contour>
    </TTGlyph>
    <TTGlyph name="etatonos" xMin="150" yMin="-380" xMax="1055" yMax="1430">
      <component glyphName="eta" x="0" y="0" flags="0x200"/>
      <component glyphName="tonos" x="368" y="0" flags="0x0"/>
    </TTGlyph>
    <TTGlyph name="eth" xMin="100" yMin="-10" xMax="1090" yMax="1430">
      <contour>
        <pt x="905" y="576" on="1"/>
        <pt x="905" y="702" on="0"/>
        <pt x="887" y="820" on="1"/>
        <pt x="807" y="910" on="0"/>
        <pt x="593" y="910" on="1"/>
        <pt x="281" y="910" on="0"/>
        <pt x="281" y="540" on="1"/>
        <pt x="281" y="140" on="0"/>
        <pt x="594" y="140" on="1"/>
        <pt x="905" y="140" on="0"/>
      </contour>
      <contour>
        <pt x="884" y="1251" on="1"/>
        <pt x="1090" y="1040" on="0"/>
        <pt x="1090" y="580" on="1"/>
        <pt x="1090" y="-10" on="0"/>
        <pt x="593" y="-10" on="1"/>
        <pt x="100" y="-10" on="0"/>
        <pt x="100" y="540" on="1"/>
        <pt x="100" y="1050" on="0"/>
        <pt x="564" y="1050" on="1"/>
        <pt x="741" y="1050" on="0"/>
        <pt x="860" y="960" on="1"/>
        <pt x="811" y="1101" on="0"/>
        <pt x="713" y="1180" on="1"/>
        <pt x="430" y="1061" on="1"/>
        <pt x="430" y="1180" on="1"/>
        <pt x="591" y="1248" on="1"/>
        <pt x="501" y="1280" on="0"/>
        <pt x="386" y="1280" on="1"/>
        <pt x="180" y="1280" on="1"/>
        <pt x="180" y="1430" on="1"/>
        <pt x="388" y="1430" on="1"/>
        <pt x="629" y="1430" on="0"/>
        <pt x="787" y="1330" on="1"/>
        <pt x="1027" y="1430" on="1"/>
        <pt x="1027" y="1311" on="1"/>
      </contour>
    </TTGlyph>
    <TTGlyph name="exclam" xMin="150" yMin="0" xMax="335" yMax="1430">
      <contour>
        <pt x="335" y="1430" on="1"/>
        <pt x="335" y="370" on="1"/>
        <pt x="150" y="370" on="1"/>
        <pt x="150" y="1430" on="1"/>
      </contour>
      <contour>
        <pt x="335" y="185" on="1"/>
        <pt x="335" y="0" on="1"/>
        <pt x="150" y="0" on="1"/>
        <pt x="150" y="185" on="1"/>
      </contour>
    </TTGlyph>
    <TTGlyph name="exclamdown" xMin="150" yMin="-380" xMax="335" yMax="1050">
      <contour>
        <pt x="150" y="-380" on="1"/>
        <pt x="150" y="680" on="1"/>
        <pt x="335" y="680" on="1"/>
        <pt x="335" y="-380" on="1"/>
      </contour>
      <contour>
        <pt x="150" y="865" on="1"/>
        <pt x="150" y="1050" on="1"/>
        <pt x="335" y="1050" on="1"/>
        <pt x="335" y="865" on="1"/>
      </contour>
    </TTGlyph>
    <TTGlyph name="f" xMin="150" yMin="0" xMax="806" yMax="1482">
      <contour>
        <pt x="150" y="0" on="1"/>
        <pt x="150" y="1101" on="1"/>
        <pt x="150" y="1482" on="0"/>
        <pt x="582" y="1482" on="1"/>
        <pt x="701" y="1482" on="0"/>
        <pt x="806" y="1442" on="1"/>
        <pt x="806" y="1292" on="1"/>
        <pt x="707" y="1332" on="0"/>
        <pt x="581" y="1332" on="1"/>
        <pt x="335" y="1332" on="0"/>
        <pt x="335" y="1109" on="1"/>
        <pt x="335" y="1050" on="1"/>
        <pt x="660" y="1050" on="1"/>
        <pt x="660" y="900" on="1"/>
        <pt x="335" y="900" on="1"/>
        <pt x="335" y="0" on="1"/>
      </contour>
    </TTGlyph>
    <TTGlyph name="fb" xMin="150" yMin="0" xMax="1777" yMax="1502">
      <contour>
        <pt x="1024" y="183" on="1"/>
        <pt x="1115" y="154" on="0"/>
        <pt x="1245" y="154" on="1"/>
        <pt x="1595" y="154" on="0"/>
        <pt x="1595" y="553" on="1"/>
        <pt x="1595" y="890" on="0"/>
        <pt x="1278" y="890" on="1"/>
        <pt x="1134" y="890" on="0"/>
        <pt x="1024" y="836" on="1"/>
      </contour>
      <contour>
        <pt x="839" y="1333" on="1"/>
        <pt x="729" y="1352" on="0"/>
        <pt x="641" y="1352" on="1"/>
        <pt x="335" y="1352" on="0"/>
        <pt x="335" y="1109" on="1"/>
        <pt x="335" y="1050" on="1"/>
        <pt x="650" y="1050" on="1"/>
        <pt x="650" y="900" on="1"/>
        <pt x="335" y="900" on="1"/>
        <pt x="335" y="0" on="1"/>
        <pt x="150" y="0" on="1"/>
        <pt x="150" y="1101" on="1"/>
        <pt x="150" y="1502" on="0"/>
        <pt x="642" y="1502" on="1"/>
        <pt x="821" y="1502" on="0"/>
        <pt x="1024" y="1430" on="1"/>
        <pt x="1024" y="1000" on="1"/>
        <pt x="1143" y="1050" on="0"/>
        <pt x="1279" y="1050" on="1"/>
        <pt x="1777" y="1050" on="0"/>
        <pt x="1777" y="546" on="1"/>
        <pt x="1777" y="0" on="0"/>
        <pt x="1254" y="0" on="1"/>
        <pt x="1028" y="0" on="0"/>
        <pt x="839" y="43" on="1"/>
      </contour>
    </TTGlyph>
    <TTGlyph name="ff" xMin="150" yMin="0" xMax="1413" yMax="1492">
      <contour>
        <pt x="787" y="900" on="1"/>
        <pt x="335" y="900" on="1"/>
        <pt x="335" y="0" on="1"/>
        <pt x="150" y="0" on="1"/>
        <pt x="150" y="1101" on="1"/>
        <pt x="150" y="1482" on="0"/>
        <pt x="532" y="1482" on="1"/>
        <pt x="621" y="1482" on="0"/>
        <pt x="706" y="1442" on="1"/>
        <pt x="706" y="1292" on="1"/>
        <pt x="627" y="1332" on="0"/>
        <pt x="531" y="1332" on="1"/>
        <pt x="335" y="1332" on="0"/>
        <pt x="335" y="1119" on="1"/>
        <pt x="335" y="1050" on="1"/>
        <pt x="787" y="1050" on="1"/>
        <pt x="787" y="1111" on="1"/>
        <pt x="787" y="1492" on="0"/>
        <pt x="1199" y="1492" on="1"/>
        <pt x="1318" y="1492" on="0"/>
        <pt x="1413" y="1452" on="1"/>
        <pt x="1413" y="1302" on="1"/>
        <pt x="1324" y="1342" on="0"/>
        <pt x="1198" y="1342" on="1"/>
        <pt x="972" y="1342" on="0"/>
        <pt x="972" y="1119" on="1"/>
        <pt x="972" y="1050" on="1"/>
        <pt x="1287" y="1050" on="1"/>
        <pt x="1287" y="900" on="1"/>
        <pt x="972" y="900" on="1"/>
        <pt x="972" y="0" on="1"/>
        <pt x="787" y="0" on="1"/>
      </contour>
    </TTGlyph>
    <TTGlyph name="ffb" xMin="150" yMin="0" xMax="2414" yMax="1502">
      <contour>
        <pt x="1661" y="183" on="1"/>
        <pt x="1752" y="154" on="0"/>
        <pt x="1882" y="154" on="1"/>
        <pt x="2232" y="154" on="0"/>
        <pt x="2232" y="553" on="1"/>
        <pt x="2232" y="890" on="0"/>
        <pt x="1915" y="890" on="1"/>
        <pt x="1771" y="890" on="0"/>
        <pt x="1661" y="836" on="1"/>
      </contour>
      <contour>
        <pt x="787" y="900" on="1"/>
        <pt x="335" y="900" on="1"/>
        <pt x="335" y="0" on="1"/>
        <pt x="150" y="0" on="1"/>
        <pt x="150" y="1111" on="1"/>
        <pt x="150" y="1492" on="0"/>
        <pt x="532" y="1492" on="1"/>
        <pt x="621" y="1492" on="0"/>
        <pt x="706" y="1452" on="1"/>
        <pt x="706" y="1302" on="1"/>
        <pt x="627" y="1342" on="0"/>
        <pt x="531" y="1342" on="1"/>
        <pt x="335" y="1342" on="0"/>
        <pt x="335" y="1129" on="1"/>
        <pt x="335" y="1050" on="1"/>
        <pt x="787" y="1050" on="1"/>
        <pt x="787" y="1101" on="1"/>
        <pt x="787" y="1502" on="0"/>
        <pt x="1279" y="1502" on="1"/>
        <pt x="1458" y="1502" on="0"/>
        <pt x="1661" y="1430" on="1"/>
        <pt x="1661" y="1000" on="1"/>
        <pt x="1780" y="1050" on="0"/>
        <pt x="1916" y="1050" on="1"/>
        <pt x="2414" y="1050" on="0"/>
        <pt x="2414" y="546" on="1"/>
        <pt x="2414" y="0" on="0"/>
        <pt x="1891" y="0" on="1"/>
        <pt x="1665" y="0" on="0"/>
        <pt x="1476" y="43" on="1"/>
        <pt x="1476" y="1333" on="1"/>
        <pt x="1366" y="1352" on="0"/>
        <pt x="1278" y="1352" on="1"/>
        <pt x="972" y="1352" on="0"/>
        <pt x="972" y="1109" on="1"/>
        <pt x="972" y="1050" on="1"/>
        <pt x="1287" y="1050" on="1"/>
        <pt x="1287" y="900" on="1"/>
        <pt x="972" y="900" on="1"/>
        <pt x="972" y="0" on="1"/>
        <pt x="787" y="0" on="1"/>
      </contour>
    </TTGlyph>
    <TTGlyph name="ffh" xMin="150" yMin="0" xMax="2381" yMax="1502">
      <contour>
        <pt x="787" y="900" on="1"/>
        <pt x="335" y="900" on="1"/>
        <pt x="335" y="0" on="1"/>
        <pt x="150" y="0" on="1"/>
        <pt x="150" y="1111" on="1"/>
        <pt x="150" y="1492" on="0"/>
        <pt x="532" y="1492" on="1"/>
        <pt x="621" y="1492" on="0"/>
        <pt x="706" y="1452" on="1"/>
        <pt x="706" y="1302" on="1"/>
        <pt x="627" y="1342" on="0"/>
        <pt x="531" y="1342" on="1"/>
        <pt x="335" y="1342" on="0"/>
        <pt x="335" y="1129" on="1"/>
        <pt x="335" y="1050" on="1"/>
        <pt x="787" y="1050" on="1"/>
        <pt x="787" y="1101" on="1"/>
        <pt x="787" y="1502" on="0"/>
        <pt x="1279" y="1502" on="1"/>
        <pt x="1458" y="1502" on="0"/>
        <pt x="1661" y="1430" on="1"/>
        <pt x="1661" y="936" on="1"/>
        <pt x="1795" y="1050" on="0"/>
        <pt x="1988" y="1050" on="1"/>
        <pt x="2381" y="1050" on="0"/>
        <pt x="2381" y="659" on="1"/>
        <pt x="2381" y="0" on="1"/>
        <pt x="2196" y="0" on="1"/>
        <pt x="2196" y="662" on="1"/>
        <pt x="2196" y="896" on="0"/>
        <pt x="1963" y="896" on="1"/>
        <pt x="1804" y="896" on="0"/>
        <pt x="1661" y="763" on="1"/>
        <pt x="1661" y="0" on="1"/>
        <pt x="1476" y="0" on="1"/>
        <pt x="1476" y="1333" on="1"/>
        <pt x="1366" y="1352" on="0"/>
        <pt x="1278" y="1352" on="1"/>
        <pt x="972" y="1352" on="0"/>
        <pt x="972" y="1109" on="1"/>
        <pt x="972" y="1050" on="1"/>
        <pt x="1287" y="1050" on="1"/>
        <pt x="1287" y="900" on="1"/>
        <pt x="972" y="900" on="1"/>
        <pt x="972" y="0" on="1"/>
        <pt x="787" y="0" on="1"/>
      </contour>
    </TTGlyph>
    <TTGlyph name="ffi" xMin="150" yMin="0" xMax="1608" yMax="1502">
      <contour>
        <pt x="1608" y="1050" on="1"/>
        <pt x="1608" y="0" on="1"/>
        <pt x="1423" y="0" on="1"/>
        <pt x="1423" y="900" on="1"/>
        <pt x="972" y="900" on="1"/>
        <pt x="972" y="0" on="1"/>
        <pt x="787" y="0" on="1"/>
        <pt x="787" y="900" on="1"/>
        <pt x="335" y="900" on="1"/>
        <pt x="335" y="0" on="1"/>
        <pt x="150" y="0" on="1"/>
        <pt x="150" y="1111" on="1"/>
        <pt x="150" y="1492" on="0"/>
        <pt x="532" y="1492" on="1"/>
        <pt x="621" y="1492" on="0"/>
        <pt x="706" y="1452" on="1"/>
        <pt x="706" y="1302" on="1"/>
        <pt x="627" y="1342" on="0"/>
        <pt x="531" y="1342" on="1"/>
        <pt x="335" y="1342" on="0"/>
        <pt x="335" y="1129" on="1"/>
        <pt x="335" y="1050" on="1"/>
        <pt x="787" y="1050" on="1"/>
        <pt x="787" y="1101" on="1"/>
        <pt x="787" y="1502" on="0"/>
        <pt x="1229" y="1502" on="1"/>
        <pt x="1368" y="1502" on="0"/>
        <pt x="1523" y="1442" on="1"/>
        <pt x="1523" y="1292" on="1"/>
        <pt x="1374" y="1352" on="0"/>
        <pt x="1228" y="1352" on="1"/>
        <pt x="972" y="1352" on="0"/>
        <pt x="972" y="1119" on="1"/>
        <pt x="972" y="1050" on="1"/>
      </contour>
    </TTGlyph>
    <TTGlyph name="ffj" xMin="150" yMin="-398" xMax="1608" yMax="1502">
      <contour>
        <pt x="787" y="1050" on="1"/>
        <pt x="787" y="1101" on="1"/>
        <pt x="787" y="1502" on="0"/>
        <pt x="1229" y="1502" on="1"/>
        <pt x="1368" y="1502" on="0"/>
        <pt x="1523" y="1442" on="1"/>
        <pt x="1523" y="1292" on="1"/>
        <pt x="1374" y="1352" on="0"/>
        <pt x="1228" y="1352" on="1"/>
        <pt x="972" y="1352" on="0"/>
        <pt x="972" y="1119" on="1"/>
        <pt x="972" y="1050" on="1"/>
        <pt x="1608" y="1050" on="1"/>
        <pt x="1608" y="80" on="1"/>
        <pt x="1608" y="-238" on="0"/>
        <pt x="1453" y="-398" on="1"/>
        <pt x="1298" y="-293" on="1"/>
        <pt x="1423" y="-158" on="0"/>
        <pt x="1423" y="80" on="1"/>
        <pt x="1423" y="900" on="1"/>
        <pt x="972" y="900" on="1"/>
        <pt x="972" y="0" on="1"/>
        <pt x="787" y="0" on="1"/>
        <pt x="787" y="900" on="1"/>
        <pt x="335" y="900" on="1"/>
        <pt x="335" y="0" on="1"/>
        <pt x="150" y="0" on="1"/>
        <pt x="150" y="1111" on="1"/>
        <pt x="150" y="1492" on="0"/>
        <pt x="532" y="1492" on="1"/>
        <pt x="621" y="1492" on="0"/>
        <pt x="706" y="1452" on="1"/>
        <pt x="706" y="1302" on="1"/>
        <pt x="627" y="1342" on="0"/>
        <pt x="531" y="1342" on="1"/>
        <pt x="335" y="1342" on="0"/>
        <pt x="335" y="1129" on="1"/>
        <pt x="335" y="1050" on="1"/>
      </contour>
    </TTGlyph>
    <TTGlyph name="ffk" xMin="150" yMin="0" xMax="2442" yMax="1502">
      <contour>
        <pt x="787" y="900" on="1"/>
        <pt x="335" y="900" on="1"/>
        <pt x="335" y="0" on="1"/>
        <pt x="150" y="0" on="1"/>
        <pt x="150" y="1111" on="1"/>
        <pt x="150" y="1492" on="0"/>
        <pt x="532" y="1492" on="1"/>
        <pt x="621" y="1492" on="0"/>
        <pt x="706" y="1452" on="1"/>
        <pt x="706" y="1302" on="1"/>
        <pt x="627" y="1342" on="0"/>
        <pt x="531" y="1342" on="1"/>
        <pt x="335" y="1342" on="0"/>
        <pt x="335" y="1129" on="1"/>
        <pt x="335" y="1050" on="1"/>
        <pt x="787" y="1050" on="1"/>
        <pt x="787" y="1101" on="1"/>
        <pt x="787" y="1502" on="0"/>
        <pt x="1279" y="1502" on="1"/>
        <pt x="1458" y="1502" on="0"/>
        <pt x="1661" y="1430" on="1"/>
        <pt x="1661" y="968" on="1"/>
        <pt x="1814" y="1050" on="0"/>
        <pt x="2014" y="1050" on="1"/>
        <pt x="2406" y="1050" on="0"/>
        <pt x="2406" y="747" on="1"/>
        <pt x="2406" y="527" on="0"/>
        <pt x="2106" y="443" on="1"/>
        <pt x="2442" y="0" on="1"/>
        <pt x="2208" y="0" on="1"/>
        <pt x="1874" y="445" on="1"/>
        <pt x="1874" y="528" on="1"/>
        <pt x="2221" y="559" on="0"/>
        <pt x="2221" y="748" on="1"/>
        <pt x="2221" y="900" on="0"/>
        <pt x="2001" y="900" on="1"/>
        <pt x="1828" y="900" on="0"/>
        <pt x="1661" y="806" on="1"/>
        <pt x="1661" y="0" on="1"/>
        <pt x="1476" y="0" on="1"/>
        <pt x="1476" y="1333" on="1"/>
        <pt x="1366" y="1352" on="0"/>
        <pt x="1278" y="1352" on="1"/>
        <pt x="972" y="1352" on="0"/>
        <pt x="972" y="1109" on="1"/>
        <pt x="972" y="1050" on="1"/>
        <pt x="1287" y="1050" on="1"/>
        <pt x="1287" y="900" on="1"/>
        <pt x="972" y="900" on="1"/>
        <pt x="972" y="0" on="1"/>
        <pt x="787" y="0" on="1"/>
      </contour>
    </TTGlyph>
    <TTGlyph name="ffl" xMin="150" yMin="0" xMax="1661" yMax="1502">
      <contour>
        <pt x="787" y="900" on="1"/>
        <pt x="335" y="900" on="1"/>
        <pt x="335" y="0" on="1"/>
        <pt x="150" y="0" on="1"/>
        <pt x="150" y="1111" on="1"/>
        <pt x="150" y="1492" on="0"/>
        <pt x="532" y="1492" on="1"/>
        <pt x="621" y="1492" on="0"/>
        <pt x="706" y="1452" on="1"/>
        <pt x="706" y="1302" on="1"/>
        <pt x="627" y="1342" on="0"/>
        <pt x="531" y="1342" on="1"/>
        <pt x="335" y="1342" on="0"/>
        <pt x="335" y="1129" on="1"/>
        <pt x="335" y="1050" on="1"/>
        <pt x="787" y="1050" on="1"/>
        <pt x="787" y="1101" on="1"/>
        <pt x="787" y="1502" on="0"/>
        <pt x="1279" y="1502" on="1"/>
        <pt x="1458" y="1502" on="0"/>
        <pt x="1661" y="1430" on="1"/>
        <pt x="1661" y="0" on="1"/>
        <pt x="1476" y="0" on="1"/>
        <pt x="1476" y="1333" on="1"/>
        <pt x="1366" y="1352" on="0"/>
        <pt x="1278" y="1352" on="1"/>
        <pt x="972" y="1352" on="0"/>
        <pt x="972" y="1109" on="1"/>
        <pt x="972" y="1050" on="1"/>
        <pt x="1287" y="1050" on="1"/>
        <pt x="1287" y="900" on="1"/>
        <pt x="972" y="900" on="1"/>
        <pt x="972" y="0" on="1"/>
        <pt x="787" y="0" on="1"/>
      </contour>
    </TTGlyph>
    <TTGlyph name="fh" xMin="150" yMin="0" xMax="1744" yMax="1502">
      <contour>
        <pt x="839" y="1333" on="1"/>
        <pt x="729" y="1352" on="0"/>
        <pt x="641" y="1352" on="1"/>
        <pt x="335" y="1352" on="0"/>
        <pt x="335" y="1109" on="1"/>
        <pt x="335" y="1050" on="1"/>
        <pt x="650" y="1050" on="1"/>
        <pt x="650" y="900" on="1"/>
        <pt x="335" y="900" on="1"/>
        <pt x="335" y="0" on="1"/>
        <pt x="150" y="0" on="1"/>
        <pt x="150" y="1101" on="1"/>
        <pt x="150" y="1502" on="0"/>
        <pt x="642" y="1502" on="1"/>
        <pt x="821" y="1502" on="0"/>
        <pt x="1024" y="1430" on="1"/>
        <pt x="1024" y="936" on="1"/>
        <pt x="1158" y="1050" on="0"/>
        <pt x="1351" y="1050" on="1"/>
        <pt x="1744" y="1050" on="0"/>
        <pt x="1744" y="659" on="1"/>
        <pt x="1744" y="0" on="1"/>
        <pt x="1559" y="0" on="1"/>
        <pt x="1559" y="662" on="1"/>
        <pt x="1559" y="896" on="0"/>
        <pt x="1326" y="896" on="1"/>
        <pt x="1167" y="896" on="0"/>
        <pt x="1024" y="763" on="1"/>
        <pt x="1024" y="0" on="1"/>
        <pt x="839" y="0" on="1"/>
      </contour>
    </TTGlyph>
    <TTGlyph name="fi" xMin="150" yMin="0" xMax="961" yMax="1502">
      <contour>
        <pt x="335" y="900" on="1"/>
        <pt x="335" y="0" on="1"/>
        <pt x="150" y="0" on="1"/>
        <pt x="150" y="1101" on="1"/>
        <pt x="150" y="1502" on="0"/>
        <pt x="592" y="1502" on="1"/>
        <pt x="731" y="1502" on="0"/>
        <pt x="886" y="1442" on="1"/>
        <pt x="886" y="1292" on="1"/>
        <pt x="737" y="1352" on="0"/>
        <pt x="591" y="1352" on="1"/>
        <pt x="335" y="1352" on="0"/>
        <pt x="335" y="1119" on="1"/>
        <pt x="335" y="1050" on="1"/>
        <pt x="961" y="1050" on="1"/>
        <pt x="961" y="0" on="1"/>
        <pt x="776" y="0" on="1"/>
        <pt x="776" y="900" on="1"/>
      </contour>
    </TTGlyph>
    <TTGlyph name="five" xMin="125" yMin="-10" xMax="1075" yMax="1430">
      <contour>
        <pt x="155" y="1430" on="1"/>
        <pt x="1019" y="1430" on="1"/>
        <pt x="1019" y="1280" on="1"/>
        <pt x="313" y="1280" on="1"/>
        <pt x="289" y="838" on="1"/>
        <pt x="406" y="860" on="0"/>
        <pt x="535" y="860" on="1"/>
        <pt x="1075" y="860" on="0"/>
        <pt x="1075" y="450" on="1"/>
        <pt x="1075" y="-10" on="0"/>
        <pt x="515" y="-10" on="1"/>
        <pt x="325" y="-10" on="0"/>
        <pt x="125" y="50" on="1"/>
        <pt x="125" y="210" on="1"/>
        <pt x="325" y="140" on="0"/>
        <pt x="525" y="140" on="1"/>
        <pt x="890" y="140" on="0"/>
        <pt x="890" y="450" on="1"/>
        <pt x="890" y="710" on="0"/>
        <pt x="535" y="710" on="1"/>
        <pt x="310" y="710" on="0"/>
        <pt x="125" y="670" on="1"/>
      </contour>
    </TTGlyph>
    <TTGlyph name="five.osf" xMin="155" yMin="-290" xMax="1045" yMax="1050">
      <contour>
        <pt x="205" y="1050" on="1"/>
        <pt x="969" y="1050" on="1"/>
        <pt x="969" y="900" on="1"/>
        <pt x="362" y="900" on="1"/>
        <pt x="329" y="498" on="1"/>
        <pt x="446" y="520" on="0"/>
        <pt x="545" y="520" on="1"/>
        <pt x="1045" y="520" on="0"/>
        <pt x="1045" y="130" on="1"/>
        <pt x="1045" y="-290" on="0"/>
        <pt x="485" y="-290" on="1"/>
        <pt x="305" y="-290" on="0"/>
        <pt x="155" y="-230" on="1"/>
        <pt x="155" y="-70" on="1"/>
        <pt x="305" y="-140" on="0"/>
        <pt x="495" y="-140" on="1"/>
        <pt x="860" y="-140" on="0"/>
        <pt x="860" y="130" on="1"/>
        <pt x="860" y="370" on="0"/>
        <pt x="545" y="370" on="1"/>
        <pt x="350" y="370" on="0"/>
        <pt x="155" y="320" on="1"/>
      </contour>
    </TTGlyph>
    <TTGlyph name="fj" xMin="150" yMin="-398" xMax="961" yMax="1502">
      <contour>
        <pt x="776" y="900" on="1"/>
        <pt x="335" y="900" on="1"/>
        <pt x="335" y="0" on="1"/>
        <pt x="150" y="0" on="1"/>
        <pt x="150" y="1101" on="1"/>
        <pt x="150" y="1502" on="0"/>
        <pt x="592" y="1502" on="1"/>
        <pt x="731" y="1502" on="0"/>
        <pt x="886" y="1442" on="1"/>
        <pt x="886" y="1292" on="1"/>
        <pt x="737" y="1352" on="0"/>
        <pt x="591" y="1352" on="1"/>
        <pt x="335" y="1352" on="0"/>
        <pt x="335" y="1119" on="1"/>
        <pt x="335" y="1050" on="1"/>
        <pt x="961" y="1050" on="1"/>
        <pt x="961" y="80" on="1"/>
        <pt x="961" y="-238" on="0"/>
        <pt x="806" y="-398" on="1"/>
        <pt x="651" y="-293" on="1"/>
        <pt x="776" y="-158" on="0"/>
        <pt x="776" y="80" on="1"/>
      </contour>
    </TTGlyph>
    <TTGlyph name="fk" xMin="150" yMin="0" xMax="1805" yMax="1502">
      <contour>
        <pt x="839" y="1333" on="1"/>
        <pt x="729" y="1352" on="0"/>
        <pt x="641" y="1352" on="1"/>
        <pt x="335" y="1352" on="0"/>
        <pt x="335" y="1109" on="1"/>
        <pt x="335" y="1050" on="1"/>
        <pt x="650" y="1050" on="1"/>
        <pt x="650" y="900" on="1"/>
        <pt x="335" y="900" on="1"/>
        <pt x="335" y="0" on="1"/>
        <pt x="150" y="0" on="1"/>
        <pt x="150" y="1101" on="1"/>
        <pt x="150" y="1502" on="0"/>
        <pt x="642" y="1502" on="1"/>
        <pt x="821" y="1502" on="0"/>
        <pt x="1024" y="1430" on="1"/>
        <pt x="1024" y="968" on="1"/>
        <pt x="1177" y="1050" on="0"/>
        <pt x="1377" y="1050" on="1"/>
        <pt x="1769" y="1050" on="0"/>
        <pt x="1769" y="747" on="1"/>
        <pt x="1769" y="527" on="0"/>
        <pt x="1469" y="443" on="1"/>
        <pt x="1805" y="0" on="1"/>
        <pt x="1571" y="0" on="1"/>
        <pt x="1237" y="445" on="1"/>
        <pt x="1237" y="528" on="1"/>
        <pt x="1584" y="559" on="0"/>
        <pt x="1584" y="748" on="1"/>
        <pt x="1584" y="900" on="0"/>
        <pt x="1364" y="900" on="1"/>
        <pt x="1191" y="900" on="0"/>
        <pt x="1024" y="806" on="1"/>
        <pt x="1024" y="0" on="1"/>
        <pt x="839" y="0" on="1"/>
      </contour>
    </TTGlyph>
    <TTGlyph name="fl" xMin="150" yMin="0" xMax="1024" yMax="1502">
      <contour>
        <pt x="839" y="1333" on="1"/>
        <pt x="729" y="1352" on="0"/>
        <pt x="641" y="1352" on="1"/>
        <pt x="335" y="1352" on="0"/>
        <pt x="335" y="1109" on="1"/>
        <pt x="335" y="1050" on="1"/>
        <pt x="650" y="1050" on="1"/>
        <pt x="650" y="900" on="1"/>
        <pt x="335" y="900" on="1"/>
        <pt x="335" y="0" on="1"/>
        <pt x="150" y="0" on="1"/>
        <pt x="150" y="1101" on="1"/>
        <pt x="150" y="1502" on="0"/>
        <pt x="642" y="1502" on="1"/>
        <pt x="821" y="1502" on="0"/>
        <pt x="1024" y="1430" on="1"/>
        <pt x="1024" y="0" on="1"/>
        <pt x="839" y="0" on="1"/>
      </contour>
    </TTGlyph>
    <TTGlyph name="florin" xMin="50" yMin="-384" xMax="997" yMax="1434">
      <contour>
        <pt x="997" y="1280" on="1"/>
        <pt x="966" y="1286" on="0"/>
        <pt x="939" y="1286" on="1"/>
        <pt x="768" y="1286" on="0"/>
        <pt x="725" y="1070" on="1"/>
        <pt x="701" y="950" on="1"/>
        <pt x="911" y="950" on="1"/>
        <pt x="881" y="800" on="1"/>
        <pt x="671" y="800" on="1"/>
        <pt x="507" y="-20" on="1"/>
        <pt x="434" y="-384" on="0"/>
        <pt x="116" y="-384" on="1"/>
        <pt x="84" y="-384" on="0"/>
        <pt x="50" y="-380" on="1"/>
        <pt x="50" y="-230" on="1"/>
        <pt x="81" y="-236" on="0"/>
        <pt x="108" y="-236" on="1"/>
        <pt x="279" y="-236" on="0"/>
        <pt x="322" y="-20" on="1"/>
        <pt x="486" y="800" on="1"/>
        <pt x="296" y="800" on="1"/>
        <pt x="326" y="950" on="1"/>
        <pt x="516" y="950" on="1"/>
        <pt x="540" y="1070" on="1"/>
        <pt x="613" y="1434" on="0"/>
        <pt x="931" y="1434" on="1"/>
        <pt x="963" y="1434" on="0"/>
        <pt x="997" y="1430" on="1"/>
      </contour>
    </TTGlyph>
    <TTGlyph name="four" xMin="60" yMin="0" xMax="1145" yMax="1430">
      <contour>
        <pt x="997" y="0" on="1"/>
        <pt x="812" y="0" on="1"/>
        <pt x="812" y="340" on="1"/>
        <pt x="60" y="340" on="1"/>
        <pt x="60" y="490" on="1"/>
        <pt x="635" y="1430" on="1"/>
        <pt x="829" y="1430" on="1"/>
        <pt x="253" y="490" on="1"/>
        <pt x="812" y="490" on="1"/>
        <pt x="812" y="998" on="1"/>
        <pt x="997" y="998" on="1"/>
        <pt x="997" y="490" on="1"/>
        <pt x="1145" y="414" on="1"/>
        <pt x="1145" y="340" on="1"/>
        <pt x="997" y="340" on="1"/>
      </contour>
    </TTGlyph>
    <TTGlyph name="four.osf" xMin="60" yMin="-280" xMax="1105" yMax="1049">
      <contour>
        <pt x="957" y="-280" on="1"/>
        <pt x="772" y="-280" on="1"/>
        <pt x="772" y="29" on="1"/>
        <pt x="60" y="29" on="1"/>
        <pt x="60" y="179" on="1"/>
        <pt x="605" y="1049" on="1"/>
        <pt x="799" y="1049" on="1"/>
        <pt x="253" y="179" on="1"/>
        <pt x="772" y="179" on="1"/>
        <pt x="772" y="657" on="1"/>
        <pt x="957" y="657" on="1"/>
        <pt x="957" y="179" on="1"/>
        <pt x="1105" y="103" on="1"/>
        <pt x="1105" y="29" on="1"/>
        <pt x="957" y="29" on="1"/>
      </contour>
    </TTGlyph>
    <TTGlyph name="fraction" xMin="100" yMin="0" xMax="1170" yMax="1430">
      <contour>
        <pt x="285" y="0" on="1"/>
        <pt x="100" y="0" on="1"/>
        <pt x="985" y="1430" on="1"/>
        <pt x="1170" y="1430" on="1"/>
      </contour>
    </TTGlyph>
    <TTGlyph name="g" xMin="100" yMin="-380" xMax="1037" yMax="1050">
      <contour>
        <pt x="852" y="872" on="1"/>
        <pt x="757" y="896" on="0"/>
        <pt x="617" y="896" on="1"/>
        <pt x="282" y="896" on="0"/>
        <pt x="282" y="533" on="1"/>
        <pt x="282" y="160" on="0"/>
        <pt x="599" y="160" on="1"/>
        <pt x="743" y="160" on="0"/>
        <pt x="852" y="214" on="1"/>
      </contour>
      <contour>
        <pt x="1037" y="0" on="1"/>
        <pt x="1037" y="-380" on="0"/>
        <pt x="554" y="-380" on="1"/>
        <pt x="360" y="-380" on="0"/>
        <pt x="210" y="-330" on="1"/>
        <pt x="210" y="-180" on="1"/>
        <pt x="363" y="-230" on="0"/>
        <pt x="556" y="-230" on="1"/>
        <pt x="852" y="-230" on="0"/>
        <pt x="852" y="0" on="1"/>
        <pt x="852" y="50" on="1"/>
        <pt x="734" y="0" on="0"/>
        <pt x="598" y="0" on="1"/>
        <pt x="100" y="0" on="0"/>
        <pt x="100" y="531" on="1"/>
        <pt x="100" y="1050" on="0"/>
        <pt x="625" y="1050" on="1"/>
        <pt x="838" y="1050" on="0"/>
        <pt x="1037" y="1007" on="1"/>
      </contour>
    </TTGlyph>
    <TTGlyph name="g.alt" xMin="90" yMin="-400" xMax="1090" yMax="1050">
      <contour>
        <pt x="557" y="1050" on="1"/>
        <pt x="690" y="1050" on="0"/>
        <pt x="787" y="1000" on="1"/>
        <pt x="933" y="1050" on="1"/>
        <pt x="1090" y="1050" on="1"/>
        <pt x="1090" y="900" on="1"/>
        <pt x="904" y="900" on="1"/>
        <pt x="988" y="821" on="0"/>
        <pt x="989" y="687" on="1"/>
        <pt x="989" y="315" on="0"/>
        <pt x="544" y="315" on="1"/>
        <pt x="472" y="315" on="0"/>
        <pt x="360" y="345" on="1"/>
        <pt x="285" y="282" on="0"/>
        <pt x="285" y="221" on="1"/>
        <pt x="285" y="150" on="0"/>
        <pt x="374" y="150" on="1"/>
        <pt x="718" y="150" on="1"/>
        <pt x="1055" y="150" on="0"/>
        <pt x="1055" y="-95" on="1"/>
        <pt x="1055" y="-400" on="0"/>
        <pt x="543" y="-400" on="1"/>
        <pt x="301" y="-400" on="0"/>
        <pt x="90" y="-310" on="1"/>
        <pt x="90" y="-140" on="1"/>
        <pt x="304" y="-250" on="0"/>
        <pt x="547" y="-250" on="1"/>
        <pt x="870" y="-250" on="0"/>
        <pt x="870" y="-95" on="1"/>
        <pt x="870" y="0" on="0"/>
        <pt x="721" y="0" on="1"/>
        <pt x="358" y="0" on="1"/>
        <pt x="115" y="0" on="0"/>
        <pt x="115" y="184" on="1"/>
        <pt x="115" y="308" on="0"/>
        <pt x="235" y="411" on="1"/>
        <pt x="110" y="500" on="0"/>
        <pt x="110" y="678" on="1"/>
        <pt x="110" y="1050" on="0"/>
      </contour>
      <contour>
        <pt x="295" y="470" on="0"/>
        <pt x="552" y="470" on="1"/>
        <pt x="804" y="470" on="0"/>
        <pt x="804" y="685" on="1"/>
        <pt x="804" y="900" on="0"/>
        <pt x="552" y="900" on="1"/>
        <pt x="295" y="900" on="0"/>
        <pt x="295" y="685" on="1"/>
      </contour>
    </TTGlyph>
    <TTGlyph name="gamma" xMin="35" yMin="-380" xMax="1035" yMax="1050">
      <contour>
        <pt x="35" y="1050" on="1"/>
        <pt x="230" y="1050" on="1"/>
        <pt x="532" y="203" on="1"/>
        <pt x="840" y="1050" on="1"/>
        <pt x="1035" y="1050" on="1"/>
        <pt x="619" y="0" on="1"/>
        <pt x="619" y="-380" on="1"/>
        <pt x="434" y="-380" on="1"/>
        <pt x="434" y="0" on="1"/>
      </contour>
    </TTGlyph>
    <TTGlyph name="gbreve" xMin="100" yMin="-380" xMax="1037" yMax="1430">
      <component glyphName="g" x="0" y="0" flags="0x200"/>
      <component glyphName="breve" x="244" y="0" flags="0x0"/>
    </TTGlyph>
    <TTGlyph name="gbreve.alt" xMin="90" yMin="-400" xMax="1090" yMax="1430">
      <contour>
        <pt x="557" y="1050" on="1"/>
        <pt x="690" y="1050" on="0"/>
        <pt x="787" y="1000" on="1"/>
        <pt x="933" y="1050" on="1"/>
        <pt x="1090" y="1050" on="1"/>
        <pt x="1090" y="900" on="1"/>
        <pt x="904" y="900" on="1"/>
        <pt x="988" y="821" on="0"/>
        <pt x="989" y="687" on="1"/>
        <pt x="989" y="315" on="0"/>
        <pt x="544" y="315" on="1"/>
        <pt x="472" y="315" on="0"/>
        <pt x="360" y="345" on="1"/>
        <pt x="285" y="282" on="0"/>
        <pt x="285" y="221" on="1"/>
        <pt x="285" y="150" on="0"/>
        <pt x="374" y="150" on="1"/>
        <pt x="718" y="150" on="1"/>
        <pt x="1055" y="150" on="0"/>
        <pt x="1055" y="-95" on="1"/>
        <pt x="1055" y="-400" on="0"/>
        <pt x="543" y="-400" on="1"/>
        <pt x="301" y="-400" on="0"/>
        <pt x="90" y="-310" on="1"/>
        <pt x="90" y="-140" on="1"/>
        <pt x="304" y="-250" on="0"/>
        <pt x="547" y="-250" on="1"/>
        <pt x="870" y="-250" on="0"/>
        <pt x="870" y="-95" on="1"/>
        <pt x="870" y="0" on="0"/>
        <pt x="721" y="0" on="1"/>
        <pt x="358" y="0" on="1"/>
        <pt x="115" y="0" on="0"/>
        <pt x="115" y="184" on="1"/>
        <pt x="115" y="308" on="0"/>
        <pt x="235" y="411" on="1"/>
        <pt x="110" y="500" on="0"/>
        <pt x="110" y="678" on="1"/>
        <pt x="110" y="1050" on="0"/>
      </contour>
      <contour>
        <pt x="295" y="470" on="0"/>
        <pt x="552" y="470" on="1"/>
        <pt x="804" y="470" on="0"/>
        <pt x="804" y="685" on="1"/>
        <pt x="804" y="900" on="0"/>
        <pt x="552" y="900" on="1"/>
        <pt x="295" y="900" on="0"/>
        <pt x="295" y="685" on="1"/>
      </contour>
      <contour>
        <pt x="285" y="1430" on="1"/>
        <pt x="420" y="1430" on="1"/>
        <pt x="420" y="1280" on="0"/>
        <pt x="550" y="1280" on="1"/>
        <pt x="680" y="1280" on="0"/>
        <pt x="680" y="1430" on="1"/>
        <pt x="815" y="1430" on="1"/>
        <pt x="815" y="1170" on="0"/>
        <pt x="550" y="1170" on="1"/>
        <pt x="285" y="1170" on="0"/>
      </contour>
    </TTGlyph>
    <TTGlyph name="gcircumflex" xMin="100" yMin="-380" xMax="1037" yMax="1430">
      <component glyphName="g" x="0" y="0" flags="0x200"/>
      <component glyphName="circumflex" x="269" y="0" flags="0x0"/>
    </TTGlyph>
    <TTGlyph name="gcircumflex.alt" xMin="90" yMin="-400" xMax="1090" yMax="1430">
      <contour>
        <pt x="557" y="1050" on="1"/>
        <pt x="690" y="1050" on="0"/>
        <pt x="787" y="1000" on="1"/>
        <pt x="933" y="1050" on="1"/>
        <pt x="1090" y="1050" on="1"/>
        <pt x="1090" y="900" on="1"/>
        <pt x="904" y="900" on="1"/>
        <pt x="988" y="821" on="0"/>
        <pt x="989" y="687" on="1"/>
        <pt x="989" y="315" on="0"/>
        <pt x="544" y="315" on="1"/>
        <pt x="472" y="315" on="0"/>
        <pt x="360" y="345" on="1"/>
        <pt x="285" y="282" on="0"/>
        <pt x="285" y="221" on="1"/>
        <pt x="285" y="150" on="0"/>
        <pt x="374" y="150" on="1"/>
        <pt x="718" y="150" on="1"/>
        <pt x="1055" y="150" on="0"/>
        <pt x="1055" y="-95" on="1"/>
        <pt x="1055" y="-400" on="0"/>
        <pt x="543" y="-400" on="1"/>
        <pt x="301" y="-400" on="0"/>
        <pt x="90" y="-310" on="1"/>
        <pt x="90" y="-140" on="1"/>
        <pt x="304" y="-250" on="0"/>
        <pt x="547" y="-250" on="1"/>
        <pt x="870" y="-250" on="0"/>
        <pt x="870" y="-95" on="1"/>
        <pt x="870" y="0" on="0"/>
        <pt x="721" y="0" on="1"/>
        <pt x="358" y="0" on="1"/>
        <pt x="115" y="0" on="0"/>
        <pt x="115" y="184" on="1"/>
        <pt x="115" y="308" on="0"/>
        <pt x="235" y="411" on="1"/>
        <pt x="110" y="500" on="0"/>
        <pt x="110" y="678" on="1"/>
        <pt x="110" y="1050" on="0"/>
      </contour>
      <contour>
        <pt x="295" y="470" on="0"/>
        <pt x="552" y="470" on="1"/>
        <pt x="804" y="470" on="0"/>
        <pt x="804" y="685" on="1"/>
        <pt x="804" y="900" on="0"/>
        <pt x="552" y="900" on="1"/>
        <pt x="295" y="900" on="0"/>
        <pt x="295" y="685" on="1"/>
      </contour>
      <contour>
        <pt x="483" y="1430" on="1"/>
        <pt x="633" y="1430" on="1"/>
        <pt x="808" y="1170" on="1"/>
        <pt x="658" y="1170" on="1"/>
        <pt x="558" y="1330" on="1"/>
        <pt x="458" y="1170" on="1"/>
        <pt x="308" y="1170" on="1"/>
      </contour>
    </TTGlyph>
</ttFont>
